<?xml version="1.0" encoding="UTF-8" ?>
<svg version="1.1" width="30" height="30" xmlns="http://www.w3.org/2000/svg" shape-rendering="crispEdges">
<rect x="10" y="0" width="10" height="1" fill="#050505" />
<rect x="8" y="1" width="2" height="1" fill="#050505" />
<rect x="10" y="1" width="10" height="3" fill="#EDEDED" />
<rect x="20" y="1" width="2" height="1" fill="#050505" />
<rect x="6" y="2" width="2" height="1" fill="#050505" />
<rect x="8" y="2" width="2" height="5" fill="#EDEDED" />
<rect x="20" y="2" width="2" height="2" fill="#EDEDED" />
<rect x="22" y="2" width="2" height="1" fill="#050505" />
<rect x="4" y="3" width="2" height="1" fill="#050505" />
<rect x="6" y="3" width="2" height="6" fill="#EDEDED" />
<rect x="22" y="3" width="2" height="1" fill="#EDEDED" />
<rect x="24" y="3" width="2" height="1" fill="#050505" />
<rect x="3" y="4" width="1" height="1" fill="#050505" />
<rect x="4" y="4" width="2" height="10" fill="#EDEDED" />
<rect x="10" y="4" width="7" height="1" fill="#EDEDED" />
<rect x="17" y="4" width="1" height="3" fill="#000000" />
<rect x="18" y="4" width="1" height="3" fill="#676767" />
<rect x="19" y="4" width="2" height="1" fill="#EDEDED" />
<rect x="21" y="4" width="1" height="3" fill="#000000" />
<rect x="22" y="4" width="1" height="3" fill="#676767" />
<rect x="23" y="4" width="3" height="11" fill="#EDEDED" />
<rect x="26" y="4" width="1" height="1" fill="#050505" />
<rect x="2" y="5" width="1" height="2" fill="#050505" />
<rect x="3" y="5" width="1" height="20" fill="#EDEDED" />
<rect x="10" y="5" width="6" height="1" fill="#EDEDED" />
<rect x="16" y="5" width="1" height="8" fill="#000000" />
<rect x="19" y="5" width="2" height="8" fill="#000000" />
<rect x="26" y="5" width="1" height="20" fill="#EDEDED" />
<rect x="27" y="5" width="1" height="2" fill="#050505" />
<rect x="10" y="6" width="6" height="7" fill="#000000" />
<rect x="1" y="7" width="1" height="2" fill="#050505" />
<rect x="2" y="7" width="1" height="16" fill="#EDEDED" />
<rect x="8" y="7" width="1" height="1" fill="#EDEDED" />
<rect x="9" y="7" width="1" height="7" fill="#000000" />
<rect x="17" y="7" width="1" height="1" fill="#676767" />
<rect x="18" y="7" width="1" height="6" fill="#000000" />
<rect x="21" y="7" width="1" height="1" fill="#676767" />
<rect x="22" y="7" width="1" height="9" fill="#000000" />
<rect x="27" y="7" width="1" height="16" fill="#EDEDED" />
<rect x="28" y="7" width="1" height="2" fill="#050505" />
<rect x="8" y="8" width="1" height="7" fill="#000000" />
<rect x="17" y="8" width="1" height="5" fill="#000000" />
<rect x="21" y="8" width="1" height="7" fill="#000000" />
<rect x="0" y="9" width="1" height="12" fill="#050505" />
<rect x="1" y="9" width="1" height="12" fill="#EDEDED" />
<rect x="6" y="9" width="1" height="4" fill="#EDEDED" />
<rect x="7" y="9" width="1" height="7" fill="#000000" />
<rect x="28" y="9" width="1" height="12" fill="#EDEDED" />
<rect x="29" y="9" width="1" height="12" fill="#050505" />
<rect x="6" y="13" width="1" height="2" fill="#FBFBFB" />
<rect x="10" y="13" width="10" height="2" fill="#FFFFFF" />
<rect x="20" y="13" width="1" height="1" fill="#000000" />
<rect x="4" y="14" width="1" height="12" fill="#EDEDED" />
<rect x="5" y="14" width="1" height="1" fill="#FBFBFB" />
<rect x="9" y="14" width="1" height="2" fill="#FFFFFF" />
<rect x="20" y="14" width="1" height="2" fill="#FFFFFF" />
<rect x="5" y="15" width="2" height="1" fill="#000000" />
<rect x="8" y="15" width="1" height="1" fill="#FFFFFF" />
<rect x="10" y="15" width="1" height="1" fill="#FFFFFF" />
<rect x="11" y="15" width="2" height="1" fill="#000000" />
<rect x="13" y="15" width="4" height="1" fill="#FFFFFF" />
<rect x="17" y="15" width="2" height="1" fill="#000000" />
<rect x="19" y="15" width="1" height="1" fill="#FFFFFF" />
<rect x="21" y="15" width="1" height="1" fill="#FFFFFF" />
<rect x="23" y="15" width="2" height="1" fill="#000000" />
<rect x="25" y="15" width="1" height="11" fill="#EDEDED" />
<rect x="5" y="16" width="1" height="3" fill="#000000" />
<rect x="6" y="16" width="2" height="1" fill="#FFFFFF" />
<rect x="8" y="16" width="3" height="1" fill="#000000" />
<rect x="11" y="16" width="2" height="1" fill="#FFFFFF" />
<rect x="13" y="16" width="4" height="1" fill="#000000" />
<rect x="17" y="16" width="2" height="1" fill="#FFFFFF" />
<rect x="19" y="16" width="3" height="1" fill="#000000" />
<rect x="22" y="16" width="2" height="1" fill="#FFFFFF" />
<rect x="24" y="16" width="1" height="3" fill="#000000" />
<rect x="6" y="17" width="1" height="2" fill="#CBCBCB" />
<rect x="7" y="17" width="3" height="2" fill="#FFFFFF" />
<rect x="10" y="17" width="1" height="1" fill="#000000" />
<rect x="11" y="17" width="1" height="1" fill="#CBCBCB" />
<rect x="12" y="17" width="1" height="1" fill="#FFFFFF" />
<rect x="13" y="17" width="1" height="1" fill="#000000" />
<rect x="14" y="17" width="2" height="4" fill="#FFFFFF" />
<rect x="16" y="17" width="1" height="1" fill="#000000" />
<rect x="17" y="17" width="1" height="1" fill="#CBCBCB" />
<rect x="18" y="17" width="1" height="1" fill="#FFFFFF" />
<rect x="19" y="17" width="1" height="1" fill="#000000" />
<rect x="20" y="17" width="3" height="2" fill="#FFFFFF" />
<rect x="23" y="17" width="1" height="2" fill="#CBCBCB" />
<rect x="10" y="18" width="1" height="5" fill="#FFFFFF" />
<rect x="11" y="18" width="2" height="1" fill="#000000" />
<rect x="13" y="18" width="1" height="2" fill="#FFFFFF" />
<rect x="16" y="18" width="1" height="2" fill="#FFFFFF" />
<rect x="17" y="18" width="2" height="1" fill="#000000" />
<rect x="19" y="18" width="1" height="5" fill="#FFFFFF" />
<rect x="5" y="19" width="1" height="7" fill="#EDEDED" />
<rect x="6" y="19" width="1" height="1" fill="#000000" />
<rect x="7" y="19" width="1" height="1" fill="#CBCBCB" />
<rect x="8" y="19" width="2" height="3" fill="#FFFFFF" />
<rect x="11" y="19" width="2" height="5" fill="#FFFFFF" />
<rect x="17" y="19" width="2" height="5" fill="#FFFFFF" />
<rect x="20" y="19" width="2" height="3" fill="#FFFFFF" />
<rect x="22" y="19" width="1" height="1" fill="#CBCBCB" />
<rect x="23" y="19" width="1" height="1" fill="#000000" />
<rect x="24" y="19" width="1" height="7" fill="#EDEDED" />
<rect x="6" y="20" width="1" height="7" fill="#EDEDED" />
<rect x="7" y="20" width="1" height="2" fill="#000000" />
<rect x="13" y="20" width="1" height="1" fill="#020202" />
<rect x="16" y="20" width="1" height="1" fill="#020202" />
<rect x="22" y="20" width="1" height="2" fill="#000000" />
<rect x="23" y="20" width="1" height="7" fill="#EDEDED" />
<rect x="1" y="21" width="1" height="2" fill="#050505" />
<rect x="13" y="21" width="4" height="1" fill="#000000" />
<rect x="28" y="21" width="1" height="2" fill="#050505" />
<rect x="7" y="22" width="1" height="5" fill="#EDEDED" />
<rect x="8" y="22" width="1" height="1" fill="#000000" />
<rect x="9" y="22" width="1" height="1" fill="#FFFFFF" />
<rect x="13" y="22" width="4" height="3" fill="#FFFFFF" />
<rect x="20" y="22" width="1" height="1" fill="#FFFFFF" />
<rect x="21" y="22" width="1" height="1" fill="#000000" />
<rect x="22" y="22" width="1" height="5" fill="#EDEDED" />
<rect x="2" y="23" width="1" height="2" fill="#050505" />
<rect x="8" y="23" width="1" height="5" fill="#EDEDED" />
<rect x="9" y="23" width="1" height="1" fill="#000000" />
<rect x="10" y="23" width="1" height="1" fill="#CBCBCB" />
<rect x="19" y="23" width="1" height="1" fill="#CBCBCB" />
<rect x="20" y="23" width="1" height="1" fill="#000000" />
<rect x="21" y="23" width="1" height="5" fill="#EDEDED" />
<rect x="27" y="23" width="1" height="2" fill="#050505" />
<rect x="9" y="24" width="1" height="4" fill="#EDEDED" />
<rect x="10" y="24" width="1" height="1" fill="#000000" />
<rect x="11" y="24" width="1" height="1" fill="#CBCBCB" />
<rect x="12" y="24" width="1" height="1" fill="#FFFFFF" />
<rect x="17" y="24" width="1" height="1" fill="#FFFFFF" />
<rect x="18" y="24" width="1" height="1" fill="#CBCBCB" />
<rect x="19" y="24" width="1" height="1" fill="#000000" />
<rect x="20" y="24" width="1" height="4" fill="#EDEDED" />
<rect x="3" y="25" width="1" height="1" fill="#050505" />
<rect x="10" y="25" width="1" height="4" fill="#EDEDED" />
<rect x="11" y="25" width="1" height="1" fill="#000000" />
<rect x="12" y="25" width="6" height="1" fill="#020202" />
<rect x="18" y="25" width="1" height="1" fill="#000000" />
<rect x="19" y="25" width="1" height="4" fill="#EDEDED" />
<rect x="26" y="25" width="1" height="1" fill="#050505" />
<rect x="4" y="26" width="2" height="1" fill="#050505" />
<rect x="11" y="26" width="8" height="3" fill="#EDEDED" />
<rect x="24" y="26" width="2" height="1" fill="#050505" />
<rect x="6" y="27" width="2" height="1" fill="#050505" />
<rect x="22" y="27" width="2" height="1" fill="#050505" />
<rect x="8" y="28" width="2" height="1" fill="#050505" />
<rect x="20" y="28" width="2" height="1" fill="#050505" />
<rect x="10" y="29" width="10" height="1" fill="#050505" />
</svg>