<?xml version="1.0" encoding="UTF-8" ?>
<svg version="1.1" width="48" height="48" xmlns="http://www.w3.org/2000/svg" shape-rendering="crispEdges">
<rect x="6" y="0" width="1" height="1" fill="#33ff33" />
<rect x="7" y="0" width="1" height="1" fill="#33ff33" />
<rect x="8" y="0" width="1" height="1" fill="#33ff33" />
<rect x="9" y="0" width="1" height="1" fill="#33ff33" />
<rect x="10" y="0" width="1" height="1" fill="#33ff33" />
<rect x="11" y="0" width="1" height="1" fill="#33ff33" />
<rect x="12" y="0" width="1" height="1" fill="#33ff33" />
<rect x="13" y="0" width="1" height="1" fill="#33ff33" />
<rect x="14" y="0" width="1" height="1" fill="#33ff33" />
<rect x="15" y="0" width="1" height="1" fill="#33ff33" />
<rect x="16" y="0" width="1" height="1" fill="#33ff33" />
<rect x="17" y="0" width="1" height="1" fill="#33ff33" />
<rect x="18" y="0" width="1" height="1" fill="#33ff33" />
<rect x="19" y="0" width="1" height="1" fill="#33ff33" />
<rect x="20" y="0" width="1" height="1" fill="#33ff33" />
<rect x="21" y="0" width="1" height="1" fill="#33ff33" />
<rect x="22" y="0" width="1" height="1" fill="#33ff33" />
<rect x="23" y="0" width="1" height="1" fill="#33ff33" />
<rect x="24" y="0" width="1" height="1" fill="#33ff33" />
<rect x="25" y="0" width="1" height="1" fill="#33ff33" />
<rect x="26" y="0" width="1" height="1" fill="#33ff33" />
<rect x="27" y="0" width="1" height="1" fill="#33ff33" />
<rect x="28" y="0" width="1" height="1" fill="#33ff33" />
<rect x="29" y="0" width="1" height="1" fill="#33ff33" />
<rect x="30" y="0" width="1" height="1" fill="#33ff33" />
<rect x="31" y="0" width="1" height="1" fill="#33ff33" />
<rect x="32" y="0" width="1" height="1" fill="#33ff33" />
<rect x="33" y="0" width="1" height="1" fill="#33ff33" />
<rect x="34" y="0" width="1" height="1" fill="#33ff33" />
<rect x="35" y="0" width="1" height="1" fill="#33ff33" />
<rect x="36" y="0" width="1" height="1" fill="#33ff33" />
<rect x="37" y="0" width="1" height="1" fill="#33ff33" />
<rect x="38" y="0" width="1" height="1" fill="#33ff33" />
<rect x="39" y="0" width="1" height="1" fill="#33ff33" />
<rect x="40" y="0" width="1" height="1" fill="#33ff33" />
<rect x="41" y="0" width="1" height="1" fill="#33ff33" />
<rect x="42" y="0" width="1" height="1" fill="#33ff33" />
<rect x="43" y="0" width="1" height="1" fill="#33ff33" />
<rect x="44" y="0" width="1" height="1" fill="#33ff33" />
<rect x="5" y="1" width="1" height="1" fill="#33ff33" />
<rect x="6" y="1" width="1" height="1" fill="#33ff33" />
<rect x="7" y="1" width="1" height="1" fill="#33ff33" />
<rect x="8" y="1" width="1" height="1" fill="#33ff33" />
<rect x="9" y="1" width="1" height="1" fill="#33ff33" />
<rect x="10" y="1" width="1" height="1" fill="#33ff33" />
<rect x="11" y="1" width="1" height="1" fill="#33ff33" />
<rect x="12" y="1" width="1" height="1" fill="#33ff33" />
<rect x="13" y="1" width="1" height="1" fill="#33ff33" />
<rect x="14" y="1" width="1" height="1" fill="#33ff33" />
<rect x="15" y="1" width="1" height="1" fill="#33ff33" />
<rect x="16" y="1" width="1" height="1" fill="#33ff33" />
<rect x="17" y="1" width="1" height="1" fill="#33ff33" />
<rect x="18" y="1" width="1" height="1" fill="#33ff33" />
<rect x="19" y="1" width="1" height="1" fill="#33ff33" />
<rect x="20" y="1" width="1" height="1" fill="#33ff33" />
<rect x="21" y="1" width="1" height="1" fill="#33ff33" />
<rect x="22" y="1" width="1" height="1" fill="#33ff33" />
<rect x="23" y="1" width="1" height="1" fill="#33ff33" />
<rect x="24" y="1" width="1" height="1" fill="#33ff33" />
<rect x="25" y="1" width="1" height="1" fill="#33ff33" />
<rect x="26" y="1" width="1" height="1" fill="#33ff33" />
<rect x="27" y="1" width="1" height="1" fill="#33ff33" />
<rect x="28" y="1" width="1" height="1" fill="#33ff33" />
<rect x="29" y="1" width="1" height="1" fill="#33ff33" />
<rect x="30" y="1" width="1" height="1" fill="#33ff33" />
<rect x="31" y="1" width="1" height="1" fill="#33ff33" />
<rect x="32" y="1" width="1" height="1" fill="#33ff33" />
<rect x="33" y="1" width="1" height="1" fill="#33ff33" />
<rect x="34" y="1" width="1" height="1" fill="#33ff33" />
<rect x="35" y="1" width="1" height="1" fill="#33ff33" />
<rect x="36" y="1" width="1" height="1" fill="#33ff33" />
<rect x="37" y="1" width="1" height="1" fill="#33ff33" />
<rect x="38" y="1" width="1" height="1" fill="#33ff33" />
<rect x="39" y="1" width="1" height="1" fill="#33ff33" />
<rect x="40" y="1" width="1" height="1" fill="#33ff33" />
<rect x="41" y="1" width="1" height="1" fill="#33ff33" />
<rect x="42" y="1" width="1" height="1" fill="#33ff33" />
<rect x="43" y="1" width="1" height="1" fill="#33ff33" />
<rect x="44" y="1" width="1" height="1" fill="#33ff33" />
<rect x="4" y="2" width="1" height="1" fill="#33ff33" />
<rect x="5" y="2" width="1" height="1" fill="#33ff33" />
<rect x="6" y="2" width="1" height="1" fill="#33ff33" />
<rect x="7" y="2" width="1" height="1" fill="#33ff33" />
<rect x="8" y="2" width="1" height="1" fill="#33ff33" />
<rect x="9" y="2" width="1" height="1" fill="#33ff33" />
<rect x="10" y="2" width="1" height="1" fill="#33ff33" />
<rect x="11" y="2" width="1" height="1" fill="#33ff33" />
<rect x="12" y="2" width="1" height="1" fill="#33ff33" />
<rect x="13" y="2" width="1" height="1" fill="#33ff33" />
<rect x="14" y="2" width="1" height="1" fill="#33ff33" />
<rect x="15" y="2" width="1" height="1" fill="#33ff33" />
<rect x="16" y="2" width="1" height="1" fill="#33ff33" />
<rect x="17" y="2" width="1" height="1" fill="#33ff33" />
<rect x="18" y="2" width="1" height="1" fill="#33ff33" />
<rect x="19" y="2" width="1" height="1" fill="#33ff33" />
<rect x="20" y="2" width="1" height="1" fill="#33ff33" />
<rect x="21" y="2" width="1" height="1" fill="#33ff33" />
<rect x="22" y="2" width="1" height="1" fill="#33ff33" />
<rect x="23" y="2" width="1" height="1" fill="#33ff33" />
<rect x="24" y="2" width="1" height="1" fill="#33ff33" />
<rect x="25" y="2" width="1" height="1" fill="#33ff33" />
<rect x="26" y="2" width="1" height="1" fill="#33ff33" />
<rect x="27" y="2" width="1" height="1" fill="#33ff33" />
<rect x="28" y="2" width="1" height="1" fill="#33ff33" />
<rect x="29" y="2" width="1" height="1" fill="#33ff33" />
<rect x="30" y="2" width="1" height="1" fill="#33ff33" />
<rect x="31" y="2" width="1" height="1" fill="#33ff33" />
<rect x="32" y="2" width="1" height="1" fill="#33ff33" />
<rect x="33" y="2" width="1" height="1" fill="#33ff33" />
<rect x="34" y="2" width="1" height="1" fill="#33ff33" />
<rect x="35" y="2" width="1" height="1" fill="#33ff33" />
<rect x="36" y="2" width="1" height="1" fill="#33ff33" />
<rect x="37" y="2" width="1" height="1" fill="#33ff33" />
<rect x="38" y="2" width="1" height="1" fill="#33ff33" />
<rect x="39" y="2" width="1" height="1" fill="#33ff33" />
<rect x="40" y="2" width="1" height="1" fill="#33ff33" />
<rect x="41" y="2" width="1" height="1" fill="#33ff33" />
<rect x="42" y="2" width="1" height="1" fill="#33ff33" />
<rect x="43" y="2" width="1" height="1" fill="#33ff33" />
<rect x="44" y="2" width="1" height="1" fill="#33ff33" />
<rect x="3" y="3" width="1" height="1" fill="#33ff33" />
<rect x="4" y="3" width="1" height="1" fill="#33ff33" />
<rect x="5" y="3" width="1" height="1" fill="#33ff33" />
<rect x="6" y="3" width="1" height="1" fill="#33ff33" />
<rect x="7" y="3" width="1" height="1" fill="#33ff33" />
<rect x="8" y="3" width="1" height="1" fill="#33ff33" />
<rect x="42" y="3" width="1" height="1" fill="#33ff33" />
<rect x="43" y="3" width="1" height="1" fill="#33ff33" />
<rect x="44" y="3" width="1" height="1" fill="#33ff33" />
<rect x="3" y="4" width="1" height="1" fill="#33ff33" />
<rect x="4" y="4" width="1" height="1" fill="#33ff33" />
<rect x="5" y="4" width="1" height="1" fill="#33ff33" />
<rect x="6" y="4" width="1" height="1" fill="#33ff33" />
<rect x="7" y="4" width="1" height="1" fill="#33ff33" />
<rect x="42" y="4" width="1" height="1" fill="#33ff33" />
<rect x="43" y="4" width="1" height="1" fill="#33ff33" />
<rect x="44" y="4" width="1" height="1" fill="#33ff33" />
<rect x="3" y="5" width="1" height="1" fill="#33ff33" />
<rect x="4" y="5" width="1" height="1" fill="#33ff33" />
<rect x="5" y="5" width="1" height="1" fill="#33ff33" />
<rect x="6" y="5" width="1" height="1" fill="#33ff33" />
<rect x="42" y="5" width="1" height="1" fill="#33ff33" />
<rect x="43" y="5" width="1" height="1" fill="#33ff33" />
<rect x="44" y="5" width="1" height="1" fill="#33ff33" />
<rect x="3" y="6" width="1" height="1" fill="#33ff33" />
<rect x="4" y="6" width="1" height="1" fill="#33ff33" />
<rect x="5" y="6" width="1" height="1" fill="#33ff33" />
<rect x="42" y="6" width="1" height="1" fill="#33ff33" />
<rect x="43" y="6" width="1" height="1" fill="#33ff33" />
<rect x="44" y="6" width="1" height="1" fill="#33ff33" />
<rect x="3" y="7" width="1" height="1" fill="#33ff33" />
<rect x="4" y="7" width="1" height="1" fill="#33ff33" />
<rect x="5" y="7" width="1" height="1" fill="#33ff33" />
<rect x="42" y="7" width="1" height="1" fill="#33ff33" />
<rect x="43" y="7" width="1" height="1" fill="#33ff33" />
<rect x="44" y="7" width="1" height="1" fill="#33ff33" />
<rect x="3" y="8" width="1" height="1" fill="#33ff33" />
<rect x="4" y="8" width="1" height="1" fill="#33ff33" />
<rect x="5" y="8" width="1" height="1" fill="#33ff33" />
<rect x="42" y="8" width="1" height="1" fill="#33ff33" />
<rect x="43" y="8" width="1" height="1" fill="#33ff33" />
<rect x="44" y="8" width="1" height="1" fill="#33ff33" />
<rect x="3" y="9" width="1" height="1" fill="#33ff33" />
<rect x="4" y="9" width="1" height="1" fill="#33ff33" />
<rect x="5" y="9" width="1" height="1" fill="#33ff33" />
<rect x="42" y="9" width="1" height="1" fill="#33ff33" />
<rect x="43" y="9" width="1" height="1" fill="#33ff33" />
<rect x="44" y="9" width="1" height="1" fill="#33ff33" />
<rect x="3" y="10" width="1" height="1" fill="#33ff33" />
<rect x="4" y="10" width="1" height="1" fill="#33ff33" />
<rect x="5" y="10" width="1" height="1" fill="#33ff33" />
<rect x="42" y="10" width="1" height="1" fill="#33ff33" />
<rect x="43" y="10" width="1" height="1" fill="#33ff33" />
<rect x="44" y="10" width="1" height="1" fill="#33ff33" />
<rect x="3" y="11" width="1" height="1" fill="#33ff33" />
<rect x="4" y="11" width="1" height="1" fill="#33ff33" />
<rect x="5" y="11" width="1" height="1" fill="#33ff33" />
<rect x="42" y="11" width="1" height="1" fill="#33ff33" />
<rect x="43" y="11" width="1" height="1" fill="#33ff33" />
<rect x="44" y="11" width="1" height="1" fill="#33ff33" />
<rect x="3" y="12" width="1" height="1" fill="#33ff33" />
<rect x="4" y="12" width="1" height="1" fill="#33ff33" />
<rect x="5" y="12" width="1" height="1" fill="#33ff33" />
<rect x="42" y="12" width="1" height="1" fill="#33ff33" />
<rect x="43" y="12" width="1" height="1" fill="#33ff33" />
<rect x="44" y="12" width="1" height="1" fill="#33ff33" />
<rect x="3" y="13" width="1" height="1" fill="#33ff33" />
<rect x="4" y="13" width="1" height="1" fill="#33ff33" />
<rect x="5" y="13" width="1" height="1" fill="#33ff33" />
<rect x="42" y="13" width="1" height="1" fill="#33ff33" />
<rect x="43" y="13" width="1" height="1" fill="#33ff33" />
<rect x="44" y="13" width="1" height="1" fill="#33ff33" />
<rect x="3" y="14" width="1" height="1" fill="#33ff33" />
<rect x="4" y="14" width="1" height="1" fill="#33ff33" />
<rect x="5" y="14" width="1" height="1" fill="#33ff33" />
<rect x="42" y="14" width="1" height="1" fill="#33ff33" />
<rect x="43" y="14" width="1" height="1" fill="#33ff33" />
<rect x="44" y="14" width="1" height="1" fill="#33ff33" />
<rect x="3" y="15" width="1" height="1" fill="#33ff33" />
<rect x="4" y="15" width="1" height="1" fill="#33ff33" />
<rect x="5" y="15" width="1" height="1" fill="#33ff33" />
<rect x="42" y="15" width="1" height="1" fill="#33ff33" />
<rect x="43" y="15" width="1" height="1" fill="#33ff33" />
<rect x="44" y="15" width="1" height="1" fill="#33ff33" />
<rect x="3" y="16" width="1" height="1" fill="#33ff33" />
<rect x="4" y="16" width="1" height="1" fill="#33ff33" />
<rect x="5" y="16" width="1" height="1" fill="#33ff33" />
<rect x="42" y="16" width="1" height="1" fill="#33ff33" />
<rect x="43" y="16" width="1" height="1" fill="#33ff33" />
<rect x="44" y="16" width="1" height="1" fill="#33ff33" />
<rect x="3" y="17" width="1" height="1" fill="#33ff33" />
<rect x="4" y="17" width="1" height="1" fill="#33ff33" />
<rect x="5" y="17" width="1" height="1" fill="#33ff33" />
<rect x="42" y="17" width="1" height="1" fill="#33ff33" />
<rect x="43" y="17" width="1" height="1" fill="#33ff33" />
<rect x="44" y="17" width="1" height="1" fill="#33ff33" />
<rect x="3" y="18" width="1" height="1" fill="#33ff33" />
<rect x="4" y="18" width="1" height="1" fill="#33ff33" />
<rect x="5" y="18" width="1" height="1" fill="#33ff33" />
<rect x="42" y="18" width="1" height="1" fill="#33ff33" />
<rect x="43" y="18" width="1" height="1" fill="#33ff33" />
<rect x="44" y="18" width="1" height="1" fill="#33ff33" />
<rect x="3" y="19" width="1" height="1" fill="#33ff33" />
<rect x="4" y="19" width="1" height="1" fill="#33ff33" />
<rect x="5" y="19" width="1" height="1" fill="#33ff33" />
<rect x="42" y="19" width="1" height="1" fill="#33ff33" />
<rect x="43" y="19" width="1" height="1" fill="#33ff33" />
<rect x="44" y="19" width="1" height="1" fill="#33ff33" />
<rect x="3" y="20" width="1" height="1" fill="#33ff33" />
<rect x="4" y="20" width="1" height="1" fill="#33ff33" />
<rect x="5" y="20" width="1" height="1" fill="#33ff33" />
<rect x="42" y="20" width="1" height="1" fill="#33ff33" />
<rect x="43" y="20" width="1" height="1" fill="#33ff33" />
<rect x="44" y="20" width="1" height="1" fill="#33ff33" />
<rect x="3" y="21" width="1" height="1" fill="#33ff33" />
<rect x="4" y="21" width="1" height="1" fill="#33ff33" />
<rect x="5" y="21" width="1" height="1" fill="#33ff33" />
<rect x="42" y="21" width="1" height="1" fill="#33ff33" />
<rect x="43" y="21" width="1" height="1" fill="#33ff33" />
<rect x="44" y="21" width="1" height="1" fill="#33ff33" />
<rect x="3" y="22" width="1" height="1" fill="#33ff33" />
<rect x="4" y="22" width="1" height="1" fill="#33ff33" />
<rect x="5" y="22" width="1" height="1" fill="#33ff33" />
<rect x="42" y="22" width="1" height="1" fill="#33ff33" />
<rect x="43" y="22" width="1" height="1" fill="#33ff33" />
<rect x="44" y="22" width="1" height="1" fill="#33ff33" />
<rect x="3" y="23" width="1" height="1" fill="#33ff33" />
<rect x="4" y="23" width="1" height="1" fill="#33ff33" />
<rect x="5" y="23" width="1" height="1" fill="#33ff33" />
<rect x="42" y="23" width="1" height="1" fill="#33ff33" />
<rect x="43" y="23" width="1" height="1" fill="#33ff33" />
<rect x="44" y="23" width="1" height="1" fill="#33ff33" />
<rect x="3" y="24" width="1" height="1" fill="#33ff33" />
<rect x="4" y="24" width="1" height="1" fill="#33ff33" />
<rect x="5" y="24" width="1" height="1" fill="#33ff33" />
<rect x="42" y="24" width="1" height="1" fill="#33ff33" />
<rect x="43" y="24" width="1" height="1" fill="#33ff33" />
<rect x="44" y="24" width="1" height="1" fill="#33ff33" />
<rect x="3" y="25" width="1" height="1" fill="#33ff33" />
<rect x="4" y="25" width="1" height="1" fill="#33ff33" />
<rect x="5" y="25" width="1" height="1" fill="#33ff33" />
<rect x="42" y="25" width="1" height="1" fill="#33ff33" />
<rect x="43" y="25" width="1" height="1" fill="#33ff33" />
<rect x="44" y="25" width="1" height="1" fill="#33ff33" />
<rect x="3" y="26" width="1" height="1" fill="#33ff33" />
<rect x="4" y="26" width="1" height="1" fill="#33ff33" />
<rect x="5" y="26" width="1" height="1" fill="#33ff33" />
<rect x="42" y="26" width="1" height="1" fill="#33ff33" />
<rect x="43" y="26" width="1" height="1" fill="#33ff33" />
<rect x="44" y="26" width="1" height="1" fill="#33ff33" />
<rect x="3" y="27" width="1" height="1" fill="#33ff33" />
<rect x="4" y="27" width="1" height="1" fill="#33ff33" />
<rect x="5" y="27" width="1" height="1" fill="#33ff33" />
<rect x="42" y="27" width="1" height="1" fill="#33ff33" />
<rect x="43" y="27" width="1" height="1" fill="#33ff33" />
<rect x="44" y="27" width="1" height="1" fill="#33ff33" />
<rect x="3" y="28" width="1" height="1" fill="#33ff33" />
<rect x="4" y="28" width="1" height="1" fill="#33ff33" />
<rect x="5" y="28" width="1" height="1" fill="#33ff33" />
<rect x="42" y="28" width="1" height="1" fill="#33ff33" />
<rect x="43" y="28" width="1" height="1" fill="#33ff33" />
<rect x="44" y="28" width="1" height="1" fill="#33ff33" />
<rect x="3" y="29" width="1" height="1" fill="#33ff33" />
<rect x="4" y="29" width="1" height="1" fill="#33ff33" />
<rect x="5" y="29" width="1" height="1" fill="#33ff33" />
<rect x="42" y="29" width="1" height="1" fill="#33ff33" />
<rect x="43" y="29" width="1" height="1" fill="#33ff33" />
<rect x="44" y="29" width="1" height="1" fill="#33ff33" />
<rect x="3" y="30" width="1" height="1" fill="#33ff33" />
<rect x="4" y="30" width="1" height="1" fill="#33ff33" />
<rect x="5" y="30" width="1" height="1" fill="#33ff33" />
<rect x="42" y="30" width="1" height="1" fill="#33ff33" />
<rect x="43" y="30" width="1" height="1" fill="#33ff33" />
<rect x="44" y="30" width="1" height="1" fill="#33ff33" />
<rect x="3" y="31" width="1" height="1" fill="#33ff33" />
<rect x="4" y="31" width="1" height="1" fill="#33ff33" />
<rect x="5" y="31" width="1" height="1" fill="#33ff33" />
<rect x="42" y="31" width="1" height="1" fill="#33ff33" />
<rect x="43" y="31" width="1" height="1" fill="#33ff33" />
<rect x="44" y="31" width="1" height="1" fill="#33ff33" />
<rect x="3" y="32" width="1" height="1" fill="#33ff33" />
<rect x="4" y="32" width="1" height="1" fill="#33ff33" />
<rect x="5" y="32" width="1" height="1" fill="#33ff33" />
<rect x="42" y="32" width="1" height="1" fill="#33ff33" />
<rect x="43" y="32" width="1" height="1" fill="#33ff33" />
<rect x="44" y="32" width="1" height="1" fill="#33ff33" />
<rect x="3" y="33" width="1" height="1" fill="#33ff33" />
<rect x="4" y="33" width="1" height="1" fill="#33ff33" />
<rect x="5" y="33" width="1" height="1" fill="#33ff33" />
<rect x="42" y="33" width="1" height="1" fill="#33ff33" />
<rect x="43" y="33" width="1" height="1" fill="#33ff33" />
<rect x="44" y="33" width="1" height="1" fill="#33ff33" />
<rect x="3" y="34" width="1" height="1" fill="#33ff33" />
<rect x="4" y="34" width="1" height="1" fill="#33ff33" />
<rect x="5" y="34" width="1" height="1" fill="#33ff33" />
<rect x="42" y="34" width="1" height="1" fill="#33ff33" />
<rect x="43" y="34" width="1" height="1" fill="#33ff33" />
<rect x="44" y="34" width="1" height="1" fill="#33ff33" />
<rect x="3" y="35" width="1" height="1" fill="#33ff33" />
<rect x="4" y="35" width="1" height="1" fill="#33ff33" />
<rect x="5" y="35" width="1" height="1" fill="#33ff33" />
<rect x="9" y="35" width="1" height="1" fill="#33ff33" />
<rect x="10" y="35" width="1" height="1" fill="#33ff33" />
<rect x="11" y="35" width="1" height="1" fill="#33ff33" />
<rect x="12" y="35" width="1" height="1" fill="#33ff33" />
<rect x="13" y="35" width="1" height="1" fill="#33ff33" />
<rect x="14" y="35" width="1" height="1" fill="#33ff33" />
<rect x="15" y="35" width="1" height="1" fill="#33ff33" />
<rect x="16" y="35" width="1" height="1" fill="#33ff33" />
<rect x="17" y="35" width="1" height="1" fill="#33ff33" />
<rect x="18" y="35" width="1" height="1" fill="#33ff33" />
<rect x="19" y="35" width="1" height="1" fill="#33ff33" />
<rect x="20" y="35" width="1" height="1" fill="#33ff33" />
<rect x="21" y="35" width="1" height="1" fill="#33ff33" />
<rect x="22" y="35" width="1" height="1" fill="#33ff33" />
<rect x="23" y="35" width="1" height="1" fill="#33ff33" />
<rect x="24" y="35" width="1" height="1" fill="#33ff33" />
<rect x="25" y="35" width="1" height="1" fill="#33ff33" />
<rect x="26" y="35" width="1" height="1" fill="#33ff33" />
<rect x="27" y="35" width="1" height="1" fill="#33ff33" />
<rect x="28" y="35" width="1" height="1" fill="#33ff33" />
<rect x="29" y="35" width="1" height="1" fill="#33ff33" />
<rect x="30" y="35" width="1" height="1" fill="#33ff33" />
<rect x="31" y="35" width="1" height="1" fill="#33ff33" />
<rect x="32" y="35" width="1" height="1" fill="#33ff33" />
<rect x="33" y="35" width="1" height="1" fill="#33ff33" />
<rect x="34" y="35" width="1" height="1" fill="#33ff33" />
<rect x="35" y="35" width="1" height="1" fill="#33ff33" />
<rect x="36" y="35" width="1" height="1" fill="#33ff33" />
<rect x="37" y="35" width="1" height="1" fill="#33ff33" />
<rect x="38" y="35" width="1" height="1" fill="#33ff33" />
<rect x="39" y="35" width="1" height="1" fill="#33ff33" />
<rect x="40" y="35" width="1" height="1" fill="#33ff33" />
<rect x="41" y="35" width="1" height="1" fill="#33ff33" />
<rect x="42" y="35" width="1" height="1" fill="#33ff33" />
<rect x="43" y="35" width="1" height="1" fill="#33ff33" />
<rect x="44" y="35" width="1" height="1" fill="#33ff33" />
<rect x="3" y="36" width="1" height="1" fill="#33ff33" />
<rect x="4" y="36" width="1" height="1" fill="#33ff33" />
<rect x="5" y="36" width="1" height="1" fill="#33ff33" />
<rect x="8" y="36" width="1" height="1" fill="#33ff33" />
<rect x="9" y="36" width="1" height="1" fill="#33ff33" />
<rect x="10" y="36" width="1" height="1" fill="#33ff33" />
<rect x="11" y="36" width="1" height="1" fill="#33ff33" />
<rect x="12" y="36" width="1" height="1" fill="#33ff33" />
<rect x="13" y="36" width="1" height="1" fill="#33ff33" />
<rect x="14" y="36" width="1" height="1" fill="#33ff33" />
<rect x="15" y="36" width="1" height="1" fill="#33ff33" />
<rect x="16" y="36" width="1" height="1" fill="#33ff33" />
<rect x="17" y="36" width="1" height="1" fill="#33ff33" />
<rect x="18" y="36" width="1" height="1" fill="#33ff33" />
<rect x="19" y="36" width="1" height="1" fill="#33ff33" />
<rect x="20" y="36" width="1" height="1" fill="#33ff33" />
<rect x="21" y="36" width="1" height="1" fill="#33ff33" />
<rect x="22" y="36" width="1" height="1" fill="#33ff33" />
<rect x="23" y="36" width="1" height="1" fill="#33ff33" />
<rect x="24" y="36" width="1" height="1" fill="#33ff33" />
<rect x="25" y="36" width="1" height="1" fill="#33ff33" />
<rect x="26" y="36" width="1" height="1" fill="#33ff33" />
<rect x="27" y="36" width="1" height="1" fill="#33ff33" />
<rect x="28" y="36" width="1" height="1" fill="#33ff33" />
<rect x="29" y="36" width="1" height="1" fill="#33ff33" />
<rect x="30" y="36" width="1" height="1" fill="#33ff33" />
<rect x="31" y="36" width="1" height="1" fill="#33ff33" />
<rect x="32" y="36" width="1" height="1" fill="#33ff33" />
<rect x="33" y="36" width="1" height="1" fill="#33ff33" />
<rect x="34" y="36" width="1" height="1" fill="#33ff33" />
<rect x="35" y="36" width="1" height="1" fill="#33ff33" />
<rect x="36" y="36" width="1" height="1" fill="#33ff33" />
<rect x="37" y="36" width="1" height="1" fill="#33ff33" />
<rect x="38" y="36" width="1" height="1" fill="#33ff33" />
<rect x="39" y="36" width="1" height="1" fill="#33ff33" />
<rect x="40" y="36" width="1" height="1" fill="#33ff33" />
<rect x="41" y="36" width="1" height="1" fill="#33ff33" />
<rect x="42" y="36" width="1" height="1" fill="#33ff33" />
<rect x="43" y="36" width="1" height="1" fill="#33ff33" />
<rect x="44" y="36" width="1" height="1" fill="#33ff33" />
<rect x="3" y="37" width="1" height="1" fill="#33ff33" />
<rect x="4" y="37" width="1" height="1" fill="#33ff33" />
<rect x="5" y="37" width="1" height="1" fill="#33ff33" />
<rect x="7" y="37" width="1" height="1" fill="#33ff33" />
<rect x="8" y="37" width="1" height="1" fill="#33ff33" />
<rect x="9" y="37" width="1" height="1" fill="#33ff33" />
<rect x="10" y="37" width="1" height="1" fill="#33ff33" />
<rect x="11" y="37" width="1" height="1" fill="#33ff33" />
<rect x="12" y="37" width="1" height="1" fill="#33ff33" />
<rect x="13" y="37" width="1" height="1" fill="#33ff33" />
<rect x="14" y="37" width="1" height="1" fill="#33ff33" />
<rect x="15" y="37" width="1" height="1" fill="#33ff33" />
<rect x="16" y="37" width="1" height="1" fill="#33ff33" />
<rect x="17" y="37" width="1" height="1" fill="#33ff33" />
<rect x="18" y="37" width="1" height="1" fill="#33ff33" />
<rect x="19" y="37" width="1" height="1" fill="#33ff33" />
<rect x="20" y="37" width="1" height="1" fill="#33ff33" />
<rect x="21" y="37" width="1" height="1" fill="#33ff33" />
<rect x="22" y="37" width="1" height="1" fill="#33ff33" />
<rect x="23" y="37" width="1" height="1" fill="#33ff33" />
<rect x="24" y="37" width="1" height="1" fill="#33ff33" />
<rect x="25" y="37" width="1" height="1" fill="#33ff33" />
<rect x="26" y="37" width="1" height="1" fill="#33ff33" />
<rect x="27" y="37" width="1" height="1" fill="#33ff33" />
<rect x="28" y="37" width="1" height="1" fill="#33ff33" />
<rect x="29" y="37" width="1" height="1" fill="#33ff33" />
<rect x="30" y="37" width="1" height="1" fill="#33ff33" />
<rect x="31" y="37" width="1" height="1" fill="#33ff33" />
<rect x="32" y="37" width="1" height="1" fill="#33ff33" />
<rect x="33" y="37" width="1" height="1" fill="#33ff33" />
<rect x="34" y="37" width="1" height="1" fill="#33ff33" />
<rect x="35" y="37" width="1" height="1" fill="#33ff33" />
<rect x="36" y="37" width="1" height="1" fill="#33ff33" />
<rect x="37" y="37" width="1" height="1" fill="#33ff33" />
<rect x="38" y="37" width="1" height="1" fill="#33ff33" />
<rect x="39" y="37" width="1" height="1" fill="#33ff33" />
<rect x="40" y="37" width="1" height="1" fill="#33ff33" />
<rect x="41" y="37" width="1" height="1" fill="#33ff33" />
<rect x="42" y="37" width="1" height="1" fill="#33ff33" />
<rect x="43" y="37" width="1" height="1" fill="#33ff33" />
<rect x="44" y="37" width="1" height="1" fill="#33ff33" />
<rect x="3" y="38" width="1" height="1" fill="#33ff33" />
<rect x="4" y="38" width="1" height="1" fill="#33ff33" />
<rect x="5" y="38" width="1" height="1" fill="#33ff33" />
<rect x="6" y="38" width="1" height="1" fill="#33ff33" />
<rect x="7" y="38" width="1" height="1" fill="#33ff33" />
<rect x="8" y="38" width="1" height="1" fill="#33ff33" />
<rect x="9" y="38" width="1" height="1" fill="#33ff33" />
<rect x="10" y="38" width="1" height="1" fill="#33ff33" />
<rect x="11" y="38" width="1" height="1" fill="#33ff33" />
<rect x="12" y="38" width="1" height="1" fill="#33ff33" />
<rect x="13" y="38" width="1" height="1" fill="#33ff33" />
<rect x="14" y="38" width="1" height="1" fill="#33ff33" />
<rect x="15" y="38" width="1" height="1" fill="#33ff33" />
<rect x="16" y="38" width="1" height="1" fill="#33ff33" />
<rect x="17" y="38" width="1" height="1" fill="#33ff33" />
<rect x="18" y="38" width="1" height="1" fill="#33ff33" />
<rect x="19" y="38" width="1" height="1" fill="#33ff33" />
<rect x="20" y="38" width="1" height="1" fill="#33ff33" />
<rect x="21" y="38" width="1" height="1" fill="#33ff33" />
<rect x="22" y="38" width="1" height="1" fill="#33ff33" />
<rect x="23" y="38" width="1" height="1" fill="#33ff33" />
<rect x="42" y="38" width="1" height="1" fill="#33ff33" />
<rect x="43" y="38" width="1" height="1" fill="#33ff33" />
<rect x="44" y="38" width="1" height="1" fill="#33ff33" />
<rect x="3" y="39" width="1" height="1" fill="#33ff33" />
<rect x="4" y="39" width="1" height="1" fill="#33ff33" />
<rect x="5" y="39" width="1" height="1" fill="#33ff33" />
<rect x="6" y="39" width="1" height="1" fill="#33ff33" />
<rect x="7" y="39" width="1" height="1" fill="#33ff33" />
<rect x="8" y="39" width="1" height="1" fill="#33ff33" />
<rect x="9" y="39" width="1" height="1" fill="#33ff33" />
<rect x="11" y="39" width="1" height="1" fill="#33ff33" />
<rect x="12" y="39" width="1" height="1" fill="#33ff33" />
<rect x="13" y="39" width="1" height="1" fill="#33ff33" />
<rect x="14" y="39" width="1" height="1" fill="#33ff33" />
<rect x="15" y="39" width="1" height="1" fill="#33ff33" />
<rect x="16" y="39" width="1" height="1" fill="#33ff33" />
<rect x="17" y="39" width="1" height="1" fill="#33ff33" />
<rect x="18" y="39" width="1" height="1" fill="#33ff33" />
<rect x="19" y="39" width="1" height="1" fill="#33ff33" />
<rect x="20" y="39" width="1" height="1" fill="#33ff33" />
<rect x="21" y="39" width="1" height="1" fill="#33ff33" />
<rect x="22" y="39" width="1" height="1" fill="#33ff33" />
<rect x="23" y="39" width="1" height="1" fill="#33ff33" />
<rect x="42" y="39" width="1" height="1" fill="#33ff33" />
<rect x="43" y="39" width="1" height="1" fill="#33ff33" />
<rect x="44" y="39" width="1" height="1" fill="#33ff33" />
<rect x="3" y="40" width="1" height="1" fill="#33ff33" />
<rect x="4" y="40" width="1" height="1" fill="#33ff33" />
<rect x="5" y="40" width="1" height="1" fill="#33ff33" />
<rect x="6" y="40" width="1" height="1" fill="#33ff33" />
<rect x="7" y="40" width="1" height="1" fill="#33ff33" />
<rect x="8" y="40" width="1" height="1" fill="#33ff33" />
<rect x="11" y="40" width="1" height="1" fill="#33ff33" />
<rect x="12" y="40" width="1" height="1" fill="#33ff33" />
<rect x="13" y="40" width="1" height="1" fill="#33ff33" />
<rect x="14" y="40" width="1" height="1" fill="#33ff33" />
<rect x="15" y="40" width="1" height="1" fill="#33ff33" />
<rect x="16" y="40" width="1" height="1" fill="#33ff33" />
<rect x="17" y="40" width="1" height="1" fill="#33ff33" />
<rect x="18" y="40" width="1" height="1" fill="#33ff33" />
<rect x="19" y="40" width="1" height="1" fill="#33ff33" />
<rect x="20" y="40" width="1" height="1" fill="#33ff33" />
<rect x="21" y="40" width="1" height="1" fill="#33ff33" />
<rect x="22" y="40" width="1" height="1" fill="#33ff33" />
<rect x="23" y="40" width="1" height="1" fill="#33ff33" />
<rect x="42" y="40" width="1" height="1" fill="#33ff33" />
<rect x="43" y="40" width="1" height="1" fill="#33ff33" />
<rect x="44" y="40" width="1" height="1" fill="#33ff33" />
<rect x="3" y="41" width="1" height="1" fill="#33ff33" />
<rect x="4" y="41" width="1" height="1" fill="#33ff33" />
<rect x="5" y="41" width="1" height="1" fill="#33ff33" />
<rect x="6" y="41" width="1" height="1" fill="#33ff33" />
<rect x="7" y="41" width="1" height="1" fill="#33ff33" />
<rect x="11" y="41" width="1" height="1" fill="#33ff33" />
<rect x="12" y="41" width="1" height="1" fill="#33ff33" />
<rect x="13" y="41" width="1" height="1" fill="#33ff33" />
<rect x="14" y="41" width="1" height="1" fill="#33ff33" />
<rect x="15" y="41" width="1" height="1" fill="#33ff33" />
<rect x="16" y="41" width="1" height="1" fill="#33ff33" />
<rect x="18" y="41" width="1" height="1" fill="#33ff33" />
<rect x="19" y="41" width="1" height="1" fill="#33ff33" />
<rect x="20" y="41" width="1" height="1" fill="#33ff33" />
<rect x="21" y="41" width="1" height="1" fill="#33ff33" />
<rect x="22" y="41" width="1" height="1" fill="#33ff33" />
<rect x="23" y="41" width="1" height="1" fill="#33ff33" />
<rect x="42" y="41" width="1" height="1" fill="#33ff33" />
<rect x="43" y="41" width="1" height="1" fill="#33ff33" />
<rect x="44" y="41" width="1" height="1" fill="#33ff33" />
<rect x="3" y="42" width="1" height="1" fill="#33ff33" />
<rect x="4" y="42" width="1" height="1" fill="#33ff33" />
<rect x="5" y="42" width="1" height="1" fill="#33ff33" />
<rect x="11" y="42" width="1" height="1" fill="#33ff33" />
<rect x="12" y="42" width="1" height="1" fill="#33ff33" />
<rect x="13" y="42" width="1" height="1" fill="#33ff33" />
<rect x="14" y="42" width="1" height="1" fill="#33ff33" />
<rect x="15" y="42" width="1" height="1" fill="#33ff33" />
<rect x="19" y="42" width="1" height="1" fill="#33ff33" />
<rect x="20" y="42" width="1" height="1" fill="#33ff33" />
<rect x="21" y="42" width="1" height="1" fill="#33ff33" />
<rect x="22" y="42" width="1" height="1" fill="#33ff33" />
<rect x="23" y="42" width="1" height="1" fill="#33ff33" />
<rect x="42" y="42" width="1" height="1" fill="#33ff33" />
<rect x="43" y="42" width="1" height="1" fill="#33ff33" />
<rect x="44" y="42" width="1" height="1" fill="#33ff33" />
<rect x="3" y="43" width="1" height="1" fill="#33ff33" />
<rect x="4" y="43" width="1" height="1" fill="#33ff33" />
<rect x="5" y="43" width="1" height="1" fill="#33ff33" />
<rect x="11" y="43" width="1" height="1" fill="#33ff33" />
<rect x="12" y="43" width="1" height="1" fill="#33ff33" />
<rect x="13" y="43" width="1" height="1" fill="#33ff33" />
<rect x="14" y="43" width="1" height="1" fill="#33ff33" />
<rect x="20" y="43" width="1" height="1" fill="#33ff33" />
<rect x="21" y="43" width="1" height="1" fill="#33ff33" />
<rect x="22" y="43" width="1" height="1" fill="#33ff33" />
<rect x="23" y="43" width="1" height="1" fill="#33ff33" />
<rect x="42" y="43" width="1" height="1" fill="#33ff33" />
<rect x="43" y="43" width="1" height="1" fill="#33ff33" />
<rect x="44" y="43" width="1" height="1" fill="#33ff33" />
<rect x="3" y="44" width="1" height="1" fill="#33ff33" />
<rect x="4" y="44" width="1" height="1" fill="#33ff33" />
<rect x="5" y="44" width="1" height="1" fill="#33ff33" />
<rect x="11" y="44" width="1" height="1" fill="#33ff33" />
<rect x="12" y="44" width="1" height="1" fill="#33ff33" />
<rect x="13" y="44" width="1" height="1" fill="#33ff33" />
<rect x="21" y="44" width="1" height="1" fill="#33ff33" />
<rect x="22" y="44" width="1" height="1" fill="#33ff33" />
<rect x="23" y="44" width="1" height="1" fill="#33ff33" />
<rect x="42" y="44" width="1" height="1" fill="#33ff33" />
<rect x="43" y="44" width="1" height="1" fill="#33ff33" />
<rect x="44" y="44" width="1" height="1" fill="#33ff33" />
<rect x="3" y="45" width="1" height="1" fill="#33ff33" />
<rect x="4" y="45" width="1" height="1" fill="#33ff33" />
<rect x="5" y="45" width="1" height="1" fill="#33ff33" />
<rect x="6" y="45" width="1" height="1" fill="#33ff33" />
<rect x="7" y="45" width="1" height="1" fill="#33ff33" />
<rect x="8" y="45" width="1" height="1" fill="#33ff33" />
<rect x="9" y="45" width="1" height="1" fill="#33ff33" />
<rect x="10" y="45" width="1" height="1" fill="#33ff33" />
<rect x="11" y="45" width="1" height="1" fill="#33ff33" />
<rect x="12" y="45" width="1" height="1" fill="#33ff33" />
<rect x="13" y="45" width="1" height="1" fill="#33ff33" />
<rect x="14" y="45" width="1" height="1" fill="#33ff33" />
<rect x="15" y="45" width="1" height="1" fill="#33ff33" />
<rect x="16" y="45" width="1" height="1" fill="#33ff33" />
<rect x="17" y="45" width="1" height="1" fill="#33ff33" />
<rect x="18" y="45" width="1" height="1" fill="#33ff33" />
<rect x="19" y="45" width="1" height="1" fill="#33ff33" />
<rect x="20" y="45" width="1" height="1" fill="#33ff33" />
<rect x="21" y="45" width="1" height="1" fill="#33ff33" />
<rect x="22" y="45" width="1" height="1" fill="#33ff33" />
<rect x="23" y="45" width="1" height="1" fill="#33ff33" />
<rect x="24" y="45" width="1" height="1" fill="#33ff33" />
<rect x="25" y="45" width="1" height="1" fill="#33ff33" />
<rect x="26" y="45" width="1" height="1" fill="#33ff33" />
<rect x="27" y="45" width="1" height="1" fill="#33ff33" />
<rect x="28" y="45" width="1" height="1" fill="#33ff33" />
<rect x="29" y="45" width="1" height="1" fill="#33ff33" />
<rect x="30" y="45" width="1" height="1" fill="#33ff33" />
<rect x="31" y="45" width="1" height="1" fill="#33ff33" />
<rect x="32" y="45" width="1" height="1" fill="#33ff33" />
<rect x="33" y="45" width="1" height="1" fill="#33ff33" />
<rect x="34" y="45" width="1" height="1" fill="#33ff33" />
<rect x="35" y="45" width="1" height="1" fill="#33ff33" />
<rect x="36" y="45" width="1" height="1" fill="#33ff33" />
<rect x="37" y="45" width="1" height="1" fill="#33ff33" />
<rect x="38" y="45" width="1" height="1" fill="#33ff33" />
<rect x="39" y="45" width="1" height="1" fill="#33ff33" />
<rect x="40" y="45" width="1" height="1" fill="#33ff33" />
<rect x="41" y="45" width="1" height="1" fill="#33ff33" />
<rect x="42" y="45" width="1" height="1" fill="#33ff33" />
<rect x="43" y="45" width="1" height="1" fill="#33ff33" />
<rect x="44" y="45" width="1" height="1" fill="#33ff33" />
<rect x="3" y="46" width="1" height="1" fill="#33ff33" />
<rect x="4" y="46" width="1" height="1" fill="#33ff33" />
<rect x="5" y="46" width="1" height="1" fill="#33ff33" />
<rect x="6" y="46" width="1" height="1" fill="#33ff33" />
<rect x="7" y="46" width="1" height="1" fill="#33ff33" />
<rect x="8" y="46" width="1" height="1" fill="#33ff33" />
<rect x="9" y="46" width="1" height="1" fill="#33ff33" />
<rect x="10" y="46" width="1" height="1" fill="#33ff33" />
<rect x="11" y="46" width="1" height="1" fill="#33ff33" />
<rect x="12" y="46" width="1" height="1" fill="#33ff33" />
<rect x="13" y="46" width="1" height="1" fill="#33ff33" />
<rect x="14" y="46" width="1" height="1" fill="#33ff33" />
<rect x="15" y="46" width="1" height="1" fill="#33ff33" />
<rect x="16" y="46" width="1" height="1" fill="#33ff33" />
<rect x="17" y="46" width="1" height="1" fill="#33ff33" />
<rect x="18" y="46" width="1" height="1" fill="#33ff33" />
<rect x="19" y="46" width="1" height="1" fill="#33ff33" />
<rect x="20" y="46" width="1" height="1" fill="#33ff33" />
<rect x="21" y="46" width="1" height="1" fill="#33ff33" />
<rect x="22" y="46" width="1" height="1" fill="#33ff33" />
<rect x="23" y="46" width="1" height="1" fill="#33ff33" />
<rect x="24" y="46" width="1" height="1" fill="#33ff33" />
<rect x="25" y="46" width="1" height="1" fill="#33ff33" />
<rect x="26" y="46" width="1" height="1" fill="#33ff33" />
<rect x="27" y="46" width="1" height="1" fill="#33ff33" />
<rect x="28" y="46" width="1" height="1" fill="#33ff33" />
<rect x="29" y="46" width="1" height="1" fill="#33ff33" />
<rect x="30" y="46" width="1" height="1" fill="#33ff33" />
<rect x="31" y="46" width="1" height="1" fill="#33ff33" />
<rect x="32" y="46" width="1" height="1" fill="#33ff33" />
<rect x="33" y="46" width="1" height="1" fill="#33ff33" />
<rect x="34" y="46" width="1" height="1" fill="#33ff33" />
<rect x="35" y="46" width="1" height="1" fill="#33ff33" />
<rect x="36" y="46" width="1" height="1" fill="#33ff33" />
<rect x="37" y="46" width="1" height="1" fill="#33ff33" />
<rect x="38" y="46" width="1" height="1" fill="#33ff33" />
<rect x="39" y="46" width="1" height="1" fill="#33ff33" />
<rect x="40" y="46" width="1" height="1" fill="#33ff33" />
<rect x="41" y="46" width="1" height="1" fill="#33ff33" />
<rect x="42" y="46" width="1" height="1" fill="#33ff33" />
<rect x="43" y="46" width="1" height="1" fill="#33ff33" />
<rect x="44" y="46" width="1" height="1" fill="#33ff33" />
<rect x="3" y="47" width="1" height="1" fill="#33ff33" />
<rect x="4" y="47" width="1" height="1" fill="#33ff33" />
<rect x="5" y="47" width="1" height="1" fill="#33ff33" />
<rect x="6" y="47" width="1" height="1" fill="#33ff33" />
<rect x="7" y="47" width="1" height="1" fill="#33ff33" />
<rect x="8" y="47" width="1" height="1" fill="#33ff33" />
<rect x="9" y="47" width="1" height="1" fill="#33ff33" />
<rect x="10" y="47" width="1" height="1" fill="#33ff33" />
<rect x="11" y="47" width="1" height="1" fill="#33ff33" />
<rect x="12" y="47" width="1" height="1" fill="#33ff33" />
<rect x="13" y="47" width="1" height="1" fill="#33ff33" />
<rect x="14" y="47" width="1" height="1" fill="#33ff33" />
<rect x="15" y="47" width="1" height="1" fill="#33ff33" />
<rect x="16" y="47" width="1" height="1" fill="#33ff33" />
<rect x="17" y="47" width="1" height="1" fill="#33ff33" />
<rect x="18" y="47" width="1" height="1" fill="#33ff33" />
<rect x="19" y="47" width="1" height="1" fill="#33ff33" />
<rect x="20" y="47" width="1" height="1" fill="#33ff33" />
<rect x="21" y="47" width="1" height="1" fill="#33ff33" />
<rect x="22" y="47" width="1" height="1" fill="#33ff33" />
<rect x="23" y="47" width="1" height="1" fill="#33ff33" />
<rect x="24" y="47" width="1" height="1" fill="#33ff33" />
<rect x="25" y="47" width="1" height="1" fill="#33ff33" />
<rect x="26" y="47" width="1" height="1" fill="#33ff33" />
<rect x="27" y="47" width="1" height="1" fill="#33ff33" />
<rect x="28" y="47" width="1" height="1" fill="#33ff33" />
<rect x="29" y="47" width="1" height="1" fill="#33ff33" />
<rect x="30" y="47" width="1" height="1" fill="#33ff33" />
<rect x="31" y="47" width="1" height="1" fill="#33ff33" />
<rect x="32" y="47" width="1" height="1" fill="#33ff33" />
<rect x="33" y="47" width="1" height="1" fill="#33ff33" />
<rect x="34" y="47" width="1" height="1" fill="#33ff33" />
<rect x="35" y="47" width="1" height="1" fill="#33ff33" />
<rect x="36" y="47" width="1" height="1" fill="#33ff33" />
<rect x="37" y="47" width="1" height="1" fill="#33ff33" />
<rect x="38" y="47" width="1" height="1" fill="#33ff33" />
<rect x="39" y="47" width="1" height="1" fill="#33ff33" />
<rect x="40" y="47" width="1" height="1" fill="#33ff33" />
<rect x="41" y="47" width="1" height="1" fill="#33ff33" />
<rect x="42" y="47" width="1" height="1" fill="#33ff33" />
<rect x="43" y="47" width="1" height="1" fill="#33ff33" />
<rect x="44" y="47" width="1" height="1" fill="#33ff33" />
</svg>