<?xml version="1.0" encoding="UTF-8" ?>
<svg version="1.1" width="48" height="48" xmlns="http://www.w3.org/2000/svg" shape-rendering="crispEdges">
<rect x="14" y="0" width="1" height="1" fill="#33ff33" />
<rect x="15" y="0" width="1" height="1" fill="#33ff33" />
<rect x="16" y="0" width="1" height="1" fill="#33ff33" />
<rect x="17" y="0" width="1" height="1" fill="#33ff33" />
<rect x="18" y="0" width="1" height="1" fill="#33ff33" />
<rect x="19" y="0" width="1" height="1" fill="#33ff33" />
<rect x="20" y="0" width="1" height="1" fill="#33ff33" />
<rect x="21" y="0" width="1" height="1" fill="#33ff33" />
<rect x="22" y="0" width="1" height="1" fill="#33ff33" />
<rect x="23" y="0" width="1" height="1" fill="#33ff33" />
<rect x="24" y="0" width="1" height="1" fill="#33ff33" />
<rect x="25" y="0" width="1" height="1" fill="#33ff33" />
<rect x="26" y="0" width="1" height="1" fill="#33ff33" />
<rect x="27" y="0" width="1" height="1" fill="#33ff33" />
<rect x="28" y="0" width="1" height="1" fill="#33ff33" />
<rect x="29" y="0" width="1" height="1" fill="#33ff33" />
<rect x="30" y="0" width="1" height="1" fill="#33ff33" />
<rect x="31" y="0" width="1" height="1" fill="#33ff33" />
<rect x="32" y="0" width="1" height="1" fill="#33ff33" />
<rect x="33" y="0" width="1" height="1" fill="#33ff33" />
<rect x="34" y="0" width="1" height="1" fill="#33ff33" />
<rect x="13" y="1" width="1" height="1" fill="#33ff33" />
<rect x="14" y="1" width="1" height="1" fill="#33ff33" />
<rect x="15" y="1" width="1" height="1" fill="#33ff33" />
<rect x="16" y="1" width="1" height="1" fill="#33ff33" />
<rect x="17" y="1" width="1" height="1" fill="#33ff33" />
<rect x="18" y="1" width="1" height="1" fill="#33ff33" />
<rect x="19" y="1" width="1" height="1" fill="#33ff33" />
<rect x="20" y="1" width="1" height="1" fill="#33ff33" />
<rect x="21" y="1" width="1" height="1" fill="#33ff33" />
<rect x="22" y="1" width="1" height="1" fill="#33ff33" />
<rect x="23" y="1" width="1" height="1" fill="#33ff33" />
<rect x="24" y="1" width="1" height="1" fill="#33ff33" />
<rect x="25" y="1" width="1" height="1" fill="#33ff33" />
<rect x="26" y="1" width="1" height="1" fill="#33ff33" />
<rect x="27" y="1" width="1" height="1" fill="#33ff33" />
<rect x="28" y="1" width="1" height="1" fill="#33ff33" />
<rect x="29" y="1" width="1" height="1" fill="#33ff33" />
<rect x="30" y="1" width="1" height="1" fill="#33ff33" />
<rect x="31" y="1" width="1" height="1" fill="#33ff33" />
<rect x="32" y="1" width="1" height="1" fill="#33ff33" />
<rect x="33" y="1" width="1" height="1" fill="#33ff33" />
<rect x="34" y="1" width="1" height="1" fill="#33ff33" />
<rect x="35" y="1" width="1" height="1" fill="#33ff33" />
<rect x="12" y="2" width="1" height="1" fill="#33ff33" />
<rect x="13" y="2" width="1" height="1" fill="#33ff33" />
<rect x="14" y="2" width="1" height="1" fill="#33ff33" />
<rect x="15" y="2" width="1" height="1" fill="#33ff33" />
<rect x="16" y="2" width="1" height="1" fill="#33ff33" />
<rect x="17" y="2" width="1" height="1" fill="#33ff33" />
<rect x="18" y="2" width="1" height="1" fill="#33ff33" />
<rect x="19" y="2" width="1" height="1" fill="#33ff33" />
<rect x="20" y="2" width="1" height="1" fill="#33ff33" />
<rect x="21" y="2" width="1" height="1" fill="#33ff33" />
<rect x="22" y="2" width="1" height="1" fill="#33ff33" />
<rect x="23" y="2" width="1" height="1" fill="#33ff33" />
<rect x="24" y="2" width="1" height="1" fill="#33ff33" />
<rect x="25" y="2" width="1" height="1" fill="#33ff33" />
<rect x="26" y="2" width="1" height="1" fill="#33ff33" />
<rect x="27" y="2" width="1" height="1" fill="#33ff33" />
<rect x="28" y="2" width="1" height="1" fill="#33ff33" />
<rect x="29" y="2" width="1" height="1" fill="#33ff33" />
<rect x="30" y="2" width="1" height="1" fill="#33ff33" />
<rect x="31" y="2" width="1" height="1" fill="#33ff33" />
<rect x="32" y="2" width="1" height="1" fill="#33ff33" />
<rect x="33" y="2" width="1" height="1" fill="#33ff33" />
<rect x="34" y="2" width="1" height="1" fill="#33ff33" />
<rect x="35" y="2" width="1" height="1" fill="#33ff33" />
<rect x="36" y="2" width="1" height="1" fill="#33ff33" />
<rect x="12" y="3" width="1" height="1" fill="#33ff33" />
<rect x="13" y="3" width="1" height="1" fill="#33ff33" />
<rect x="14" y="3" width="1" height="1" fill="#33ff33" />
<rect x="15" y="3" width="1" height="1" fill="#33ff33" />
<rect x="33" y="3" width="1" height="1" fill="#33ff33" />
<rect x="34" y="3" width="1" height="1" fill="#33ff33" />
<rect x="35" y="3" width="1" height="1" fill="#33ff33" />
<rect x="36" y="3" width="1" height="1" fill="#33ff33" />
<rect x="12" y="4" width="1" height="1" fill="#33ff33" />
<rect x="13" y="4" width="1" height="1" fill="#33ff33" />
<rect x="14" y="4" width="1" height="1" fill="#33ff33" />
<rect x="34" y="4" width="1" height="1" fill="#33ff33" />
<rect x="35" y="4" width="1" height="1" fill="#33ff33" />
<rect x="36" y="4" width="1" height="1" fill="#33ff33" />
<rect x="12" y="5" width="1" height="1" fill="#33ff33" />
<rect x="13" y="5" width="1" height="1" fill="#33ff33" />
<rect x="14" y="5" width="1" height="1" fill="#33ff33" />
<rect x="34" y="5" width="1" height="1" fill="#33ff33" />
<rect x="35" y="5" width="1" height="1" fill="#33ff33" />
<rect x="36" y="5" width="1" height="1" fill="#33ff33" />
<rect x="12" y="6" width="1" height="1" fill="#33ff33" />
<rect x="13" y="6" width="1" height="1" fill="#33ff33" />
<rect x="14" y="6" width="1" height="1" fill="#33ff33" />
<rect x="19" y="6" width="1" height="1" fill="#33ff33" />
<rect x="20" y="6" width="1" height="1" fill="#33ff33" />
<rect x="21" y="6" width="1" height="1" fill="#33ff33" />
<rect x="22" y="6" width="1" height="1" fill="#33ff33" />
<rect x="23" y="6" width="1" height="1" fill="#33ff33" />
<rect x="24" y="6" width="1" height="1" fill="#33ff33" />
<rect x="25" y="6" width="1" height="1" fill="#33ff33" />
<rect x="26" y="6" width="1" height="1" fill="#33ff33" />
<rect x="27" y="6" width="1" height="1" fill="#33ff33" />
<rect x="28" y="6" width="1" height="1" fill="#33ff33" />
<rect x="29" y="6" width="1" height="1" fill="#33ff33" />
<rect x="34" y="6" width="1" height="1" fill="#33ff33" />
<rect x="35" y="6" width="1" height="1" fill="#33ff33" />
<rect x="36" y="6" width="1" height="1" fill="#33ff33" />
<rect x="12" y="7" width="1" height="1" fill="#33ff33" />
<rect x="13" y="7" width="1" height="1" fill="#33ff33" />
<rect x="14" y="7" width="1" height="1" fill="#33ff33" />
<rect x="18" y="7" width="1" height="1" fill="#33ff33" />
<rect x="19" y="7" width="1" height="1" fill="#33ff33" />
<rect x="20" y="7" width="1" height="1" fill="#33ff33" />
<rect x="21" y="7" width="1" height="1" fill="#33ff33" />
<rect x="22" y="7" width="1" height="1" fill="#33ff33" />
<rect x="23" y="7" width="1" height="1" fill="#33ff33" />
<rect x="24" y="7" width="1" height="1" fill="#33ff33" />
<rect x="25" y="7" width="1" height="1" fill="#33ff33" />
<rect x="26" y="7" width="1" height="1" fill="#33ff33" />
<rect x="27" y="7" width="1" height="1" fill="#33ff33" />
<rect x="28" y="7" width="1" height="1" fill="#33ff33" />
<rect x="29" y="7" width="1" height="1" fill="#33ff33" />
<rect x="30" y="7" width="1" height="1" fill="#33ff33" />
<rect x="34" y="7" width="1" height="1" fill="#33ff33" />
<rect x="35" y="7" width="1" height="1" fill="#33ff33" />
<rect x="36" y="7" width="1" height="1" fill="#33ff33" />
<rect x="12" y="8" width="1" height="1" fill="#33ff33" />
<rect x="13" y="8" width="1" height="1" fill="#33ff33" />
<rect x="14" y="8" width="1" height="1" fill="#33ff33" />
<rect x="18" y="8" width="1" height="1" fill="#33ff33" />
<rect x="19" y="8" width="1" height="1" fill="#33ff33" />
<rect x="20" y="8" width="1" height="1" fill="#33ff33" />
<rect x="21" y="8" width="1" height="1" fill="#33ff33" />
<rect x="22" y="8" width="1" height="1" fill="#33ff33" />
<rect x="23" y="8" width="1" height="1" fill="#33ff33" />
<rect x="24" y="8" width="1" height="1" fill="#33ff33" />
<rect x="25" y="8" width="1" height="1" fill="#33ff33" />
<rect x="26" y="8" width="1" height="1" fill="#33ff33" />
<rect x="27" y="8" width="1" height="1" fill="#33ff33" />
<rect x="28" y="8" width="1" height="1" fill="#33ff33" />
<rect x="29" y="8" width="1" height="1" fill="#33ff33" />
<rect x="30" y="8" width="1" height="1" fill="#33ff33" />
<rect x="34" y="8" width="1" height="1" fill="#33ff33" />
<rect x="35" y="8" width="1" height="1" fill="#33ff33" />
<rect x="36" y="8" width="1" height="1" fill="#33ff33" />
<rect x="12" y="9" width="1" height="1" fill="#33ff33" />
<rect x="13" y="9" width="1" height="1" fill="#33ff33" />
<rect x="14" y="9" width="1" height="1" fill="#33ff33" />
<rect x="18" y="9" width="1" height="1" fill="#33ff33" />
<rect x="19" y="9" width="1" height="1" fill="#33ff33" />
<rect x="20" y="9" width="1" height="1" fill="#33ff33" />
<rect x="28" y="9" width="1" height="1" fill="#33ff33" />
<rect x="29" y="9" width="1" height="1" fill="#33ff33" />
<rect x="30" y="9" width="1" height="1" fill="#33ff33" />
<rect x="34" y="9" width="1" height="1" fill="#33ff33" />
<rect x="35" y="9" width="1" height="1" fill="#33ff33" />
<rect x="36" y="9" width="1" height="1" fill="#33ff33" />
<rect x="12" y="10" width="1" height="1" fill="#33ff33" />
<rect x="13" y="10" width="1" height="1" fill="#33ff33" />
<rect x="14" y="10" width="1" height="1" fill="#33ff33" />
<rect x="18" y="10" width="1" height="1" fill="#33ff33" />
<rect x="19" y="10" width="1" height="1" fill="#33ff33" />
<rect x="20" y="10" width="1" height="1" fill="#33ff33" />
<rect x="28" y="10" width="1" height="1" fill="#33ff33" />
<rect x="29" y="10" width="1" height="1" fill="#33ff33" />
<rect x="30" y="10" width="1" height="1" fill="#33ff33" />
<rect x="34" y="10" width="1" height="1" fill="#33ff33" />
<rect x="35" y="10" width="1" height="1" fill="#33ff33" />
<rect x="36" y="10" width="1" height="1" fill="#33ff33" />
<rect x="12" y="11" width="1" height="1" fill="#33ff33" />
<rect x="13" y="11" width="1" height="1" fill="#33ff33" />
<rect x="14" y="11" width="1" height="1" fill="#33ff33" />
<rect x="18" y="11" width="1" height="1" fill="#33ff33" />
<rect x="19" y="11" width="1" height="1" fill="#33ff33" />
<rect x="20" y="11" width="1" height="1" fill="#33ff33" />
<rect x="28" y="11" width="1" height="1" fill="#33ff33" />
<rect x="29" y="11" width="1" height="1" fill="#33ff33" />
<rect x="30" y="11" width="1" height="1" fill="#33ff33" />
<rect x="34" y="11" width="1" height="1" fill="#33ff33" />
<rect x="35" y="11" width="1" height="1" fill="#33ff33" />
<rect x="36" y="11" width="1" height="1" fill="#33ff33" />
<rect x="12" y="12" width="1" height="1" fill="#33ff33" />
<rect x="13" y="12" width="1" height="1" fill="#33ff33" />
<rect x="14" y="12" width="1" height="1" fill="#33ff33" />
<rect x="18" y="12" width="1" height="1" fill="#33ff33" />
<rect x="19" y="12" width="1" height="1" fill="#33ff33" />
<rect x="20" y="12" width="1" height="1" fill="#33ff33" />
<rect x="28" y="12" width="1" height="1" fill="#33ff33" />
<rect x="29" y="12" width="1" height="1" fill="#33ff33" />
<rect x="30" y="12" width="1" height="1" fill="#33ff33" />
<rect x="34" y="12" width="1" height="1" fill="#33ff33" />
<rect x="35" y="12" width="1" height="1" fill="#33ff33" />
<rect x="36" y="12" width="1" height="1" fill="#33ff33" />
<rect x="3" y="13" width="1" height="1" fill="#33ff33" />
<rect x="4" y="13" width="1" height="1" fill="#33ff33" />
<rect x="5" y="13" width="1" height="1" fill="#33ff33" />
<rect x="6" y="13" width="1" height="1" fill="#33ff33" />
<rect x="7" y="13" width="1" height="1" fill="#33ff33" />
<rect x="8" y="13" width="1" height="1" fill="#33ff33" />
<rect x="9" y="13" width="1" height="1" fill="#33ff33" />
<rect x="10" y="13" width="1" height="1" fill="#33ff33" />
<rect x="11" y="13" width="1" height="1" fill="#33ff33" />
<rect x="12" y="13" width="1" height="1" fill="#33ff33" />
<rect x="13" y="13" width="1" height="1" fill="#33ff33" />
<rect x="14" y="13" width="1" height="1" fill="#33ff33" />
<rect x="18" y="13" width="1" height="1" fill="#33ff33" />
<rect x="19" y="13" width="1" height="1" fill="#33ff33" />
<rect x="20" y="13" width="1" height="1" fill="#33ff33" />
<rect x="21" y="13" width="1" height="1" fill="#33ff33" />
<rect x="22" y="13" width="1" height="1" fill="#33ff33" />
<rect x="23" y="13" width="1" height="1" fill="#33ff33" />
<rect x="24" y="13" width="1" height="1" fill="#33ff33" />
<rect x="25" y="13" width="1" height="1" fill="#33ff33" />
<rect x="26" y="13" width="1" height="1" fill="#33ff33" />
<rect x="27" y="13" width="1" height="1" fill="#33ff33" />
<rect x="28" y="13" width="1" height="1" fill="#33ff33" />
<rect x="29" y="13" width="1" height="1" fill="#33ff33" />
<rect x="30" y="13" width="1" height="1" fill="#33ff33" />
<rect x="34" y="13" width="1" height="1" fill="#33ff33" />
<rect x="35" y="13" width="1" height="1" fill="#33ff33" />
<rect x="36" y="13" width="1" height="1" fill="#33ff33" />
<rect x="37" y="13" width="1" height="1" fill="#33ff33" />
<rect x="38" y="13" width="1" height="1" fill="#33ff33" />
<rect x="39" y="13" width="1" height="1" fill="#33ff33" />
<rect x="40" y="13" width="1" height="1" fill="#33ff33" />
<rect x="41" y="13" width="1" height="1" fill="#33ff33" />
<rect x="42" y="13" width="1" height="1" fill="#33ff33" />
<rect x="43" y="13" width="1" height="1" fill="#33ff33" />
<rect x="44" y="13" width="1" height="1" fill="#33ff33" />
<rect x="45" y="13" width="1" height="1" fill="#33ff33" />
<rect x="1" y="14" width="1" height="1" fill="#33ff33" />
<rect x="2" y="14" width="1" height="1" fill="#33ff33" />
<rect x="3" y="14" width="1" height="1" fill="#33ff33" />
<rect x="4" y="14" width="1" height="1" fill="#33ff33" />
<rect x="5" y="14" width="1" height="1" fill="#33ff33" />
<rect x="6" y="14" width="1" height="1" fill="#33ff33" />
<rect x="7" y="14" width="1" height="1" fill="#33ff33" />
<rect x="8" y="14" width="1" height="1" fill="#33ff33" />
<rect x="9" y="14" width="1" height="1" fill="#33ff33" />
<rect x="10" y="14" width="1" height="1" fill="#33ff33" />
<rect x="11" y="14" width="1" height="1" fill="#33ff33" />
<rect x="12" y="14" width="1" height="1" fill="#33ff33" />
<rect x="13" y="14" width="1" height="1" fill="#33ff33" />
<rect x="14" y="14" width="1" height="1" fill="#33ff33" />
<rect x="18" y="14" width="1" height="1" fill="#33ff33" />
<rect x="19" y="14" width="1" height="1" fill="#33ff33" />
<rect x="20" y="14" width="1" height="1" fill="#33ff33" />
<rect x="21" y="14" width="1" height="1" fill="#33ff33" />
<rect x="22" y="14" width="1" height="1" fill="#33ff33" />
<rect x="23" y="14" width="1" height="1" fill="#33ff33" />
<rect x="24" y="14" width="1" height="1" fill="#33ff33" />
<rect x="25" y="14" width="1" height="1" fill="#33ff33" />
<rect x="26" y="14" width="1" height="1" fill="#33ff33" />
<rect x="27" y="14" width="1" height="1" fill="#33ff33" />
<rect x="28" y="14" width="1" height="1" fill="#33ff33" />
<rect x="29" y="14" width="1" height="1" fill="#33ff33" />
<rect x="30" y="14" width="1" height="1" fill="#33ff33" />
<rect x="34" y="14" width="1" height="1" fill="#33ff33" />
<rect x="35" y="14" width="1" height="1" fill="#33ff33" />
<rect x="36" y="14" width="1" height="1" fill="#33ff33" />
<rect x="37" y="14" width="1" height="1" fill="#33ff33" />
<rect x="38" y="14" width="1" height="1" fill="#33ff33" />
<rect x="39" y="14" width="1" height="1" fill="#33ff33" />
<rect x="40" y="14" width="1" height="1" fill="#33ff33" />
<rect x="41" y="14" width="1" height="1" fill="#33ff33" />
<rect x="42" y="14" width="1" height="1" fill="#33ff33" />
<rect x="43" y="14" width="1" height="1" fill="#33ff33" />
<rect x="44" y="14" width="1" height="1" fill="#33ff33" />
<rect x="45" y="14" width="1" height="1" fill="#33ff33" />
<rect x="46" y="14" width="1" height="1" fill="#33ff33" />
<rect x="1" y="15" width="1" height="1" fill="#33ff33" />
<rect x="2" y="15" width="1" height="1" fill="#33ff33" />
<rect x="3" y="15" width="1" height="1" fill="#33ff33" />
<rect x="4" y="15" width="1" height="1" fill="#33ff33" />
<rect x="5" y="15" width="1" height="1" fill="#33ff33" />
<rect x="6" y="15" width="1" height="1" fill="#33ff33" />
<rect x="7" y="15" width="1" height="1" fill="#33ff33" />
<rect x="8" y="15" width="1" height="1" fill="#33ff33" />
<rect x="9" y="15" width="1" height="1" fill="#33ff33" />
<rect x="10" y="15" width="1" height="1" fill="#33ff33" />
<rect x="11" y="15" width="1" height="1" fill="#33ff33" />
<rect x="12" y="15" width="1" height="1" fill="#33ff33" />
<rect x="13" y="15" width="1" height="1" fill="#33ff33" />
<rect x="14" y="15" width="1" height="1" fill="#33ff33" />
<rect x="18" y="15" width="1" height="1" fill="#33ff33" />
<rect x="19" y="15" width="1" height="1" fill="#33ff33" />
<rect x="20" y="15" width="1" height="1" fill="#33ff33" />
<rect x="21" y="15" width="1" height="1" fill="#33ff33" />
<rect x="22" y="15" width="1" height="1" fill="#33ff33" />
<rect x="23" y="15" width="1" height="1" fill="#33ff33" />
<rect x="24" y="15" width="1" height="1" fill="#33ff33" />
<rect x="25" y="15" width="1" height="1" fill="#33ff33" />
<rect x="26" y="15" width="1" height="1" fill="#33ff33" />
<rect x="27" y="15" width="1" height="1" fill="#33ff33" />
<rect x="28" y="15" width="1" height="1" fill="#33ff33" />
<rect x="29" y="15" width="1" height="1" fill="#33ff33" />
<rect x="30" y="15" width="1" height="1" fill="#33ff33" />
<rect x="34" y="15" width="1" height="1" fill="#33ff33" />
<rect x="35" y="15" width="1" height="1" fill="#33ff33" />
<rect x="36" y="15" width="1" height="1" fill="#33ff33" />
<rect x="37" y="15" width="1" height="1" fill="#33ff33" />
<rect x="38" y="15" width="1" height="1" fill="#33ff33" />
<rect x="39" y="15" width="1" height="1" fill="#33ff33" />
<rect x="40" y="15" width="1" height="1" fill="#33ff33" />
<rect x="41" y="15" width="1" height="1" fill="#33ff33" />
<rect x="42" y="15" width="1" height="1" fill="#33ff33" />
<rect x="43" y="15" width="1" height="1" fill="#33ff33" />
<rect x="44" y="15" width="1" height="1" fill="#33ff33" />
<rect x="45" y="15" width="1" height="1" fill="#33ff33" />
<rect x="46" y="15" width="1" height="1" fill="#33ff33" />
<rect x="47" y="15" width="1" height="1" fill="#33ff33" />
<rect x="0" y="16" width="1" height="1" fill="#33ff33" />
<rect x="1" y="16" width="1" height="1" fill="#33ff33" />
<rect x="2" y="16" width="1" height="1" fill="#33ff33" />
<rect x="3" y="16" width="1" height="1" fill="#33ff33" />
<rect x="44" y="16" width="1" height="1" fill="#33ff33" />
<rect x="45" y="16" width="1" height="1" fill="#33ff33" />
<rect x="46" y="16" width="1" height="1" fill="#33ff33" />
<rect x="47" y="16" width="1" height="1" fill="#33ff33" />
<rect x="0" y="17" width="1" height="1" fill="#33ff33" />
<rect x="1" y="17" width="1" height="1" fill="#33ff33" />
<rect x="2" y="17" width="1" height="1" fill="#33ff33" />
<rect x="45" y="17" width="1" height="1" fill="#33ff33" />
<rect x="46" y="17" width="1" height="1" fill="#33ff33" />
<rect x="47" y="17" width="1" height="1" fill="#33ff33" />
<rect x="0" y="18" width="1" height="1" fill="#33ff33" />
<rect x="1" y="18" width="1" height="1" fill="#33ff33" />
<rect x="2" y="18" width="1" height="1" fill="#33ff33" />
<rect x="45" y="18" width="1" height="1" fill="#33ff33" />
<rect x="46" y="18" width="1" height="1" fill="#33ff33" />
<rect x="47" y="18" width="1" height="1" fill="#33ff33" />
<rect x="0" y="19" width="1" height="1" fill="#33ff33" />
<rect x="1" y="19" width="1" height="1" fill="#33ff33" />
<rect x="2" y="19" width="1" height="1" fill="#33ff33" />
<rect x="45" y="19" width="1" height="1" fill="#33ff33" />
<rect x="46" y="19" width="1" height="1" fill="#33ff33" />
<rect x="47" y="19" width="1" height="1" fill="#33ff33" />
<rect x="0" y="20" width="1" height="1" fill="#33ff33" />
<rect x="1" y="20" width="1" height="1" fill="#33ff33" />
<rect x="2" y="20" width="1" height="1" fill="#33ff33" />
<rect x="45" y="20" width="1" height="1" fill="#33ff33" />
<rect x="46" y="20" width="1" height="1" fill="#33ff33" />
<rect x="47" y="20" width="1" height="1" fill="#33ff33" />
<rect x="0" y="21" width="1" height="1" fill="#33ff33" />
<rect x="1" y="21" width="1" height="1" fill="#33ff33" />
<rect x="2" y="21" width="1" height="1" fill="#33ff33" />
<rect x="45" y="21" width="1" height="1" fill="#33ff33" />
<rect x="46" y="21" width="1" height="1" fill="#33ff33" />
<rect x="47" y="21" width="1" height="1" fill="#33ff33" />
<rect x="0" y="22" width="1" height="1" fill="#33ff33" />
<rect x="1" y="22" width="1" height="1" fill="#33ff33" />
<rect x="2" y="22" width="1" height="1" fill="#33ff33" />
<rect x="45" y="22" width="1" height="1" fill="#33ff33" />
<rect x="46" y="22" width="1" height="1" fill="#33ff33" />
<rect x="47" y="22" width="1" height="1" fill="#33ff33" />
<rect x="0" y="23" width="1" height="1" fill="#33ff33" />
<rect x="1" y="23" width="1" height="1" fill="#33ff33" />
<rect x="2" y="23" width="1" height="1" fill="#33ff33" />
<rect x="45" y="23" width="1" height="1" fill="#33ff33" />
<rect x="46" y="23" width="1" height="1" fill="#33ff33" />
<rect x="47" y="23" width="1" height="1" fill="#33ff33" />
<rect x="0" y="24" width="1" height="1" fill="#33ff33" />
<rect x="1" y="24" width="1" height="1" fill="#33ff33" />
<rect x="2" y="24" width="1" height="1" fill="#33ff33" />
<rect x="45" y="24" width="1" height="1" fill="#33ff33" />
<rect x="46" y="24" width="1" height="1" fill="#33ff33" />
<rect x="47" y="24" width="1" height="1" fill="#33ff33" />
<rect x="0" y="25" width="1" height="1" fill="#33ff33" />
<rect x="1" y="25" width="1" height="1" fill="#33ff33" />
<rect x="2" y="25" width="1" height="1" fill="#33ff33" />
<rect x="21" y="25" width="1" height="1" fill="#33ff33" />
<rect x="22" y="25" width="1" height="1" fill="#33ff33" />
<rect x="23" y="25" width="1" height="1" fill="#33ff33" />
<rect x="24" y="25" width="1" height="1" fill="#33ff33" />
<rect x="25" y="25" width="1" height="1" fill="#33ff33" />
<rect x="26" y="25" width="1" height="1" fill="#33ff33" />
<rect x="27" y="25" width="1" height="1" fill="#33ff33" />
<rect x="45" y="25" width="1" height="1" fill="#33ff33" />
<rect x="46" y="25" width="1" height="1" fill="#33ff33" />
<rect x="47" y="25" width="1" height="1" fill="#33ff33" />
<rect x="0" y="26" width="1" height="1" fill="#33ff33" />
<rect x="1" y="26" width="1" height="1" fill="#33ff33" />
<rect x="2" y="26" width="1" height="1" fill="#33ff33" />
<rect x="20" y="26" width="1" height="1" fill="#33ff33" />
<rect x="21" y="26" width="1" height="1" fill="#33ff33" />
<rect x="22" y="26" width="1" height="1" fill="#33ff33" />
<rect x="23" y="26" width="1" height="1" fill="#33ff33" />
<rect x="24" y="26" width="1" height="1" fill="#33ff33" />
<rect x="25" y="26" width="1" height="1" fill="#33ff33" />
<rect x="26" y="26" width="1" height="1" fill="#33ff33" />
<rect x="27" y="26" width="1" height="1" fill="#33ff33" />
<rect x="28" y="26" width="1" height="1" fill="#33ff33" />
<rect x="45" y="26" width="1" height="1" fill="#33ff33" />
<rect x="46" y="26" width="1" height="1" fill="#33ff33" />
<rect x="47" y="26" width="1" height="1" fill="#33ff33" />
<rect x="0" y="27" width="1" height="1" fill="#33ff33" />
<rect x="1" y="27" width="1" height="1" fill="#33ff33" />
<rect x="2" y="27" width="1" height="1" fill="#33ff33" />
<rect x="20" y="27" width="1" height="1" fill="#33ff33" />
<rect x="21" y="27" width="1" height="1" fill="#33ff33" />
<rect x="22" y="27" width="1" height="1" fill="#33ff33" />
<rect x="23" y="27" width="1" height="1" fill="#33ff33" />
<rect x="24" y="27" width="1" height="1" fill="#33ff33" />
<rect x="25" y="27" width="1" height="1" fill="#33ff33" />
<rect x="26" y="27" width="1" height="1" fill="#33ff33" />
<rect x="27" y="27" width="1" height="1" fill="#33ff33" />
<rect x="28" y="27" width="1" height="1" fill="#33ff33" />
<rect x="45" y="27" width="1" height="1" fill="#33ff33" />
<rect x="46" y="27" width="1" height="1" fill="#33ff33" />
<rect x="47" y="27" width="1" height="1" fill="#33ff33" />
<rect x="0" y="28" width="1" height="1" fill="#33ff33" />
<rect x="1" y="28" width="1" height="1" fill="#33ff33" />
<rect x="2" y="28" width="1" height="1" fill="#33ff33" />
<rect x="20" y="28" width="1" height="1" fill="#33ff33" />
<rect x="21" y="28" width="1" height="1" fill="#33ff33" />
<rect x="22" y="28" width="1" height="1" fill="#33ff33" />
<rect x="26" y="28" width="1" height="1" fill="#33ff33" />
<rect x="27" y="28" width="1" height="1" fill="#33ff33" />
<rect x="28" y="28" width="1" height="1" fill="#33ff33" />
<rect x="45" y="28" width="1" height="1" fill="#33ff33" />
<rect x="46" y="28" width="1" height="1" fill="#33ff33" />
<rect x="47" y="28" width="1" height="1" fill="#33ff33" />
<rect x="0" y="29" width="1" height="1" fill="#33ff33" />
<rect x="1" y="29" width="1" height="1" fill="#33ff33" />
<rect x="2" y="29" width="1" height="1" fill="#33ff33" />
<rect x="20" y="29" width="1" height="1" fill="#33ff33" />
<rect x="21" y="29" width="1" height="1" fill="#33ff33" />
<rect x="22" y="29" width="1" height="1" fill="#33ff33" />
<rect x="26" y="29" width="1" height="1" fill="#33ff33" />
<rect x="27" y="29" width="1" height="1" fill="#33ff33" />
<rect x="28" y="29" width="1" height="1" fill="#33ff33" />
<rect x="45" y="29" width="1" height="1" fill="#33ff33" />
<rect x="46" y="29" width="1" height="1" fill="#33ff33" />
<rect x="47" y="29" width="1" height="1" fill="#33ff33" />
<rect x="0" y="30" width="1" height="1" fill="#33ff33" />
<rect x="1" y="30" width="1" height="1" fill="#33ff33" />
<rect x="2" y="30" width="1" height="1" fill="#33ff33" />
<rect x="3" y="30" width="1" height="1" fill="#33ff33" />
<rect x="4" y="30" width="1" height="1" fill="#33ff33" />
<rect x="5" y="30" width="1" height="1" fill="#33ff33" />
<rect x="6" y="30" width="1" height="1" fill="#33ff33" />
<rect x="7" y="30" width="1" height="1" fill="#33ff33" />
<rect x="8" y="30" width="1" height="1" fill="#33ff33" />
<rect x="9" y="30" width="1" height="1" fill="#33ff33" />
<rect x="10" y="30" width="1" height="1" fill="#33ff33" />
<rect x="11" y="30" width="1" height="1" fill="#33ff33" />
<rect x="12" y="30" width="1" height="1" fill="#33ff33" />
<rect x="13" y="30" width="1" height="1" fill="#33ff33" />
<rect x="14" y="30" width="1" height="1" fill="#33ff33" />
<rect x="15" y="30" width="1" height="1" fill="#33ff33" />
<rect x="16" y="30" width="1" height="1" fill="#33ff33" />
<rect x="17" y="30" width="1" height="1" fill="#33ff33" />
<rect x="18" y="30" width="1" height="1" fill="#33ff33" />
<rect x="19" y="30" width="1" height="1" fill="#33ff33" />
<rect x="20" y="30" width="1" height="1" fill="#33ff33" />
<rect x="21" y="30" width="1" height="1" fill="#33ff33" />
<rect x="22" y="30" width="1" height="1" fill="#33ff33" />
<rect x="26" y="30" width="1" height="1" fill="#33ff33" />
<rect x="27" y="30" width="1" height="1" fill="#33ff33" />
<rect x="28" y="30" width="1" height="1" fill="#33ff33" />
<rect x="29" y="30" width="1" height="1" fill="#33ff33" />
<rect x="30" y="30" width="1" height="1" fill="#33ff33" />
<rect x="31" y="30" width="1" height="1" fill="#33ff33" />
<rect x="32" y="30" width="1" height="1" fill="#33ff33" />
<rect x="33" y="30" width="1" height="1" fill="#33ff33" />
<rect x="34" y="30" width="1" height="1" fill="#33ff33" />
<rect x="35" y="30" width="1" height="1" fill="#33ff33" />
<rect x="36" y="30" width="1" height="1" fill="#33ff33" />
<rect x="37" y="30" width="1" height="1" fill="#33ff33" />
<rect x="38" y="30" width="1" height="1" fill="#33ff33" />
<rect x="39" y="30" width="1" height="1" fill="#33ff33" />
<rect x="40" y="30" width="1" height="1" fill="#33ff33" />
<rect x="41" y="30" width="1" height="1" fill="#33ff33" />
<rect x="42" y="30" width="1" height="1" fill="#33ff33" />
<rect x="43" y="30" width="1" height="1" fill="#33ff33" />
<rect x="44" y="30" width="1" height="1" fill="#33ff33" />
<rect x="45" y="30" width="1" height="1" fill="#33ff33" />
<rect x="46" y="30" width="1" height="1" fill="#33ff33" />
<rect x="47" y="30" width="1" height="1" fill="#33ff33" />
<rect x="0" y="31" width="1" height="1" fill="#33ff33" />
<rect x="1" y="31" width="1" height="1" fill="#33ff33" />
<rect x="2" y="31" width="1" height="1" fill="#33ff33" />
<rect x="3" y="31" width="1" height="1" fill="#33ff33" />
<rect x="4" y="31" width="1" height="1" fill="#33ff33" />
<rect x="5" y="31" width="1" height="1" fill="#33ff33" />
<rect x="6" y="31" width="1" height="1" fill="#33ff33" />
<rect x="7" y="31" width="1" height="1" fill="#33ff33" />
<rect x="8" y="31" width="1" height="1" fill="#33ff33" />
<rect x="9" y="31" width="1" height="1" fill="#33ff33" />
<rect x="10" y="31" width="1" height="1" fill="#33ff33" />
<rect x="11" y="31" width="1" height="1" fill="#33ff33" />
<rect x="12" y="31" width="1" height="1" fill="#33ff33" />
<rect x="13" y="31" width="1" height="1" fill="#33ff33" />
<rect x="14" y="31" width="1" height="1" fill="#33ff33" />
<rect x="15" y="31" width="1" height="1" fill="#33ff33" />
<rect x="16" y="31" width="1" height="1" fill="#33ff33" />
<rect x="17" y="31" width="1" height="1" fill="#33ff33" />
<rect x="18" y="31" width="1" height="1" fill="#33ff33" />
<rect x="19" y="31" width="1" height="1" fill="#33ff33" />
<rect x="20" y="31" width="1" height="1" fill="#33ff33" />
<rect x="21" y="31" width="1" height="1" fill="#33ff33" />
<rect x="22" y="31" width="1" height="1" fill="#33ff33" />
<rect x="26" y="31" width="1" height="1" fill="#33ff33" />
<rect x="27" y="31" width="1" height="1" fill="#33ff33" />
<rect x="28" y="31" width="1" height="1" fill="#33ff33" />
<rect x="29" y="31" width="1" height="1" fill="#33ff33" />
<rect x="30" y="31" width="1" height="1" fill="#33ff33" />
<rect x="31" y="31" width="1" height="1" fill="#33ff33" />
<rect x="32" y="31" width="1" height="1" fill="#33ff33" />
<rect x="33" y="31" width="1" height="1" fill="#33ff33" />
<rect x="34" y="31" width="1" height="1" fill="#33ff33" />
<rect x="35" y="31" width="1" height="1" fill="#33ff33" />
<rect x="36" y="31" width="1" height="1" fill="#33ff33" />
<rect x="37" y="31" width="1" height="1" fill="#33ff33" />
<rect x="38" y="31" width="1" height="1" fill="#33ff33" />
<rect x="39" y="31" width="1" height="1" fill="#33ff33" />
<rect x="40" y="31" width="1" height="1" fill="#33ff33" />
<rect x="41" y="31" width="1" height="1" fill="#33ff33" />
<rect x="42" y="31" width="1" height="1" fill="#33ff33" />
<rect x="43" y="31" width="1" height="1" fill="#33ff33" />
<rect x="44" y="31" width="1" height="1" fill="#33ff33" />
<rect x="45" y="31" width="1" height="1" fill="#33ff33" />
<rect x="46" y="31" width="1" height="1" fill="#33ff33" />
<rect x="47" y="31" width="1" height="1" fill="#33ff33" />
<rect x="0" y="32" width="1" height="1" fill="#33ff33" />
<rect x="1" y="32" width="1" height="1" fill="#33ff33" />
<rect x="2" y="32" width="1" height="1" fill="#33ff33" />
<rect x="3" y="32" width="1" height="1" fill="#33ff33" />
<rect x="4" y="32" width="1" height="1" fill="#33ff33" />
<rect x="5" y="32" width="1" height="1" fill="#33ff33" />
<rect x="6" y="32" width="1" height="1" fill="#33ff33" />
<rect x="7" y="32" width="1" height="1" fill="#33ff33" />
<rect x="8" y="32" width="1" height="1" fill="#33ff33" />
<rect x="9" y="32" width="1" height="1" fill="#33ff33" />
<rect x="10" y="32" width="1" height="1" fill="#33ff33" />
<rect x="11" y="32" width="1" height="1" fill="#33ff33" />
<rect x="12" y="32" width="1" height="1" fill="#33ff33" />
<rect x="13" y="32" width="1" height="1" fill="#33ff33" />
<rect x="14" y="32" width="1" height="1" fill="#33ff33" />
<rect x="15" y="32" width="1" height="1" fill="#33ff33" />
<rect x="16" y="32" width="1" height="1" fill="#33ff33" />
<rect x="17" y="32" width="1" height="1" fill="#33ff33" />
<rect x="18" y="32" width="1" height="1" fill="#33ff33" />
<rect x="19" y="32" width="1" height="1" fill="#33ff33" />
<rect x="20" y="32" width="1" height="1" fill="#33ff33" />
<rect x="21" y="32" width="1" height="1" fill="#33ff33" />
<rect x="22" y="32" width="1" height="1" fill="#33ff33" />
<rect x="26" y="32" width="1" height="1" fill="#33ff33" />
<rect x="27" y="32" width="1" height="1" fill="#33ff33" />
<rect x="28" y="32" width="1" height="1" fill="#33ff33" />
<rect x="29" y="32" width="1" height="1" fill="#33ff33" />
<rect x="30" y="32" width="1" height="1" fill="#33ff33" />
<rect x="31" y="32" width="1" height="1" fill="#33ff33" />
<rect x="32" y="32" width="1" height="1" fill="#33ff33" />
<rect x="33" y="32" width="1" height="1" fill="#33ff33" />
<rect x="34" y="32" width="1" height="1" fill="#33ff33" />
<rect x="35" y="32" width="1" height="1" fill="#33ff33" />
<rect x="36" y="32" width="1" height="1" fill="#33ff33" />
<rect x="37" y="32" width="1" height="1" fill="#33ff33" />
<rect x="38" y="32" width="1" height="1" fill="#33ff33" />
<rect x="39" y="32" width="1" height="1" fill="#33ff33" />
<rect x="40" y="32" width="1" height="1" fill="#33ff33" />
<rect x="41" y="32" width="1" height="1" fill="#33ff33" />
<rect x="42" y="32" width="1" height="1" fill="#33ff33" />
<rect x="43" y="32" width="1" height="1" fill="#33ff33" />
<rect x="44" y="32" width="1" height="1" fill="#33ff33" />
<rect x="45" y="32" width="1" height="1" fill="#33ff33" />
<rect x="46" y="32" width="1" height="1" fill="#33ff33" />
<rect x="47" y="32" width="1" height="1" fill="#33ff33" />
<rect x="0" y="33" width="1" height="1" fill="#33ff33" />
<rect x="1" y="33" width="1" height="1" fill="#33ff33" />
<rect x="2" y="33" width="1" height="1" fill="#33ff33" />
<rect x="20" y="33" width="1" height="1" fill="#33ff33" />
<rect x="21" y="33" width="1" height="1" fill="#33ff33" />
<rect x="22" y="33" width="1" height="1" fill="#33ff33" />
<rect x="26" y="33" width="1" height="1" fill="#33ff33" />
<rect x="27" y="33" width="1" height="1" fill="#33ff33" />
<rect x="28" y="33" width="1" height="1" fill="#33ff33" />
<rect x="45" y="33" width="1" height="1" fill="#33ff33" />
<rect x="46" y="33" width="1" height="1" fill="#33ff33" />
<rect x="47" y="33" width="1" height="1" fill="#33ff33" />
<rect x="0" y="34" width="1" height="1" fill="#33ff33" />
<rect x="1" y="34" width="1" height="1" fill="#33ff33" />
<rect x="2" y="34" width="1" height="1" fill="#33ff33" />
<rect x="20" y="34" width="1" height="1" fill="#33ff33" />
<rect x="21" y="34" width="1" height="1" fill="#33ff33" />
<rect x="22" y="34" width="1" height="1" fill="#33ff33" />
<rect x="26" y="34" width="1" height="1" fill="#33ff33" />
<rect x="27" y="34" width="1" height="1" fill="#33ff33" />
<rect x="28" y="34" width="1" height="1" fill="#33ff33" />
<rect x="45" y="34" width="1" height="1" fill="#33ff33" />
<rect x="46" y="34" width="1" height="1" fill="#33ff33" />
<rect x="47" y="34" width="1" height="1" fill="#33ff33" />
<rect x="0" y="35" width="1" height="1" fill="#33ff33" />
<rect x="1" y="35" width="1" height="1" fill="#33ff33" />
<rect x="2" y="35" width="1" height="1" fill="#33ff33" />
<rect x="20" y="35" width="1" height="1" fill="#33ff33" />
<rect x="21" y="35" width="1" height="1" fill="#33ff33" />
<rect x="22" y="35" width="1" height="1" fill="#33ff33" />
<rect x="23" y="35" width="1" height="1" fill="#33ff33" />
<rect x="24" y="35" width="1" height="1" fill="#33ff33" />
<rect x="25" y="35" width="1" height="1" fill="#33ff33" />
<rect x="26" y="35" width="1" height="1" fill="#33ff33" />
<rect x="27" y="35" width="1" height="1" fill="#33ff33" />
<rect x="28" y="35" width="1" height="1" fill="#33ff33" />
<rect x="45" y="35" width="1" height="1" fill="#33ff33" />
<rect x="46" y="35" width="1" height="1" fill="#33ff33" />
<rect x="47" y="35" width="1" height="1" fill="#33ff33" />
<rect x="0" y="36" width="1" height="1" fill="#33ff33" />
<rect x="1" y="36" width="1" height="1" fill="#33ff33" />
<rect x="2" y="36" width="1" height="1" fill="#33ff33" />
<rect x="20" y="36" width="1" height="1" fill="#33ff33" />
<rect x="21" y="36" width="1" height="1" fill="#33ff33" />
<rect x="22" y="36" width="1" height="1" fill="#33ff33" />
<rect x="23" y="36" width="1" height="1" fill="#33ff33" />
<rect x="24" y="36" width="1" height="1" fill="#33ff33" />
<rect x="25" y="36" width="1" height="1" fill="#33ff33" />
<rect x="26" y="36" width="1" height="1" fill="#33ff33" />
<rect x="27" y="36" width="1" height="1" fill="#33ff33" />
<rect x="28" y="36" width="1" height="1" fill="#33ff33" />
<rect x="45" y="36" width="1" height="1" fill="#33ff33" />
<rect x="46" y="36" width="1" height="1" fill="#33ff33" />
<rect x="47" y="36" width="1" height="1" fill="#33ff33" />
<rect x="0" y="37" width="1" height="1" fill="#33ff33" />
<rect x="1" y="37" width="1" height="1" fill="#33ff33" />
<rect x="2" y="37" width="1" height="1" fill="#33ff33" />
<rect x="21" y="37" width="1" height="1" fill="#33ff33" />
<rect x="22" y="37" width="1" height="1" fill="#33ff33" />
<rect x="23" y="37" width="1" height="1" fill="#33ff33" />
<rect x="24" y="37" width="1" height="1" fill="#33ff33" />
<rect x="25" y="37" width="1" height="1" fill="#33ff33" />
<rect x="26" y="37" width="1" height="1" fill="#33ff33" />
<rect x="27" y="37" width="1" height="1" fill="#33ff33" />
<rect x="45" y="37" width="1" height="1" fill="#33ff33" />
<rect x="46" y="37" width="1" height="1" fill="#33ff33" />
<rect x="47" y="37" width="1" height="1" fill="#33ff33" />
<rect x="0" y="38" width="1" height="1" fill="#33ff33" />
<rect x="1" y="38" width="1" height="1" fill="#33ff33" />
<rect x="2" y="38" width="1" height="1" fill="#33ff33" />
<rect x="45" y="38" width="1" height="1" fill="#33ff33" />
<rect x="46" y="38" width="1" height="1" fill="#33ff33" />
<rect x="47" y="38" width="1" height="1" fill="#33ff33" />
<rect x="0" y="39" width="1" height="1" fill="#33ff33" />
<rect x="1" y="39" width="1" height="1" fill="#33ff33" />
<rect x="2" y="39" width="1" height="1" fill="#33ff33" />
<rect x="45" y="39" width="1" height="1" fill="#33ff33" />
<rect x="46" y="39" width="1" height="1" fill="#33ff33" />
<rect x="47" y="39" width="1" height="1" fill="#33ff33" />
<rect x="0" y="40" width="1" height="1" fill="#33ff33" />
<rect x="1" y="40" width="1" height="1" fill="#33ff33" />
<rect x="2" y="40" width="1" height="1" fill="#33ff33" />
<rect x="45" y="40" width="1" height="1" fill="#33ff33" />
<rect x="46" y="40" width="1" height="1" fill="#33ff33" />
<rect x="47" y="40" width="1" height="1" fill="#33ff33" />
<rect x="0" y="41" width="1" height="1" fill="#33ff33" />
<rect x="1" y="41" width="1" height="1" fill="#33ff33" />
<rect x="2" y="41" width="1" height="1" fill="#33ff33" />
<rect x="45" y="41" width="1" height="1" fill="#33ff33" />
<rect x="46" y="41" width="1" height="1" fill="#33ff33" />
<rect x="47" y="41" width="1" height="1" fill="#33ff33" />
<rect x="0" y="42" width="1" height="1" fill="#33ff33" />
<rect x="1" y="42" width="1" height="1" fill="#33ff33" />
<rect x="2" y="42" width="1" height="1" fill="#33ff33" />
<rect x="45" y="42" width="1" height="1" fill="#33ff33" />
<rect x="46" y="42" width="1" height="1" fill="#33ff33" />
<rect x="47" y="42" width="1" height="1" fill="#33ff33" />
<rect x="0" y="43" width="1" height="1" fill="#33ff33" />
<rect x="1" y="43" width="1" height="1" fill="#33ff33" />
<rect x="2" y="43" width="1" height="1" fill="#33ff33" />
<rect x="45" y="43" width="1" height="1" fill="#33ff33" />
<rect x="46" y="43" width="1" height="1" fill="#33ff33" />
<rect x="47" y="43" width="1" height="1" fill="#33ff33" />
<rect x="0" y="44" width="1" height="1" fill="#33ff33" />
<rect x="1" y="44" width="1" height="1" fill="#33ff33" />
<rect x="2" y="44" width="1" height="1" fill="#33ff33" />
<rect x="45" y="44" width="1" height="1" fill="#33ff33" />
<rect x="46" y="44" width="1" height="1" fill="#33ff33" />
<rect x="47" y="44" width="1" height="1" fill="#33ff33" />
<rect x="0" y="45" width="1" height="1" fill="#33ff33" />
<rect x="1" y="45" width="1" height="1" fill="#33ff33" />
<rect x="2" y="45" width="1" height="1" fill="#33ff33" />
<rect x="3" y="45" width="1" height="1" fill="#33ff33" />
<rect x="4" y="45" width="1" height="1" fill="#33ff33" />
<rect x="5" y="45" width="1" height="1" fill="#33ff33" />
<rect x="6" y="45" width="1" height="1" fill="#33ff33" />
<rect x="7" y="45" width="1" height="1" fill="#33ff33" />
<rect x="8" y="45" width="1" height="1" fill="#33ff33" />
<rect x="9" y="45" width="1" height="1" fill="#33ff33" />
<rect x="10" y="45" width="1" height="1" fill="#33ff33" />
<rect x="11" y="45" width="1" height="1" fill="#33ff33" />
<rect x="12" y="45" width="1" height="1" fill="#33ff33" />
<rect x="13" y="45" width="1" height="1" fill="#33ff33" />
<rect x="14" y="45" width="1" height="1" fill="#33ff33" />
<rect x="15" y="45" width="1" height="1" fill="#33ff33" />
<rect x="16" y="45" width="1" height="1" fill="#33ff33" />
<rect x="17" y="45" width="1" height="1" fill="#33ff33" />
<rect x="18" y="45" width="1" height="1" fill="#33ff33" />
<rect x="19" y="45" width="1" height="1" fill="#33ff33" />
<rect x="20" y="45" width="1" height="1" fill="#33ff33" />
<rect x="21" y="45" width="1" height="1" fill="#33ff33" />
<rect x="22" y="45" width="1" height="1" fill="#33ff33" />
<rect x="23" y="45" width="1" height="1" fill="#33ff33" />
<rect x="24" y="45" width="1" height="1" fill="#33ff33" />
<rect x="25" y="45" width="1" height="1" fill="#33ff33" />
<rect x="26" y="45" width="1" height="1" fill="#33ff33" />
<rect x="27" y="45" width="1" height="1" fill="#33ff33" />
<rect x="28" y="45" width="1" height="1" fill="#33ff33" />
<rect x="29" y="45" width="1" height="1" fill="#33ff33" />
<rect x="30" y="45" width="1" height="1" fill="#33ff33" />
<rect x="31" y="45" width="1" height="1" fill="#33ff33" />
<rect x="32" y="45" width="1" height="1" fill="#33ff33" />
<rect x="33" y="45" width="1" height="1" fill="#33ff33" />
<rect x="34" y="45" width="1" height="1" fill="#33ff33" />
<rect x="35" y="45" width="1" height="1" fill="#33ff33" />
<rect x="36" y="45" width="1" height="1" fill="#33ff33" />
<rect x="37" y="45" width="1" height="1" fill="#33ff33" />
<rect x="38" y="45" width="1" height="1" fill="#33ff33" />
<rect x="39" y="45" width="1" height="1" fill="#33ff33" />
<rect x="40" y="45" width="1" height="1" fill="#33ff33" />
<rect x="41" y="45" width="1" height="1" fill="#33ff33" />
<rect x="42" y="45" width="1" height="1" fill="#33ff33" />
<rect x="43" y="45" width="1" height="1" fill="#33ff33" />
<rect x="44" y="45" width="1" height="1" fill="#33ff33" />
<rect x="45" y="45" width="1" height="1" fill="#33ff33" />
<rect x="46" y="45" width="1" height="1" fill="#33ff33" />
<rect x="47" y="45" width="1" height="1" fill="#33ff33" />
<rect x="0" y="46" width="1" height="1" fill="#33ff33" />
<rect x="1" y="46" width="1" height="1" fill="#33ff33" />
<rect x="2" y="46" width="1" height="1" fill="#33ff33" />
<rect x="3" y="46" width="1" height="1" fill="#33ff33" />
<rect x="4" y="46" width="1" height="1" fill="#33ff33" />
<rect x="5" y="46" width="1" height="1" fill="#33ff33" />
<rect x="6" y="46" width="1" height="1" fill="#33ff33" />
<rect x="7" y="46" width="1" height="1" fill="#33ff33" />
<rect x="8" y="46" width="1" height="1" fill="#33ff33" />
<rect x="9" y="46" width="1" height="1" fill="#33ff33" />
<rect x="10" y="46" width="1" height="1" fill="#33ff33" />
<rect x="11" y="46" width="1" height="1" fill="#33ff33" />
<rect x="12" y="46" width="1" height="1" fill="#33ff33" />
<rect x="13" y="46" width="1" height="1" fill="#33ff33" />
<rect x="14" y="46" width="1" height="1" fill="#33ff33" />
<rect x="15" y="46" width="1" height="1" fill="#33ff33" />
<rect x="16" y="46" width="1" height="1" fill="#33ff33" />
<rect x="17" y="46" width="1" height="1" fill="#33ff33" />
<rect x="18" y="46" width="1" height="1" fill="#33ff33" />
<rect x="19" y="46" width="1" height="1" fill="#33ff33" />
<rect x="20" y="46" width="1" height="1" fill="#33ff33" />
<rect x="21" y="46" width="1" height="1" fill="#33ff33" />
<rect x="22" y="46" width="1" height="1" fill="#33ff33" />
<rect x="23" y="46" width="1" height="1" fill="#33ff33" />
<rect x="24" y="46" width="1" height="1" fill="#33ff33" />
<rect x="25" y="46" width="1" height="1" fill="#33ff33" />
<rect x="26" y="46" width="1" height="1" fill="#33ff33" />
<rect x="27" y="46" width="1" height="1" fill="#33ff33" />
<rect x="28" y="46" width="1" height="1" fill="#33ff33" />
<rect x="29" y="46" width="1" height="1" fill="#33ff33" />
<rect x="30" y="46" width="1" height="1" fill="#33ff33" />
<rect x="31" y="46" width="1" height="1" fill="#33ff33" />
<rect x="32" y="46" width="1" height="1" fill="#33ff33" />
<rect x="33" y="46" width="1" height="1" fill="#33ff33" />
<rect x="34" y="46" width="1" height="1" fill="#33ff33" />
<rect x="35" y="46" width="1" height="1" fill="#33ff33" />
<rect x="36" y="46" width="1" height="1" fill="#33ff33" />
<rect x="37" y="46" width="1" height="1" fill="#33ff33" />
<rect x="38" y="46" width="1" height="1" fill="#33ff33" />
<rect x="39" y="46" width="1" height="1" fill="#33ff33" />
<rect x="40" y="46" width="1" height="1" fill="#33ff33" />
<rect x="41" y="46" width="1" height="1" fill="#33ff33" />
<rect x="42" y="46" width="1" height="1" fill="#33ff33" />
<rect x="43" y="46" width="1" height="1" fill="#33ff33" />
<rect x="44" y="46" width="1" height="1" fill="#33ff33" />
<rect x="45" y="46" width="1" height="1" fill="#33ff33" />
<rect x="46" y="46" width="1" height="1" fill="#33ff33" />
<rect x="47" y="46" width="1" height="1" fill="#33ff33" />
<rect x="1" y="47" width="1" height="1" fill="#33ff33" />
<rect x="2" y="47" width="1" height="1" fill="#33ff33" />
<rect x="3" y="47" width="1" height="1" fill="#33ff33" />
<rect x="4" y="47" width="1" height="1" fill="#33ff33" />
<rect x="5" y="47" width="1" height="1" fill="#33ff33" />
<rect x="6" y="47" width="1" height="1" fill="#33ff33" />
<rect x="7" y="47" width="1" height="1" fill="#33ff33" />
<rect x="8" y="47" width="1" height="1" fill="#33ff33" />
<rect x="9" y="47" width="1" height="1" fill="#33ff33" />
<rect x="10" y="47" width="1" height="1" fill="#33ff33" />
<rect x="11" y="47" width="1" height="1" fill="#33ff33" />
<rect x="12" y="47" width="1" height="1" fill="#33ff33" />
<rect x="13" y="47" width="1" height="1" fill="#33ff33" />
<rect x="14" y="47" width="1" height="1" fill="#33ff33" />
<rect x="15" y="47" width="1" height="1" fill="#33ff33" />
<rect x="16" y="47" width="1" height="1" fill="#33ff33" />
<rect x="17" y="47" width="1" height="1" fill="#33ff33" />
<rect x="18" y="47" width="1" height="1" fill="#33ff33" />
<rect x="19" y="47" width="1" height="1" fill="#33ff33" />
<rect x="20" y="47" width="1" height="1" fill="#33ff33" />
<rect x="21" y="47" width="1" height="1" fill="#33ff33" />
<rect x="22" y="47" width="1" height="1" fill="#33ff33" />
<rect x="23" y="47" width="1" height="1" fill="#33ff33" />
<rect x="24" y="47" width="1" height="1" fill="#33ff33" />
<rect x="25" y="47" width="1" height="1" fill="#33ff33" />
<rect x="26" y="47" width="1" height="1" fill="#33ff33" />
<rect x="27" y="47" width="1" height="1" fill="#33ff33" />
<rect x="28" y="47" width="1" height="1" fill="#33ff33" />
<rect x="29" y="47" width="1" height="1" fill="#33ff33" />
<rect x="30" y="47" width="1" height="1" fill="#33ff33" />
<rect x="31" y="47" width="1" height="1" fill="#33ff33" />
<rect x="32" y="47" width="1" height="1" fill="#33ff33" />
<rect x="33" y="47" width="1" height="1" fill="#33ff33" />
<rect x="34" y="47" width="1" height="1" fill="#33ff33" />
<rect x="35" y="47" width="1" height="1" fill="#33ff33" />
<rect x="36" y="47" width="1" height="1" fill="#33ff33" />
<rect x="37" y="47" width="1" height="1" fill="#33ff33" />
<rect x="38" y="47" width="1" height="1" fill="#33ff33" />
<rect x="39" y="47" width="1" height="1" fill="#33ff33" />
<rect x="40" y="47" width="1" height="1" fill="#33ff33" />
<rect x="41" y="47" width="1" height="1" fill="#33ff33" />
<rect x="42" y="47" width="1" height="1" fill="#33ff33" />
<rect x="43" y="47" width="1" height="1" fill="#33ff33" />
<rect x="44" y="47" width="1" height="1" fill="#33ff33" />
<rect x="45" y="47" width="1" height="1" fill="#33ff33" />
<rect x="46" y="47" width="1" height="1" fill="#33ff33" />
</svg>