<?xml version="1.0" encoding="UTF-8" ?>
<svg version="1.1" width="48" height="48" xmlns="http://www.w3.org/2000/svg" shape-rendering="crispEdges">
<rect x="3" y="0" width="1" height="1" fill="#33ff33" />
<rect x="4" y="0" width="1" height="1" fill="#33ff33" />
<rect x="5" y="0" width="1" height="1" fill="#33ff33" />
<rect x="6" y="0" width="1" height="1" fill="#33ff33" />
<rect x="7" y="0" width="1" height="1" fill="#33ff33" />
<rect x="8" y="0" width="1" height="1" fill="#33ff33" />
<rect x="9" y="0" width="1" height="1" fill="#33ff33" />
<rect x="10" y="0" width="1" height="1" fill="#33ff33" />
<rect x="11" y="0" width="1" height="1" fill="#33ff33" />
<rect x="12" y="0" width="1" height="1" fill="#33ff33" />
<rect x="13" y="0" width="1" height="1" fill="#33ff33" />
<rect x="14" y="0" width="1" height="1" fill="#33ff33" />
<rect x="15" y="0" width="1" height="1" fill="#33ff33" />
<rect x="2" y="1" width="1" height="1" fill="#33ff33" />
<rect x="3" y="1" width="1" height="1" fill="#33ff33" />
<rect x="4" y="1" width="1" height="1" fill="#33ff33" />
<rect x="5" y="1" width="1" height="1" fill="#33ff33" />
<rect x="6" y="1" width="1" height="1" fill="#33ff33" />
<rect x="7" y="1" width="1" height="1" fill="#33ff33" />
<rect x="8" y="1" width="1" height="1" fill="#33ff33" />
<rect x="9" y="1" width="1" height="1" fill="#33ff33" />
<rect x="10" y="1" width="1" height="1" fill="#33ff33" />
<rect x="11" y="1" width="1" height="1" fill="#33ff33" />
<rect x="12" y="1" width="1" height="1" fill="#33ff33" />
<rect x="13" y="1" width="1" height="1" fill="#33ff33" />
<rect x="14" y="1" width="1" height="1" fill="#33ff33" />
<rect x="15" y="1" width="1" height="1" fill="#33ff33" />
<rect x="16" y="1" width="1" height="1" fill="#33ff33" />
<rect x="2" y="2" width="1" height="1" fill="#33ff33" />
<rect x="3" y="2" width="1" height="1" fill="#33ff33" />
<rect x="4" y="2" width="1" height="1" fill="#33ff33" />
<rect x="5" y="2" width="1" height="1" fill="#33ff33" />
<rect x="6" y="2" width="1" height="1" fill="#33ff33" />
<rect x="7" y="2" width="1" height="1" fill="#33ff33" />
<rect x="8" y="2" width="1" height="1" fill="#33ff33" />
<rect x="9" y="2" width="1" height="1" fill="#33ff33" />
<rect x="10" y="2" width="1" height="1" fill="#33ff33" />
<rect x="11" y="2" width="1" height="1" fill="#33ff33" />
<rect x="12" y="2" width="1" height="1" fill="#33ff33" />
<rect x="13" y="2" width="1" height="1" fill="#33ff33" />
<rect x="14" y="2" width="1" height="1" fill="#33ff33" />
<rect x="15" y="2" width="1" height="1" fill="#33ff33" />
<rect x="16" y="2" width="1" height="1" fill="#33ff33" />
<rect x="17" y="2" width="1" height="1" fill="#33ff33" />
<rect x="1" y="3" width="1" height="1" fill="#33ff33" />
<rect x="2" y="3" width="1" height="1" fill="#33ff33" />
<rect x="3" y="3" width="1" height="1" fill="#33ff33" />
<rect x="4" y="3" width="1" height="1" fill="#33ff33" />
<rect x="5" y="3" width="1" height="1" fill="#33ff33" />
<rect x="13" y="3" width="1" height="1" fill="#33ff33" />
<rect x="14" y="3" width="1" height="1" fill="#33ff33" />
<rect x="15" y="3" width="1" height="1" fill="#33ff33" />
<rect x="16" y="3" width="1" height="1" fill="#33ff33" />
<rect x="17" y="3" width="1" height="1" fill="#33ff33" />
<rect x="18" y="3" width="1" height="1" fill="#33ff33" />
<rect x="1" y="4" width="1" height="1" fill="#33ff33" />
<rect x="2" y="4" width="1" height="1" fill="#33ff33" />
<rect x="3" y="4" width="1" height="1" fill="#33ff33" />
<rect x="4" y="4" width="1" height="1" fill="#33ff33" />
<rect x="15" y="4" width="1" height="1" fill="#33ff33" />
<rect x="16" y="4" width="1" height="1" fill="#33ff33" />
<rect x="17" y="4" width="1" height="1" fill="#33ff33" />
<rect x="18" y="4" width="1" height="1" fill="#33ff33" />
<rect x="19" y="4" width="1" height="1" fill="#33ff33" />
<rect x="0" y="5" width="1" height="1" fill="#33ff33" />
<rect x="1" y="5" width="1" height="1" fill="#33ff33" />
<rect x="2" y="5" width="1" height="1" fill="#33ff33" />
<rect x="3" y="5" width="1" height="1" fill="#33ff33" />
<rect x="16" y="5" width="1" height="1" fill="#33ff33" />
<rect x="17" y="5" width="1" height="1" fill="#33ff33" />
<rect x="18" y="5" width="1" height="1" fill="#33ff33" />
<rect x="19" y="5" width="1" height="1" fill="#33ff33" />
<rect x="20" y="5" width="1" height="1" fill="#33ff33" />
<rect x="0" y="6" width="1" height="1" fill="#33ff33" />
<rect x="1" y="6" width="1" height="1" fill="#33ff33" />
<rect x="2" y="6" width="1" height="1" fill="#33ff33" />
<rect x="17" y="6" width="1" height="1" fill="#33ff33" />
<rect x="18" y="6" width="1" height="1" fill="#33ff33" />
<rect x="19" y="6" width="1" height="1" fill="#33ff33" />
<rect x="20" y="6" width="1" height="1" fill="#33ff33" />
<rect x="0" y="7" width="1" height="1" fill="#33ff33" />
<rect x="1" y="7" width="1" height="1" fill="#33ff33" />
<rect x="2" y="7" width="1" height="1" fill="#33ff33" />
<rect x="18" y="7" width="1" height="1" fill="#33ff33" />
<rect x="19" y="7" width="1" height="1" fill="#33ff33" />
<rect x="20" y="7" width="1" height="1" fill="#33ff33" />
<rect x="0" y="8" width="1" height="1" fill="#33ff33" />
<rect x="1" y="8" width="1" height="1" fill="#33ff33" />
<rect x="2" y="8" width="1" height="1" fill="#33ff33" />
<rect x="18" y="8" width="1" height="1" fill="#33ff33" />
<rect x="19" y="8" width="1" height="1" fill="#33ff33" />
<rect x="20" y="8" width="1" height="1" fill="#33ff33" />
<rect x="0" y="9" width="1" height="1" fill="#33ff33" />
<rect x="1" y="9" width="1" height="1" fill="#33ff33" />
<rect x="2" y="9" width="1" height="1" fill="#33ff33" />
<rect x="18" y="9" width="1" height="1" fill="#33ff33" />
<rect x="19" y="9" width="1" height="1" fill="#33ff33" />
<rect x="20" y="9" width="1" height="1" fill="#33ff33" />
<rect x="0" y="10" width="1" height="1" fill="#33ff33" />
<rect x="1" y="10" width="1" height="1" fill="#33ff33" />
<rect x="2" y="10" width="1" height="1" fill="#33ff33" />
<rect x="18" y="10" width="1" height="1" fill="#33ff33" />
<rect x="19" y="10" width="1" height="1" fill="#33ff33" />
<rect x="20" y="10" width="1" height="1" fill="#33ff33" />
<rect x="0" y="11" width="1" height="1" fill="#33ff33" />
<rect x="1" y="11" width="1" height="1" fill="#33ff33" />
<rect x="2" y="11" width="1" height="1" fill="#33ff33" />
<rect x="18" y="11" width="1" height="1" fill="#33ff33" />
<rect x="19" y="11" width="1" height="1" fill="#33ff33" />
<rect x="20" y="11" width="1" height="1" fill="#33ff33" />
<rect x="0" y="12" width="1" height="1" fill="#33ff33" />
<rect x="1" y="12" width="1" height="1" fill="#33ff33" />
<rect x="2" y="12" width="1" height="1" fill="#33ff33" />
<rect x="18" y="12" width="1" height="1" fill="#33ff33" />
<rect x="19" y="12" width="1" height="1" fill="#33ff33" />
<rect x="20" y="12" width="1" height="1" fill="#33ff33" />
<rect x="0" y="13" width="1" height="1" fill="#33ff33" />
<rect x="1" y="13" width="1" height="1" fill="#33ff33" />
<rect x="2" y="13" width="1" height="1" fill="#33ff33" />
<rect x="17" y="13" width="1" height="1" fill="#33ff33" />
<rect x="18" y="13" width="1" height="1" fill="#33ff33" />
<rect x="19" y="13" width="1" height="1" fill="#33ff33" />
<rect x="20" y="13" width="1" height="1" fill="#33ff33" />
<rect x="0" y="14" width="1" height="1" fill="#33ff33" />
<rect x="1" y="14" width="1" height="1" fill="#33ff33" />
<rect x="2" y="14" width="1" height="1" fill="#33ff33" />
<rect x="3" y="14" width="1" height="1" fill="#33ff33" />
<rect x="16" y="14" width="1" height="1" fill="#33ff33" />
<rect x="17" y="14" width="1" height="1" fill="#33ff33" />
<rect x="18" y="14" width="1" height="1" fill="#33ff33" />
<rect x="19" y="14" width="1" height="1" fill="#33ff33" />
<rect x="20" y="14" width="1" height="1" fill="#33ff33" />
<rect x="1" y="15" width="1" height="1" fill="#33ff33" />
<rect x="2" y="15" width="1" height="1" fill="#33ff33" />
<rect x="3" y="15" width="1" height="1" fill="#33ff33" />
<rect x="4" y="15" width="1" height="1" fill="#33ff33" />
<rect x="15" y="15" width="1" height="1" fill="#33ff33" />
<rect x="16" y="15" width="1" height="1" fill="#33ff33" />
<rect x="17" y="15" width="1" height="1" fill="#33ff33" />
<rect x="18" y="15" width="1" height="1" fill="#33ff33" />
<rect x="19" y="15" width="1" height="1" fill="#33ff33" />
<rect x="1" y="16" width="1" height="1" fill="#33ff33" />
<rect x="2" y="16" width="1" height="1" fill="#33ff33" />
<rect x="3" y="16" width="1" height="1" fill="#33ff33" />
<rect x="4" y="16" width="1" height="1" fill="#33ff33" />
<rect x="5" y="16" width="1" height="1" fill="#33ff33" />
<rect x="14" y="16" width="1" height="1" fill="#33ff33" />
<rect x="15" y="16" width="1" height="1" fill="#33ff33" />
<rect x="16" y="16" width="1" height="1" fill="#33ff33" />
<rect x="17" y="16" width="1" height="1" fill="#33ff33" />
<rect x="18" y="16" width="1" height="1" fill="#33ff33" />
<rect x="2" y="17" width="1" height="1" fill="#33ff33" />
<rect x="3" y="17" width="1" height="1" fill="#33ff33" />
<rect x="4" y="17" width="1" height="1" fill="#33ff33" />
<rect x="5" y="17" width="1" height="1" fill="#33ff33" />
<rect x="6" y="17" width="1" height="1" fill="#33ff33" />
<rect x="13" y="17" width="1" height="1" fill="#33ff33" />
<rect x="14" y="17" width="1" height="1" fill="#33ff33" />
<rect x="15" y="17" width="1" height="1" fill="#33ff33" />
<rect x="16" y="17" width="1" height="1" fill="#33ff33" />
<rect x="17" y="17" width="1" height="1" fill="#33ff33" />
<rect x="3" y="18" width="1" height="1" fill="#33ff33" />
<rect x="4" y="18" width="1" height="1" fill="#33ff33" />
<rect x="5" y="18" width="1" height="1" fill="#33ff33" />
<rect x="6" y="18" width="1" height="1" fill="#33ff33" />
<rect x="7" y="18" width="1" height="1" fill="#33ff33" />
<rect x="14" y="18" width="1" height="1" fill="#33ff33" />
<rect x="15" y="18" width="1" height="1" fill="#33ff33" />
<rect x="16" y="18" width="1" height="1" fill="#33ff33" />
<rect x="17" y="18" width="1" height="1" fill="#33ff33" />
<rect x="18" y="18" width="1" height="1" fill="#33ff33" />
<rect x="4" y="19" width="1" height="1" fill="#33ff33" />
<rect x="5" y="19" width="1" height="1" fill="#33ff33" />
<rect x="6" y="19" width="1" height="1" fill="#33ff33" />
<rect x="7" y="19" width="1" height="1" fill="#33ff33" />
<rect x="8" y="19" width="1" height="1" fill="#33ff33" />
<rect x="15" y="19" width="1" height="1" fill="#33ff33" />
<rect x="16" y="19" width="1" height="1" fill="#33ff33" />
<rect x="17" y="19" width="1" height="1" fill="#33ff33" />
<rect x="18" y="19" width="1" height="1" fill="#33ff33" />
<rect x="19" y="19" width="1" height="1" fill="#33ff33" />
<rect x="5" y="20" width="1" height="1" fill="#33ff33" />
<rect x="6" y="20" width="1" height="1" fill="#33ff33" />
<rect x="7" y="20" width="1" height="1" fill="#33ff33" />
<rect x="8" y="20" width="1" height="1" fill="#33ff33" />
<rect x="9" y="20" width="1" height="1" fill="#33ff33" />
<rect x="16" y="20" width="1" height="1" fill="#33ff33" />
<rect x="17" y="20" width="1" height="1" fill="#33ff33" />
<rect x="18" y="20" width="1" height="1" fill="#33ff33" />
<rect x="19" y="20" width="1" height="1" fill="#33ff33" />
<rect x="20" y="20" width="1" height="1" fill="#33ff33" />
<rect x="6" y="21" width="1" height="1" fill="#33ff33" />
<rect x="7" y="21" width="1" height="1" fill="#33ff33" />
<rect x="8" y="21" width="1" height="1" fill="#33ff33" />
<rect x="9" y="21" width="1" height="1" fill="#33ff33" />
<rect x="10" y="21" width="1" height="1" fill="#33ff33" />
<rect x="17" y="21" width="1" height="1" fill="#33ff33" />
<rect x="18" y="21" width="1" height="1" fill="#33ff33" />
<rect x="19" y="21" width="1" height="1" fill="#33ff33" />
<rect x="20" y="21" width="1" height="1" fill="#33ff33" />
<rect x="21" y="21" width="1" height="1" fill="#33ff33" />
<rect x="7" y="22" width="1" height="1" fill="#33ff33" />
<rect x="8" y="22" width="1" height="1" fill="#33ff33" />
<rect x="9" y="22" width="1" height="1" fill="#33ff33" />
<rect x="10" y="22" width="1" height="1" fill="#33ff33" />
<rect x="11" y="22" width="1" height="1" fill="#33ff33" />
<rect x="18" y="22" width="1" height="1" fill="#33ff33" />
<rect x="19" y="22" width="1" height="1" fill="#33ff33" />
<rect x="20" y="22" width="1" height="1" fill="#33ff33" />
<rect x="21" y="22" width="1" height="1" fill="#33ff33" />
<rect x="22" y="22" width="1" height="1" fill="#33ff33" />
<rect x="8" y="23" width="1" height="1" fill="#33ff33" />
<rect x="9" y="23" width="1" height="1" fill="#33ff33" />
<rect x="10" y="23" width="1" height="1" fill="#33ff33" />
<rect x="11" y="23" width="1" height="1" fill="#33ff33" />
<rect x="12" y="23" width="1" height="1" fill="#33ff33" />
<rect x="19" y="23" width="1" height="1" fill="#33ff33" />
<rect x="20" y="23" width="1" height="1" fill="#33ff33" />
<rect x="21" y="23" width="1" height="1" fill="#33ff33" />
<rect x="22" y="23" width="1" height="1" fill="#33ff33" />
<rect x="23" y="23" width="1" height="1" fill="#33ff33" />
<rect x="9" y="24" width="1" height="1" fill="#33ff33" />
<rect x="10" y="24" width="1" height="1" fill="#33ff33" />
<rect x="11" y="24" width="1" height="1" fill="#33ff33" />
<rect x="12" y="24" width="1" height="1" fill="#33ff33" />
<rect x="13" y="24" width="1" height="1" fill="#33ff33" />
<rect x="20" y="24" width="1" height="1" fill="#33ff33" />
<rect x="21" y="24" width="1" height="1" fill="#33ff33" />
<rect x="22" y="24" width="1" height="1" fill="#33ff33" />
<rect x="23" y="24" width="1" height="1" fill="#33ff33" />
<rect x="24" y="24" width="1" height="1" fill="#33ff33" />
<rect x="10" y="25" width="1" height="1" fill="#33ff33" />
<rect x="11" y="25" width="1" height="1" fill="#33ff33" />
<rect x="12" y="25" width="1" height="1" fill="#33ff33" />
<rect x="13" y="25" width="1" height="1" fill="#33ff33" />
<rect x="14" y="25" width="1" height="1" fill="#33ff33" />
<rect x="21" y="25" width="1" height="1" fill="#33ff33" />
<rect x="22" y="25" width="1" height="1" fill="#33ff33" />
<rect x="23" y="25" width="1" height="1" fill="#33ff33" />
<rect x="24" y="25" width="1" height="1" fill="#33ff33" />
<rect x="25" y="25" width="1" height="1" fill="#33ff33" />
<rect x="11" y="26" width="1" height="1" fill="#33ff33" />
<rect x="12" y="26" width="1" height="1" fill="#33ff33" />
<rect x="13" y="26" width="1" height="1" fill="#33ff33" />
<rect x="14" y="26" width="1" height="1" fill="#33ff33" />
<rect x="15" y="26" width="1" height="1" fill="#33ff33" />
<rect x="22" y="26" width="1" height="1" fill="#33ff33" />
<rect x="23" y="26" width="1" height="1" fill="#33ff33" />
<rect x="24" y="26" width="1" height="1" fill="#33ff33" />
<rect x="25" y="26" width="1" height="1" fill="#33ff33" />
<rect x="26" y="26" width="1" height="1" fill="#33ff33" />
<rect x="12" y="27" width="1" height="1" fill="#33ff33" />
<rect x="13" y="27" width="1" height="1" fill="#33ff33" />
<rect x="14" y="27" width="1" height="1" fill="#33ff33" />
<rect x="15" y="27" width="1" height="1" fill="#33ff33" />
<rect x="16" y="27" width="1" height="1" fill="#33ff33" />
<rect x="23" y="27" width="1" height="1" fill="#33ff33" />
<rect x="24" y="27" width="1" height="1" fill="#33ff33" />
<rect x="25" y="27" width="1" height="1" fill="#33ff33" />
<rect x="26" y="27" width="1" height="1" fill="#33ff33" />
<rect x="27" y="27" width="1" height="1" fill="#33ff33" />
<rect x="33" y="27" width="1" height="1" fill="#33ff33" />
<rect x="34" y="27" width="1" height="1" fill="#33ff33" />
<rect x="35" y="27" width="1" height="1" fill="#33ff33" />
<rect x="36" y="27" width="1" height="1" fill="#33ff33" />
<rect x="37" y="27" width="1" height="1" fill="#33ff33" />
<rect x="38" y="27" width="1" height="1" fill="#33ff33" />
<rect x="39" y="27" width="1" height="1" fill="#33ff33" />
<rect x="40" y="27" width="1" height="1" fill="#33ff33" />
<rect x="41" y="27" width="1" height="1" fill="#33ff33" />
<rect x="42" y="27" width="1" height="1" fill="#33ff33" />
<rect x="13" y="28" width="1" height="1" fill="#33ff33" />
<rect x="14" y="28" width="1" height="1" fill="#33ff33" />
<rect x="15" y="28" width="1" height="1" fill="#33ff33" />
<rect x="16" y="28" width="1" height="1" fill="#33ff33" />
<rect x="17" y="28" width="1" height="1" fill="#33ff33" />
<rect x="24" y="28" width="1" height="1" fill="#33ff33" />
<rect x="25" y="28" width="1" height="1" fill="#33ff33" />
<rect x="26" y="28" width="1" height="1" fill="#33ff33" />
<rect x="27" y="28" width="1" height="1" fill="#33ff33" />
<rect x="28" y="28" width="1" height="1" fill="#33ff33" />
<rect x="32" y="28" width="1" height="1" fill="#33ff33" />
<rect x="33" y="28" width="1" height="1" fill="#33ff33" />
<rect x="34" y="28" width="1" height="1" fill="#33ff33" />
<rect x="35" y="28" width="1" height="1" fill="#33ff33" />
<rect x="36" y="28" width="1" height="1" fill="#33ff33" />
<rect x="37" y="28" width="1" height="1" fill="#33ff33" />
<rect x="38" y="28" width="1" height="1" fill="#33ff33" />
<rect x="39" y="28" width="1" height="1" fill="#33ff33" />
<rect x="40" y="28" width="1" height="1" fill="#33ff33" />
<rect x="41" y="28" width="1" height="1" fill="#33ff33" />
<rect x="42" y="28" width="1" height="1" fill="#33ff33" />
<rect x="43" y="28" width="1" height="1" fill="#33ff33" />
<rect x="14" y="29" width="1" height="1" fill="#33ff33" />
<rect x="15" y="29" width="1" height="1" fill="#33ff33" />
<rect x="16" y="29" width="1" height="1" fill="#33ff33" />
<rect x="17" y="29" width="1" height="1" fill="#33ff33" />
<rect x="18" y="29" width="1" height="1" fill="#33ff33" />
<rect x="25" y="29" width="1" height="1" fill="#33ff33" />
<rect x="26" y="29" width="1" height="1" fill="#33ff33" />
<rect x="27" y="29" width="1" height="1" fill="#33ff33" />
<rect x="28" y="29" width="1" height="1" fill="#33ff33" />
<rect x="29" y="29" width="1" height="1" fill="#33ff33" />
<rect x="31" y="29" width="1" height="1" fill="#33ff33" />
<rect x="32" y="29" width="1" height="1" fill="#33ff33" />
<rect x="33" y="29" width="1" height="1" fill="#33ff33" />
<rect x="34" y="29" width="1" height="1" fill="#33ff33" />
<rect x="35" y="29" width="1" height="1" fill="#33ff33" />
<rect x="36" y="29" width="1" height="1" fill="#33ff33" />
<rect x="37" y="29" width="1" height="1" fill="#33ff33" />
<rect x="38" y="29" width="1" height="1" fill="#33ff33" />
<rect x="39" y="29" width="1" height="1" fill="#33ff33" />
<rect x="40" y="29" width="1" height="1" fill="#33ff33" />
<rect x="41" y="29" width="1" height="1" fill="#33ff33" />
<rect x="42" y="29" width="1" height="1" fill="#33ff33" />
<rect x="43" y="29" width="1" height="1" fill="#33ff33" />
<rect x="44" y="29" width="1" height="1" fill="#33ff33" />
<rect x="15" y="30" width="1" height="1" fill="#33ff33" />
<rect x="16" y="30" width="1" height="1" fill="#33ff33" />
<rect x="17" y="30" width="1" height="1" fill="#33ff33" />
<rect x="18" y="30" width="1" height="1" fill="#33ff33" />
<rect x="19" y="30" width="1" height="1" fill="#33ff33" />
<rect x="26" y="30" width="1" height="1" fill="#33ff33" />
<rect x="27" y="30" width="1" height="1" fill="#33ff33" />
<rect x="28" y="30" width="1" height="1" fill="#33ff33" />
<rect x="29" y="30" width="1" height="1" fill="#33ff33" />
<rect x="30" y="30" width="1" height="1" fill="#33ff33" />
<rect x="31" y="30" width="1" height="1" fill="#33ff33" />
<rect x="32" y="30" width="1" height="1" fill="#33ff33" />
<rect x="33" y="30" width="1" height="1" fill="#33ff33" />
<rect x="34" y="30" width="1" height="1" fill="#33ff33" />
<rect x="41" y="30" width="1" height="1" fill="#33ff33" />
<rect x="42" y="30" width="1" height="1" fill="#33ff33" />
<rect x="43" y="30" width="1" height="1" fill="#33ff33" />
<rect x="44" y="30" width="1" height="1" fill="#33ff33" />
<rect x="45" y="30" width="1" height="1" fill="#33ff33" />
<rect x="16" y="31" width="1" height="1" fill="#33ff33" />
<rect x="17" y="31" width="1" height="1" fill="#33ff33" />
<rect x="18" y="31" width="1" height="1" fill="#33ff33" />
<rect x="19" y="31" width="1" height="1" fill="#33ff33" />
<rect x="20" y="31" width="1" height="1" fill="#33ff33" />
<rect x="27" y="31" width="1" height="1" fill="#33ff33" />
<rect x="28" y="31" width="1" height="1" fill="#33ff33" />
<rect x="29" y="31" width="1" height="1" fill="#33ff33" />
<rect x="30" y="31" width="1" height="1" fill="#33ff33" />
<rect x="31" y="31" width="1" height="1" fill="#33ff33" />
<rect x="32" y="31" width="1" height="1" fill="#33ff33" />
<rect x="33" y="31" width="1" height="1" fill="#33ff33" />
<rect x="42" y="31" width="1" height="1" fill="#33ff33" />
<rect x="43" y="31" width="1" height="1" fill="#33ff33" />
<rect x="44" y="31" width="1" height="1" fill="#33ff33" />
<rect x="45" y="31" width="1" height="1" fill="#33ff33" />
<rect x="46" y="31" width="1" height="1" fill="#33ff33" />
<rect x="17" y="32" width="1" height="1" fill="#33ff33" />
<rect x="18" y="32" width="1" height="1" fill="#33ff33" />
<rect x="19" y="32" width="1" height="1" fill="#33ff33" />
<rect x="20" y="32" width="1" height="1" fill="#33ff33" />
<rect x="21" y="32" width="1" height="1" fill="#33ff33" />
<rect x="28" y="32" width="1" height="1" fill="#33ff33" />
<rect x="29" y="32" width="1" height="1" fill="#33ff33" />
<rect x="30" y="32" width="1" height="1" fill="#33ff33" />
<rect x="31" y="32" width="1" height="1" fill="#33ff33" />
<rect x="32" y="32" width="1" height="1" fill="#33ff33" />
<rect x="43" y="32" width="1" height="1" fill="#33ff33" />
<rect x="44" y="32" width="1" height="1" fill="#33ff33" />
<rect x="45" y="32" width="1" height="1" fill="#33ff33" />
<rect x="46" y="32" width="1" height="1" fill="#33ff33" />
<rect x="47" y="32" width="1" height="1" fill="#33ff33" />
<rect x="18" y="33" width="1" height="1" fill="#33ff33" />
<rect x="19" y="33" width="1" height="1" fill="#33ff33" />
<rect x="20" y="33" width="1" height="1" fill="#33ff33" />
<rect x="21" y="33" width="1" height="1" fill="#33ff33" />
<rect x="22" y="33" width="1" height="1" fill="#33ff33" />
<rect x="29" y="33" width="1" height="1" fill="#33ff33" />
<rect x="30" y="33" width="1" height="1" fill="#33ff33" />
<rect x="31" y="33" width="1" height="1" fill="#33ff33" />
<rect x="44" y="33" width="1" height="1" fill="#33ff33" />
<rect x="45" y="33" width="1" height="1" fill="#33ff33" />
<rect x="46" y="33" width="1" height="1" fill="#33ff33" />
<rect x="47" y="33" width="1" height="1" fill="#33ff33" />
<rect x="19" y="34" width="1" height="1" fill="#33ff33" />
<rect x="20" y="34" width="1" height="1" fill="#33ff33" />
<rect x="21" y="34" width="1" height="1" fill="#33ff33" />
<rect x="22" y="34" width="1" height="1" fill="#33ff33" />
<rect x="23" y="34" width="1" height="1" fill="#33ff33" />
<rect x="30" y="34" width="1" height="1" fill="#33ff33" />
<rect x="44" y="34" width="1" height="1" fill="#33ff33" />
<rect x="45" y="34" width="1" height="1" fill="#33ff33" />
<rect x="46" y="34" width="1" height="1" fill="#33ff33" />
<rect x="47" y="34" width="1" height="1" fill="#33ff33" />
<rect x="20" y="35" width="1" height="1" fill="#33ff33" />
<rect x="21" y="35" width="1" height="1" fill="#33ff33" />
<rect x="22" y="35" width="1" height="1" fill="#33ff33" />
<rect x="23" y="35" width="1" height="1" fill="#33ff33" />
<rect x="24" y="35" width="1" height="1" fill="#33ff33" />
<rect x="45" y="35" width="1" height="1" fill="#33ff33" />
<rect x="46" y="35" width="1" height="1" fill="#33ff33" />
<rect x="47" y="35" width="1" height="1" fill="#33ff33" />
<rect x="21" y="36" width="1" height="1" fill="#33ff33" />
<rect x="22" y="36" width="1" height="1" fill="#33ff33" />
<rect x="23" y="36" width="1" height="1" fill="#33ff33" />
<rect x="24" y="36" width="1" height="1" fill="#33ff33" />
<rect x="25" y="36" width="1" height="1" fill="#33ff33" />
<rect x="45" y="36" width="1" height="1" fill="#33ff33" />
<rect x="46" y="36" width="1" height="1" fill="#33ff33" />
<rect x="47" y="36" width="1" height="1" fill="#33ff33" />
<rect x="22" y="37" width="1" height="1" fill="#33ff33" />
<rect x="23" y="37" width="1" height="1" fill="#33ff33" />
<rect x="24" y="37" width="1" height="1" fill="#33ff33" />
<rect x="25" y="37" width="1" height="1" fill="#33ff33" />
<rect x="26" y="37" width="1" height="1" fill="#33ff33" />
<rect x="45" y="37" width="1" height="1" fill="#33ff33" />
<rect x="46" y="37" width="1" height="1" fill="#33ff33" />
<rect x="47" y="37" width="1" height="1" fill="#33ff33" />
<rect x="23" y="38" width="1" height="1" fill="#33ff33" />
<rect x="24" y="38" width="1" height="1" fill="#33ff33" />
<rect x="25" y="38" width="1" height="1" fill="#33ff33" />
<rect x="26" y="38" width="1" height="1" fill="#33ff33" />
<rect x="27" y="38" width="1" height="1" fill="#33ff33" />
<rect x="45" y="38" width="1" height="1" fill="#33ff33" />
<rect x="46" y="38" width="1" height="1" fill="#33ff33" />
<rect x="47" y="38" width="1" height="1" fill="#33ff33" />
<rect x="24" y="39" width="1" height="1" fill="#33ff33" />
<rect x="25" y="39" width="1" height="1" fill="#33ff33" />
<rect x="26" y="39" width="1" height="1" fill="#33ff33" />
<rect x="27" y="39" width="1" height="1" fill="#33ff33" />
<rect x="28" y="39" width="1" height="1" fill="#33ff33" />
<rect x="45" y="39" width="1" height="1" fill="#33ff33" />
<rect x="46" y="39" width="1" height="1" fill="#33ff33" />
<rect x="47" y="39" width="1" height="1" fill="#33ff33" />
<rect x="25" y="40" width="1" height="1" fill="#33ff33" />
<rect x="26" y="40" width="1" height="1" fill="#33ff33" />
<rect x="27" y="40" width="1" height="1" fill="#33ff33" />
<rect x="28" y="40" width="1" height="1" fill="#33ff33" />
<rect x="29" y="40" width="1" height="1" fill="#33ff33" />
<rect x="45" y="40" width="1" height="1" fill="#33ff33" />
<rect x="46" y="40" width="1" height="1" fill="#33ff33" />
<rect x="47" y="40" width="1" height="1" fill="#33ff33" />
<rect x="26" y="41" width="1" height="1" fill="#33ff33" />
<rect x="27" y="41" width="1" height="1" fill="#33ff33" />
<rect x="28" y="41" width="1" height="1" fill="#33ff33" />
<rect x="29" y="41" width="1" height="1" fill="#33ff33" />
<rect x="30" y="41" width="1" height="1" fill="#33ff33" />
<rect x="45" y="41" width="1" height="1" fill="#33ff33" />
<rect x="46" y="41" width="1" height="1" fill="#33ff33" />
<rect x="47" y="41" width="1" height="1" fill="#33ff33" />
<rect x="27" y="42" width="1" height="1" fill="#33ff33" />
<rect x="28" y="42" width="1" height="1" fill="#33ff33" />
<rect x="29" y="42" width="1" height="1" fill="#33ff33" />
<rect x="30" y="42" width="1" height="1" fill="#33ff33" />
<rect x="31" y="42" width="1" height="1" fill="#33ff33" />
<rect x="44" y="42" width="1" height="1" fill="#33ff33" />
<rect x="45" y="42" width="1" height="1" fill="#33ff33" />
<rect x="46" y="42" width="1" height="1" fill="#33ff33" />
<rect x="47" y="42" width="1" height="1" fill="#33ff33" />
<rect x="28" y="43" width="1" height="1" fill="#33ff33" />
<rect x="29" y="43" width="1" height="1" fill="#33ff33" />
<rect x="30" y="43" width="1" height="1" fill="#33ff33" />
<rect x="31" y="43" width="1" height="1" fill="#33ff33" />
<rect x="32" y="43" width="1" height="1" fill="#33ff33" />
<rect x="43" y="43" width="1" height="1" fill="#33ff33" />
<rect x="44" y="43" width="1" height="1" fill="#33ff33" />
<rect x="45" y="43" width="1" height="1" fill="#33ff33" />
<rect x="46" y="43" width="1" height="1" fill="#33ff33" />
<rect x="47" y="43" width="1" height="1" fill="#33ff33" />
<rect x="29" y="44" width="1" height="1" fill="#33ff33" />
<rect x="30" y="44" width="1" height="1" fill="#33ff33" />
<rect x="31" y="44" width="1" height="1" fill="#33ff33" />
<rect x="32" y="44" width="1" height="1" fill="#33ff33" />
<rect x="33" y="44" width="1" height="1" fill="#33ff33" />
<rect x="42" y="44" width="1" height="1" fill="#33ff33" />
<rect x="43" y="44" width="1" height="1" fill="#33ff33" />
<rect x="44" y="44" width="1" height="1" fill="#33ff33" />
<rect x="45" y="44" width="1" height="1" fill="#33ff33" />
<rect x="46" y="44" width="1" height="1" fill="#33ff33" />
<rect x="47" y="44" width="1" height="1" fill="#33ff33" />
<rect x="30" y="45" width="1" height="1" fill="#33ff33" />
<rect x="31" y="45" width="1" height="1" fill="#33ff33" />
<rect x="32" y="45" width="1" height="1" fill="#33ff33" />
<rect x="33" y="45" width="1" height="1" fill="#33ff33" />
<rect x="34" y="45" width="1" height="1" fill="#33ff33" />
<rect x="35" y="45" width="1" height="1" fill="#33ff33" />
<rect x="36" y="45" width="1" height="1" fill="#33ff33" />
<rect x="37" y="45" width="1" height="1" fill="#33ff33" />
<rect x="38" y="45" width="1" height="1" fill="#33ff33" />
<rect x="39" y="45" width="1" height="1" fill="#33ff33" />
<rect x="40" y="45" width="1" height="1" fill="#33ff33" />
<rect x="41" y="45" width="1" height="1" fill="#33ff33" />
<rect x="42" y="45" width="1" height="1" fill="#33ff33" />
<rect x="43" y="45" width="1" height="1" fill="#33ff33" />
<rect x="44" y="45" width="1" height="1" fill="#33ff33" />
<rect x="45" y="45" width="1" height="1" fill="#33ff33" />
<rect x="46" y="45" width="1" height="1" fill="#33ff33" />
<rect x="31" y="46" width="1" height="1" fill="#33ff33" />
<rect x="32" y="46" width="1" height="1" fill="#33ff33" />
<rect x="33" y="46" width="1" height="1" fill="#33ff33" />
<rect x="34" y="46" width="1" height="1" fill="#33ff33" />
<rect x="35" y="46" width="1" height="1" fill="#33ff33" />
<rect x="36" y="46" width="1" height="1" fill="#33ff33" />
<rect x="37" y="46" width="1" height="1" fill="#33ff33" />
<rect x="38" y="46" width="1" height="1" fill="#33ff33" />
<rect x="39" y="46" width="1" height="1" fill="#33ff33" />
<rect x="40" y="46" width="1" height="1" fill="#33ff33" />
<rect x="41" y="46" width="1" height="1" fill="#33ff33" />
<rect x="42" y="46" width="1" height="1" fill="#33ff33" />
<rect x="43" y="46" width="1" height="1" fill="#33ff33" />
<rect x="44" y="46" width="1" height="1" fill="#33ff33" />
<rect x="45" y="46" width="1" height="1" fill="#33ff33" />
<rect x="32" y="47" width="1" height="1" fill="#33ff33" />
<rect x="33" y="47" width="1" height="1" fill="#33ff33" />
<rect x="34" y="47" width="1" height="1" fill="#33ff33" />
<rect x="35" y="47" width="1" height="1" fill="#33ff33" />
<rect x="36" y="47" width="1" height="1" fill="#33ff33" />
<rect x="37" y="47" width="1" height="1" fill="#33ff33" />
<rect x="38" y="47" width="1" height="1" fill="#33ff33" />
<rect x="39" y="47" width="1" height="1" fill="#33ff33" />
<rect x="40" y="47" width="1" height="1" fill="#33ff33" />
<rect x="41" y="47" width="1" height="1" fill="#33ff33" />
<rect x="42" y="47" width="1" height="1" fill="#33ff33" />
<rect x="43" y="47" width="1" height="1" fill="#33ff33" />
<rect x="44" y="47" width="1" height="1" fill="#33ff33" />
</svg>