<?xml version="1.0" encoding="UTF-8" ?>
<svg version="1.1" width="48" height="48" xmlns="http://www.w3.org/2000/svg" shape-rendering="crispEdges">
<rect x="1" y="4" width="46" height="3" fill="#33ff33" />
<rect x="0" y="6" width="1" height="36" fill="#33ff33" />
<rect x="47" y="6" width="1" height="36" fill="#33ff33" />
<rect x="1" y="7" width="4" height="4" fill="#33ff33" />
<rect x="43" y="7" width="4" height="4" fill="#33ff33" />
<rect x="5" y="8" width="1" height="5" fill="#33ff33" />
<rect x="42" y="8" width="1" height="5" fill="#33ff33" />
<rect x="6" y="9" width="1" height="5" fill="#33ff33" />
<rect x="41" y="9" width="1" height="5" fill="#33ff33" />
<rect x="7" y="10" width="1" height="5" fill="#33ff33" />
<rect x="40" y="10" width="1" height="5" fill="#33ff33" />
<rect x="1" y="11" width="2" height="33" fill="#33ff33" />
<rect x="4" y="11" width="1" height="1" fill="#33ff33" />
<rect x="8" y="11" width="1" height="5" fill="#33ff33" />
<rect x="39" y="11" width="1" height="5" fill="#33ff33" />
<rect x="43" y="11" width="1" height="1" fill="#33ff33" />
<rect x="45" y="11" width="2" height="33" fill="#33ff33" />
<rect x="9" y="12" width="1" height="5" fill="#33ff33" />
<rect x="38" y="12" width="1" height="5" fill="#33ff33" />
<rect x="10" y="13" width="1" height="5" fill="#33ff33" />
<rect x="37" y="13" width="1" height="5" fill="#33ff33" />
<rect x="11" y="14" width="1" height="5" fill="#33ff33" />
<rect x="36" y="14" width="1" height="5" fill="#33ff33" />
<rect x="12" y="15" width="1" height="5" fill="#33ff33" />
<rect x="35" y="15" width="1" height="5" fill="#33ff33" />
<rect x="13" y="16" width="1" height="5" fill="#33ff33" />
<rect x="34" y="16" width="1" height="5" fill="#33ff33" />
<rect x="14" y="17" width="1" height="5" fill="#33ff33" />
<rect x="33" y="17" width="1" height="5" fill="#33ff33" />
<rect x="15" y="18" width="1" height="5" fill="#33ff33" />
<rect x="32" y="18" width="1" height="5" fill="#33ff33" />
<rect x="16" y="19" width="1" height="5" fill="#33ff33" />
<rect x="31" y="19" width="1" height="5" fill="#33ff33" />
<rect x="17" y="20" width="1" height="5" fill="#33ff33" />
<rect x="30" y="20" width="1" height="5" fill="#33ff33" />
<rect x="18" y="21" width="1" height="5" fill="#33ff33" />
<rect x="29" y="21" width="1" height="5" fill="#33ff33" />
<rect x="19" y="22" width="1" height="5" fill="#33ff33" />
<rect x="28" y="22" width="1" height="5" fill="#33ff33" />
<rect x="20" y="23" width="1" height="5" fill="#33ff33" />
<rect x="27" y="23" width="1" height="5" fill="#33ff33" />
<rect x="21" y="24" width="1" height="5" fill="#33ff33" />
<rect x="26" y="24" width="1" height="5" fill="#33ff33" />
<rect x="22" y="25" width="1" height="5" fill="#33ff33" />
<rect x="25" y="25" width="1" height="5" fill="#33ff33" />
<rect x="23" y="26" width="2" height="5" fill="#33ff33" />
<rect x="3" y="41" width="42" height="3" fill="#33ff33" />
</svg>