<?xml version="1.0" encoding="UTF-8" ?>
<svg version="1.1" width="48" height="48" xmlns="http://www.w3.org/2000/svg" shape-rendering="crispEdges">
<rect x="22" y="0" width="1" height="1" fill="#000000" />
<rect x="23" y="0" width="1" height="1" fill="#000000" />
<rect x="24" y="0" width="1" height="1" fill="#000000" />
<rect x="25" y="0" width="1" height="1" fill="#000000" />
<rect x="21" y="1" width="1" height="1" fill="#000000" />
<rect x="22" y="1" width="1" height="1" fill="#000000" />
<rect x="23" y="1" width="1" height="1" fill="#000000" />
<rect x="24" y="1" width="1" height="1" fill="#000000" />
<rect x="25" y="1" width="1" height="1" fill="#000000" />
<rect x="26" y="1" width="1" height="1" fill="#000000" />
<rect x="20" y="2" width="1" height="1" fill="#000000" />
<rect x="21" y="2" width="1" height="1" fill="#000000" />
<rect x="22" y="2" width="1" height="1" fill="#000000" />
<rect x="23" y="2" width="1" height="1" fill="#000000" />
<rect x="24" y="2" width="1" height="1" fill="#000000" />
<rect x="25" y="2" width="1" height="1" fill="#000000" />
<rect x="26" y="2" width="1" height="1" fill="#000000" />
<rect x="27" y="2" width="1" height="1" fill="#000000" />
<rect x="19" y="3" width="1" height="1" fill="#000000" />
<rect x="20" y="3" width="1" height="1" fill="#000000" />
<rect x="21" y="3" width="1" height="1" fill="#000000" />
<rect x="22" y="3" width="1" height="1" fill="#000000" />
<rect x="23" y="3" width="1" height="1" fill="#000000" />
<rect x="24" y="3" width="1" height="1" fill="#000000" />
<rect x="25" y="3" width="1" height="1" fill="#000000" />
<rect x="26" y="3" width="1" height="1" fill="#000000" />
<rect x="27" y="3" width="1" height="1" fill="#000000" />
<rect x="28" y="3" width="1" height="1" fill="#000000" />
<rect x="18" y="4" width="1" height="1" fill="#000000" />
<rect x="19" y="4" width="1" height="1" fill="#000000" />
<rect x="20" y="4" width="1" height="1" fill="#000000" />
<rect x="21" y="4" width="1" height="1" fill="#000000" />
<rect x="22" y="4" width="1" height="1" fill="#000000" />
<rect x="25" y="4" width="1" height="1" fill="#000000" />
<rect x="26" y="4" width="1" height="1" fill="#000000" />
<rect x="27" y="4" width="1" height="1" fill="#000000" />
<rect x="28" y="4" width="1" height="1" fill="#000000" />
<rect x="29" y="4" width="1" height="1" fill="#000000" />
<rect x="35" y="4" width="1" height="1" fill="#000000" />
<rect x="36" y="4" width="1" height="1" fill="#000000" />
<rect x="37" y="4" width="1" height="1" fill="#000000" />
<rect x="38" y="4" width="1" height="1" fill="#000000" />
<rect x="39" y="4" width="1" height="1" fill="#000000" />
<rect x="40" y="4" width="1" height="1" fill="#000000" />
<rect x="41" y="4" width="1" height="1" fill="#000000" />
<rect x="42" y="4" width="1" height="1" fill="#000000" />
<rect x="17" y="5" width="1" height="1" fill="#000000" />
<rect x="18" y="5" width="1" height="1" fill="#000000" />
<rect x="19" y="5" width="1" height="1" fill="#000000" />
<rect x="20" y="5" width="1" height="1" fill="#000000" />
<rect x="21" y="5" width="1" height="1" fill="#000000" />
<rect x="26" y="5" width="1" height="1" fill="#000000" />
<rect x="27" y="5" width="1" height="1" fill="#000000" />
<rect x="28" y="5" width="1" height="1" fill="#000000" />
<rect x="29" y="5" width="1" height="1" fill="#000000" />
<rect x="30" y="5" width="1" height="1" fill="#000000" />
<rect x="35" y="5" width="1" height="1" fill="#000000" />
<rect x="36" y="5" width="1" height="1" fill="#000000" />
<rect x="37" y="5" width="1" height="1" fill="#000000" />
<rect x="38" y="5" width="1" height="1" fill="#000000" />
<rect x="39" y="5" width="1" height="1" fill="#000000" />
<rect x="40" y="5" width="1" height="1" fill="#000000" />
<rect x="41" y="5" width="1" height="1" fill="#000000" />
<rect x="42" y="5" width="1" height="1" fill="#000000" />
<rect x="16" y="6" width="1" height="1" fill="#000000" />
<rect x="17" y="6" width="1" height="1" fill="#000000" />
<rect x="18" y="6" width="1" height="1" fill="#000000" />
<rect x="19" y="6" width="1" height="1" fill="#000000" />
<rect x="20" y="6" width="1" height="1" fill="#000000" />
<rect x="27" y="6" width="1" height="1" fill="#000000" />
<rect x="28" y="6" width="1" height="1" fill="#000000" />
<rect x="29" y="6" width="1" height="1" fill="#000000" />
<rect x="30" y="6" width="1" height="1" fill="#000000" />
<rect x="31" y="6" width="1" height="1" fill="#000000" />
<rect x="35" y="6" width="1" height="1" fill="#000000" />
<rect x="36" y="6" width="1" height="1" fill="#000000" />
<rect x="37" y="6" width="1" height="1" fill="#000000" />
<rect x="38" y="6" width="1" height="1" fill="#000000" />
<rect x="39" y="6" width="1" height="1" fill="#000000" />
<rect x="40" y="6" width="1" height="1" fill="#000000" />
<rect x="41" y="6" width="1" height="1" fill="#000000" />
<rect x="42" y="6" width="1" height="1" fill="#000000" />
<rect x="15" y="7" width="1" height="1" fill="#000000" />
<rect x="16" y="7" width="1" height="1" fill="#000000" />
<rect x="17" y="7" width="1" height="1" fill="#000000" />
<rect x="18" y="7" width="1" height="1" fill="#000000" />
<rect x="19" y="7" width="1" height="1" fill="#000000" />
<rect x="28" y="7" width="1" height="1" fill="#000000" />
<rect x="29" y="7" width="1" height="1" fill="#000000" />
<rect x="30" y="7" width="1" height="1" fill="#000000" />
<rect x="31" y="7" width="1" height="1" fill="#000000" />
<rect x="32" y="7" width="1" height="1" fill="#000000" />
<rect x="35" y="7" width="1" height="1" fill="#000000" />
<rect x="36" y="7" width="1" height="1" fill="#000000" />
<rect x="37" y="7" width="1" height="1" fill="#000000" />
<rect x="40" y="7" width="1" height="1" fill="#000000" />
<rect x="41" y="7" width="1" height="1" fill="#000000" />
<rect x="42" y="7" width="1" height="1" fill="#000000" />
<rect x="14" y="8" width="1" height="1" fill="#000000" />
<rect x="15" y="8" width="1" height="1" fill="#000000" />
<rect x="16" y="8" width="1" height="1" fill="#000000" />
<rect x="17" y="8" width="1" height="1" fill="#000000" />
<rect x="18" y="8" width="1" height="1" fill="#000000" />
<rect x="29" y="8" width="1" height="1" fill="#000000" />
<rect x="30" y="8" width="1" height="1" fill="#000000" />
<rect x="31" y="8" width="1" height="1" fill="#000000" />
<rect x="32" y="8" width="1" height="1" fill="#000000" />
<rect x="33" y="8" width="1" height="1" fill="#000000" />
<rect x="35" y="8" width="1" height="1" fill="#000000" />
<rect x="36" y="8" width="1" height="1" fill="#000000" />
<rect x="37" y="8" width="1" height="1" fill="#000000" />
<rect x="40" y="8" width="1" height="1" fill="#000000" />
<rect x="41" y="8" width="1" height="1" fill="#000000" />
<rect x="42" y="8" width="1" height="1" fill="#000000" />
<rect x="13" y="9" width="1" height="1" fill="#000000" />
<rect x="14" y="9" width="1" height="1" fill="#000000" />
<rect x="15" y="9" width="1" height="1" fill="#000000" />
<rect x="16" y="9" width="1" height="1" fill="#000000" />
<rect x="17" y="9" width="1" height="1" fill="#000000" />
<rect x="30" y="9" width="1" height="1" fill="#000000" />
<rect x="31" y="9" width="1" height="1" fill="#000000" />
<rect x="32" y="9" width="1" height="1" fill="#000000" />
<rect x="33" y="9" width="1" height="1" fill="#000000" />
<rect x="34" y="9" width="1" height="1" fill="#000000" />
<rect x="35" y="9" width="1" height="1" fill="#000000" />
<rect x="36" y="9" width="1" height="1" fill="#000000" />
<rect x="37" y="9" width="1" height="1" fill="#000000" />
<rect x="40" y="9" width="1" height="1" fill="#000000" />
<rect x="41" y="9" width="1" height="1" fill="#000000" />
<rect x="42" y="9" width="1" height="1" fill="#000000" />
<rect x="12" y="10" width="1" height="1" fill="#000000" />
<rect x="13" y="10" width="1" height="1" fill="#000000" />
<rect x="14" y="10" width="1" height="1" fill="#000000" />
<rect x="15" y="10" width="1" height="1" fill="#000000" />
<rect x="16" y="10" width="1" height="1" fill="#000000" />
<rect x="31" y="10" width="1" height="1" fill="#000000" />
<rect x="32" y="10" width="1" height="1" fill="#000000" />
<rect x="33" y="10" width="1" height="1" fill="#000000" />
<rect x="34" y="10" width="1" height="1" fill="#000000" />
<rect x="35" y="10" width="1" height="1" fill="#000000" />
<rect x="36" y="10" width="1" height="1" fill="#000000" />
<rect x="37" y="10" width="1" height="1" fill="#000000" />
<rect x="40" y="10" width="1" height="1" fill="#000000" />
<rect x="41" y="10" width="1" height="1" fill="#000000" />
<rect x="42" y="10" width="1" height="1" fill="#000000" />
<rect x="11" y="11" width="1" height="1" fill="#000000" />
<rect x="12" y="11" width="1" height="1" fill="#000000" />
<rect x="13" y="11" width="1" height="1" fill="#000000" />
<rect x="14" y="11" width="1" height="1" fill="#000000" />
<rect x="15" y="11" width="1" height="1" fill="#000000" />
<rect x="32" y="11" width="1" height="1" fill="#000000" />
<rect x="33" y="11" width="1" height="1" fill="#000000" />
<rect x="34" y="11" width="1" height="1" fill="#000000" />
<rect x="35" y="11" width="1" height="1" fill="#000000" />
<rect x="36" y="11" width="1" height="1" fill="#000000" />
<rect x="37" y="11" width="1" height="1" fill="#000000" />
<rect x="40" y="11" width="1" height="1" fill="#000000" />
<rect x="41" y="11" width="1" height="1" fill="#000000" />
<rect x="42" y="11" width="1" height="1" fill="#000000" />
<rect x="10" y="12" width="1" height="1" fill="#000000" />
<rect x="11" y="12" width="1" height="1" fill="#000000" />
<rect x="12" y="12" width="1" height="1" fill="#000000" />
<rect x="13" y="12" width="1" height="1" fill="#000000" />
<rect x="14" y="12" width="1" height="1" fill="#000000" />
<rect x="33" y="12" width="1" height="1" fill="#000000" />
<rect x="34" y="12" width="1" height="1" fill="#000000" />
<rect x="35" y="12" width="1" height="1" fill="#000000" />
<rect x="36" y="12" width="1" height="1" fill="#000000" />
<rect x="37" y="12" width="1" height="1" fill="#000000" />
<rect x="40" y="12" width="1" height="1" fill="#000000" />
<rect x="41" y="12" width="1" height="1" fill="#000000" />
<rect x="42" y="12" width="1" height="1" fill="#000000" />
<rect x="9" y="13" width="1" height="1" fill="#000000" />
<rect x="10" y="13" width="1" height="1" fill="#000000" />
<rect x="11" y="13" width="1" height="1" fill="#000000" />
<rect x="12" y="13" width="1" height="1" fill="#000000" />
<rect x="13" y="13" width="1" height="1" fill="#000000" />
<rect x="34" y="13" width="1" height="1" fill="#000000" />
<rect x="35" y="13" width="1" height="1" fill="#000000" />
<rect x="36" y="13" width="1" height="1" fill="#000000" />
<rect x="37" y="13" width="1" height="1" fill="#000000" />
<rect x="38" y="13" width="1" height="1" fill="#000000" />
<rect x="40" y="13" width="1" height="1" fill="#000000" />
<rect x="41" y="13" width="1" height="1" fill="#000000" />
<rect x="42" y="13" width="1" height="1" fill="#000000" />
<rect x="8" y="14" width="1" height="1" fill="#000000" />
<rect x="9" y="14" width="1" height="1" fill="#000000" />
<rect x="10" y="14" width="1" height="1" fill="#000000" />
<rect x="11" y="14" width="1" height="1" fill="#000000" />
<rect x="12" y="14" width="1" height="1" fill="#000000" />
<rect x="35" y="14" width="1" height="1" fill="#000000" />
<rect x="36" y="14" width="1" height="1" fill="#000000" />
<rect x="37" y="14" width="1" height="1" fill="#000000" />
<rect x="38" y="14" width="1" height="1" fill="#000000" />
<rect x="39" y="14" width="1" height="1" fill="#000000" />
<rect x="40" y="14" width="1" height="1" fill="#000000" />
<rect x="41" y="14" width="1" height="1" fill="#000000" />
<rect x="42" y="14" width="1" height="1" fill="#000000" />
<rect x="7" y="15" width="1" height="1" fill="#000000" />
<rect x="8" y="15" width="1" height="1" fill="#000000" />
<rect x="9" y="15" width="1" height="1" fill="#000000" />
<rect x="10" y="15" width="1" height="1" fill="#000000" />
<rect x="11" y="15" width="1" height="1" fill="#000000" />
<rect x="36" y="15" width="1" height="1" fill="#000000" />
<rect x="37" y="15" width="1" height="1" fill="#000000" />
<rect x="38" y="15" width="1" height="1" fill="#000000" />
<rect x="39" y="15" width="1" height="1" fill="#000000" />
<rect x="40" y="15" width="1" height="1" fill="#000000" />
<rect x="41" y="15" width="1" height="1" fill="#000000" />
<rect x="42" y="15" width="1" height="1" fill="#000000" />
<rect x="6" y="16" width="1" height="1" fill="#000000" />
<rect x="7" y="16" width="1" height="1" fill="#000000" />
<rect x="8" y="16" width="1" height="1" fill="#000000" />
<rect x="9" y="16" width="1" height="1" fill="#000000" />
<rect x="10" y="16" width="1" height="1" fill="#000000" />
<rect x="37" y="16" width="1" height="1" fill="#000000" />
<rect x="38" y="16" width="1" height="1" fill="#000000" />
<rect x="39" y="16" width="1" height="1" fill="#000000" />
<rect x="40" y="16" width="1" height="1" fill="#000000" />
<rect x="41" y="16" width="1" height="1" fill="#000000" />
<rect x="42" y="16" width="1" height="1" fill="#000000" />
<rect x="5" y="17" width="1" height="1" fill="#000000" />
<rect x="6" y="17" width="1" height="1" fill="#000000" />
<rect x="7" y="17" width="1" height="1" fill="#000000" />
<rect x="8" y="17" width="1" height="1" fill="#000000" />
<rect x="9" y="17" width="1" height="1" fill="#000000" />
<rect x="38" y="17" width="1" height="1" fill="#000000" />
<rect x="39" y="17" width="1" height="1" fill="#000000" />
<rect x="40" y="17" width="1" height="1" fill="#000000" />
<rect x="41" y="17" width="1" height="1" fill="#000000" />
<rect x="42" y="17" width="1" height="1" fill="#000000" />
<rect x="4" y="18" width="1" height="1" fill="#000000" />
<rect x="5" y="18" width="1" height="1" fill="#000000" />
<rect x="6" y="18" width="1" height="1" fill="#000000" />
<rect x="7" y="18" width="1" height="1" fill="#000000" />
<rect x="8" y="18" width="1" height="1" fill="#000000" />
<rect x="39" y="18" width="1" height="1" fill="#000000" />
<rect x="40" y="18" width="1" height="1" fill="#000000" />
<rect x="41" y="18" width="1" height="1" fill="#000000" />
<rect x="42" y="18" width="1" height="1" fill="#000000" />
<rect x="43" y="18" width="1" height="1" fill="#000000" />
<rect x="3" y="19" width="1" height="1" fill="#000000" />
<rect x="4" y="19" width="1" height="1" fill="#000000" />
<rect x="5" y="19" width="1" height="1" fill="#000000" />
<rect x="6" y="19" width="1" height="1" fill="#000000" />
<rect x="7" y="19" width="1" height="1" fill="#000000" />
<rect x="40" y="19" width="1" height="1" fill="#000000" />
<rect x="41" y="19" width="1" height="1" fill="#000000" />
<rect x="42" y="19" width="1" height="1" fill="#000000" />
<rect x="43" y="19" width="1" height="1" fill="#000000" />
<rect x="44" y="19" width="1" height="1" fill="#000000" />
<rect x="2" y="20" width="1" height="1" fill="#000000" />
<rect x="3" y="20" width="1" height="1" fill="#000000" />
<rect x="4" y="20" width="1" height="1" fill="#000000" />
<rect x="5" y="20" width="1" height="1" fill="#000000" />
<rect x="6" y="20" width="1" height="1" fill="#000000" />
<rect x="41" y="20" width="1" height="1" fill="#000000" />
<rect x="42" y="20" width="1" height="1" fill="#000000" />
<rect x="43" y="20" width="1" height="1" fill="#000000" />
<rect x="44" y="20" width="1" height="1" fill="#000000" />
<rect x="45" y="20" width="1" height="1" fill="#000000" />
<rect x="1" y="21" width="1" height="1" fill="#000000" />
<rect x="2" y="21" width="1" height="1" fill="#000000" />
<rect x="3" y="21" width="1" height="1" fill="#000000" />
<rect x="4" y="21" width="1" height="1" fill="#000000" />
<rect x="5" y="21" width="1" height="1" fill="#000000" />
<rect x="42" y="21" width="1" height="1" fill="#000000" />
<rect x="43" y="21" width="1" height="1" fill="#000000" />
<rect x="44" y="21" width="1" height="1" fill="#000000" />
<rect x="45" y="21" width="1" height="1" fill="#000000" />
<rect x="46" y="21" width="1" height="1" fill="#000000" />
<rect x="0" y="22" width="1" height="1" fill="#000000" />
<rect x="1" y="22" width="1" height="1" fill="#000000" />
<rect x="2" y="22" width="1" height="1" fill="#000000" />
<rect x="3" y="22" width="1" height="1" fill="#000000" />
<rect x="4" y="22" width="1" height="1" fill="#000000" />
<rect x="5" y="22" width="1" height="1" fill="#000000" />
<rect x="6" y="22" width="1" height="1" fill="#000000" />
<rect x="7" y="22" width="1" height="1" fill="#000000" />
<rect x="8" y="22" width="1" height="1" fill="#000000" />
<rect x="9" y="22" width="1" height="1" fill="#000000" />
<rect x="10" y="22" width="1" height="1" fill="#000000" />
<rect x="11" y="22" width="1" height="1" fill="#000000" />
<rect x="12" y="22" width="1" height="1" fill="#000000" />
<rect x="13" y="22" width="1" height="1" fill="#000000" />
<rect x="14" y="22" width="1" height="1" fill="#000000" />
<rect x="15" y="22" width="1" height="1" fill="#000000" />
<rect x="16" y="22" width="1" height="1" fill="#000000" />
<rect x="17" y="22" width="1" height="1" fill="#000000" />
<rect x="18" y="22" width="1" height="1" fill="#000000" />
<rect x="19" y="22" width="1" height="1" fill="#000000" />
<rect x="20" y="22" width="1" height="1" fill="#000000" />
<rect x="21" y="22" width="1" height="1" fill="#000000" />
<rect x="22" y="22" width="1" height="1" fill="#000000" />
<rect x="23" y="22" width="1" height="1" fill="#000000" />
<rect x="24" y="22" width="1" height="1" fill="#000000" />
<rect x="25" y="22" width="1" height="1" fill="#000000" />
<rect x="26" y="22" width="1" height="1" fill="#000000" />
<rect x="27" y="22" width="1" height="1" fill="#000000" />
<rect x="28" y="22" width="1" height="1" fill="#000000" />
<rect x="29" y="22" width="1" height="1" fill="#000000" />
<rect x="30" y="22" width="1" height="1" fill="#000000" />
<rect x="31" y="22" width="1" height="1" fill="#000000" />
<rect x="32" y="22" width="1" height="1" fill="#000000" />
<rect x="33" y="22" width="1" height="1" fill="#000000" />
<rect x="34" y="22" width="1" height="1" fill="#000000" />
<rect x="35" y="22" width="1" height="1" fill="#000000" />
<rect x="36" y="22" width="1" height="1" fill="#000000" />
<rect x="37" y="22" width="1" height="1" fill="#000000" />
<rect x="38" y="22" width="1" height="1" fill="#000000" />
<rect x="39" y="22" width="1" height="1" fill="#000000" />
<rect x="40" y="22" width="1" height="1" fill="#000000" />
<rect x="41" y="22" width="1" height="1" fill="#000000" />
<rect x="42" y="22" width="1" height="1" fill="#000000" />
<rect x="43" y="22" width="1" height="1" fill="#000000" />
<rect x="44" y="22" width="1" height="1" fill="#000000" />
<rect x="45" y="22" width="1" height="1" fill="#000000" />
<rect x="46" y="22" width="1" height="1" fill="#000000" />
<rect x="47" y="22" width="1" height="1" fill="#000000" />
<rect x="0" y="23" width="1" height="1" fill="#000000" />
<rect x="1" y="23" width="1" height="1" fill="#000000" />
<rect x="2" y="23" width="1" height="1" fill="#000000" />
<rect x="3" y="23" width="1" height="1" fill="#000000" />
<rect x="4" y="23" width="1" height="1" fill="#000000" />
<rect x="5" y="23" width="1" height="1" fill="#000000" />
<rect x="6" y="23" width="1" height="1" fill="#000000" />
<rect x="7" y="23" width="1" height="1" fill="#000000" />
<rect x="8" y="23" width="1" height="1" fill="#000000" />
<rect x="9" y="23" width="1" height="1" fill="#000000" />
<rect x="10" y="23" width="1" height="1" fill="#000000" />
<rect x="11" y="23" width="1" height="1" fill="#000000" />
<rect x="12" y="23" width="1" height="1" fill="#000000" />
<rect x="13" y="23" width="1" height="1" fill="#000000" />
<rect x="14" y="23" width="1" height="1" fill="#000000" />
<rect x="15" y="23" width="1" height="1" fill="#000000" />
<rect x="16" y="23" width="1" height="1" fill="#000000" />
<rect x="17" y="23" width="1" height="1" fill="#000000" />
<rect x="18" y="23" width="1" height="1" fill="#000000" />
<rect x="19" y="23" width="1" height="1" fill="#000000" />
<rect x="20" y="23" width="1" height="1" fill="#000000" />
<rect x="21" y="23" width="1" height="1" fill="#000000" />
<rect x="22" y="23" width="1" height="1" fill="#000000" />
<rect x="23" y="23" width="1" height="1" fill="#000000" />
<rect x="24" y="23" width="1" height="1" fill="#000000" />
<rect x="25" y="23" width="1" height="1" fill="#000000" />
<rect x="26" y="23" width="1" height="1" fill="#000000" />
<rect x="27" y="23" width="1" height="1" fill="#000000" />
<rect x="28" y="23" width="1" height="1" fill="#000000" />
<rect x="29" y="23" width="1" height="1" fill="#000000" />
<rect x="30" y="23" width="1" height="1" fill="#000000" />
<rect x="31" y="23" width="1" height="1" fill="#000000" />
<rect x="32" y="23" width="1" height="1" fill="#000000" />
<rect x="33" y="23" width="1" height="1" fill="#000000" />
<rect x="34" y="23" width="1" height="1" fill="#000000" />
<rect x="35" y="23" width="1" height="1" fill="#000000" />
<rect x="36" y="23" width="1" height="1" fill="#000000" />
<rect x="37" y="23" width="1" height="1" fill="#000000" />
<rect x="38" y="23" width="1" height="1" fill="#000000" />
<rect x="39" y="23" width="1" height="1" fill="#000000" />
<rect x="40" y="23" width="1" height="1" fill="#000000" />
<rect x="41" y="23" width="1" height="1" fill="#000000" />
<rect x="42" y="23" width="1" height="1" fill="#000000" />
<rect x="43" y="23" width="1" height="1" fill="#000000" />
<rect x="44" y="23" width="1" height="1" fill="#000000" />
<rect x="45" y="23" width="1" height="1" fill="#000000" />
<rect x="46" y="23" width="1" height="1" fill="#000000" />
<rect x="47" y="23" width="1" height="1" fill="#000000" />
<rect x="0" y="24" width="1" height="1" fill="#000000" />
<rect x="1" y="24" width="1" height="1" fill="#000000" />
<rect x="2" y="24" width="1" height="1" fill="#000000" />
<rect x="3" y="24" width="1" height="1" fill="#000000" />
<rect x="4" y="24" width="1" height="1" fill="#000000" />
<rect x="5" y="24" width="1" height="1" fill="#000000" />
<rect x="6" y="24" width="1" height="1" fill="#000000" />
<rect x="7" y="24" width="1" height="1" fill="#000000" />
<rect x="8" y="24" width="1" height="1" fill="#000000" />
<rect x="9" y="24" width="1" height="1" fill="#000000" />
<rect x="10" y="24" width="1" height="1" fill="#000000" />
<rect x="11" y="24" width="1" height="1" fill="#000000" />
<rect x="12" y="24" width="1" height="1" fill="#000000" />
<rect x="13" y="24" width="1" height="1" fill="#000000" />
<rect x="14" y="24" width="1" height="1" fill="#000000" />
<rect x="15" y="24" width="1" height="1" fill="#000000" />
<rect x="16" y="24" width="1" height="1" fill="#000000" />
<rect x="17" y="24" width="1" height="1" fill="#000000" />
<rect x="18" y="24" width="1" height="1" fill="#000000" />
<rect x="19" y="24" width="1" height="1" fill="#000000" />
<rect x="20" y="24" width="1" height="1" fill="#000000" />
<rect x="21" y="24" width="1" height="1" fill="#000000" />
<rect x="22" y="24" width="1" height="1" fill="#000000" />
<rect x="23" y="24" width="1" height="1" fill="#000000" />
<rect x="24" y="24" width="1" height="1" fill="#000000" />
<rect x="25" y="24" width="1" height="1" fill="#000000" />
<rect x="26" y="24" width="1" height="1" fill="#000000" />
<rect x="27" y="24" width="1" height="1" fill="#000000" />
<rect x="28" y="24" width="1" height="1" fill="#000000" />
<rect x="29" y="24" width="1" height="1" fill="#000000" />
<rect x="30" y="24" width="1" height="1" fill="#000000" />
<rect x="31" y="24" width="1" height="1" fill="#000000" />
<rect x="32" y="24" width="1" height="1" fill="#000000" />
<rect x="33" y="24" width="1" height="1" fill="#000000" />
<rect x="34" y="24" width="1" height="1" fill="#000000" />
<rect x="35" y="24" width="1" height="1" fill="#000000" />
<rect x="36" y="24" width="1" height="1" fill="#000000" />
<rect x="37" y="24" width="1" height="1" fill="#000000" />
<rect x="38" y="24" width="1" height="1" fill="#000000" />
<rect x="39" y="24" width="1" height="1" fill="#000000" />
<rect x="40" y="24" width="1" height="1" fill="#000000" />
<rect x="41" y="24" width="1" height="1" fill="#000000" />
<rect x="42" y="24" width="1" height="1" fill="#000000" />
<rect x="43" y="24" width="1" height="1" fill="#000000" />
<rect x="44" y="24" width="1" height="1" fill="#000000" />
<rect x="45" y="24" width="1" height="1" fill="#000000" />
<rect x="46" y="24" width="1" height="1" fill="#000000" />
<rect x="47" y="24" width="1" height="1" fill="#000000" />
<rect x="3" y="25" width="1" height="1" fill="#000000" />
<rect x="4" y="25" width="1" height="1" fill="#000000" />
<rect x="5" y="25" width="1" height="1" fill="#000000" />
<rect x="42" y="25" width="1" height="1" fill="#000000" />
<rect x="43" y="25" width="1" height="1" fill="#000000" />
<rect x="44" y="25" width="1" height="1" fill="#000000" />
<rect x="3" y="26" width="1" height="1" fill="#000000" />
<rect x="4" y="26" width="1" height="1" fill="#000000" />
<rect x="5" y="26" width="1" height="1" fill="#000000" />
<rect x="42" y="26" width="1" height="1" fill="#000000" />
<rect x="43" y="26" width="1" height="1" fill="#000000" />
<rect x="44" y="26" width="1" height="1" fill="#000000" />
<rect x="3" y="27" width="1" height="1" fill="#000000" />
<rect x="4" y="27" width="1" height="1" fill="#000000" />
<rect x="5" y="27" width="1" height="1" fill="#000000" />
<rect x="42" y="27" width="1" height="1" fill="#000000" />
<rect x="43" y="27" width="1" height="1" fill="#000000" />
<rect x="44" y="27" width="1" height="1" fill="#000000" />
<rect x="3" y="28" width="1" height="1" fill="#000000" />
<rect x="4" y="28" width="1" height="1" fill="#000000" />
<rect x="5" y="28" width="1" height="1" fill="#000000" />
<rect x="42" y="28" width="1" height="1" fill="#000000" />
<rect x="43" y="28" width="1" height="1" fill="#000000" />
<rect x="44" y="28" width="1" height="1" fill="#000000" />
<rect x="3" y="29" width="1" height="1" fill="#000000" />
<rect x="4" y="29" width="1" height="1" fill="#000000" />
<rect x="5" y="29" width="1" height="1" fill="#000000" />
<rect x="42" y="29" width="1" height="1" fill="#000000" />
<rect x="43" y="29" width="1" height="1" fill="#000000" />
<rect x="44" y="29" width="1" height="1" fill="#000000" />
<rect x="3" y="30" width="1" height="1" fill="#000000" />
<rect x="4" y="30" width="1" height="1" fill="#000000" />
<rect x="5" y="30" width="1" height="1" fill="#000000" />
<rect x="42" y="30" width="1" height="1" fill="#000000" />
<rect x="43" y="30" width="1" height="1" fill="#000000" />
<rect x="44" y="30" width="1" height="1" fill="#000000" />
<rect x="3" y="31" width="1" height="1" fill="#000000" />
<rect x="4" y="31" width="1" height="1" fill="#000000" />
<rect x="5" y="31" width="1" height="1" fill="#000000" />
<rect x="22" y="31" width="1" height="1" fill="#000000" />
<rect x="23" y="31" width="1" height="1" fill="#000000" />
<rect x="24" y="31" width="1" height="1" fill="#000000" />
<rect x="25" y="31" width="1" height="1" fill="#000000" />
<rect x="42" y="31" width="1" height="1" fill="#000000" />
<rect x="43" y="31" width="1" height="1" fill="#000000" />
<rect x="44" y="31" width="1" height="1" fill="#000000" />
<rect x="3" y="32" width="1" height="1" fill="#000000" />
<rect x="4" y="32" width="1" height="1" fill="#000000" />
<rect x="5" y="32" width="1" height="1" fill="#000000" />
<rect x="21" y="32" width="1" height="1" fill="#000000" />
<rect x="22" y="32" width="1" height="1" fill="#000000" />
<rect x="23" y="32" width="1" height="1" fill="#000000" />
<rect x="24" y="32" width="1" height="1" fill="#000000" />
<rect x="25" y="32" width="1" height="1" fill="#000000" />
<rect x="26" y="32" width="1" height="1" fill="#000000" />
<rect x="42" y="32" width="1" height="1" fill="#000000" />
<rect x="43" y="32" width="1" height="1" fill="#000000" />
<rect x="44" y="32" width="1" height="1" fill="#000000" />
<rect x="3" y="33" width="1" height="1" fill="#000000" />
<rect x="4" y="33" width="1" height="1" fill="#000000" />
<rect x="5" y="33" width="1" height="1" fill="#000000" />
<rect x="20" y="33" width="1" height="1" fill="#000000" />
<rect x="21" y="33" width="1" height="1" fill="#000000" />
<rect x="22" y="33" width="1" height="1" fill="#000000" />
<rect x="23" y="33" width="1" height="1" fill="#000000" />
<rect x="24" y="33" width="1" height="1" fill="#000000" />
<rect x="25" y="33" width="1" height="1" fill="#000000" />
<rect x="26" y="33" width="1" height="1" fill="#000000" />
<rect x="27" y="33" width="1" height="1" fill="#000000" />
<rect x="42" y="33" width="1" height="1" fill="#000000" />
<rect x="43" y="33" width="1" height="1" fill="#000000" />
<rect x="44" y="33" width="1" height="1" fill="#000000" />
<rect x="3" y="34" width="1" height="1" fill="#000000" />
<rect x="4" y="34" width="1" height="1" fill="#000000" />
<rect x="5" y="34" width="1" height="1" fill="#000000" />
<rect x="19" y="34" width="1" height="1" fill="#000000" />
<rect x="20" y="34" width="1" height="1" fill="#000000" />
<rect x="21" y="34" width="1" height="1" fill="#000000" />
<rect x="22" y="34" width="1" height="1" fill="#000000" />
<rect x="23" y="34" width="1" height="1" fill="#000000" />
<rect x="24" y="34" width="1" height="1" fill="#000000" />
<rect x="25" y="34" width="1" height="1" fill="#000000" />
<rect x="26" y="34" width="1" height="1" fill="#000000" />
<rect x="27" y="34" width="1" height="1" fill="#000000" />
<rect x="28" y="34" width="1" height="1" fill="#000000" />
<rect x="42" y="34" width="1" height="1" fill="#000000" />
<rect x="43" y="34" width="1" height="1" fill="#000000" />
<rect x="44" y="34" width="1" height="1" fill="#000000" />
<rect x="3" y="35" width="1" height="1" fill="#000000" />
<rect x="4" y="35" width="1" height="1" fill="#000000" />
<rect x="5" y="35" width="1" height="1" fill="#000000" />
<rect x="18" y="35" width="1" height="1" fill="#000000" />
<rect x="19" y="35" width="1" height="1" fill="#000000" />
<rect x="20" y="35" width="1" height="1" fill="#000000" />
<rect x="21" y="35" width="1" height="1" fill="#000000" />
<rect x="22" y="35" width="1" height="1" fill="#000000" />
<rect x="25" y="35" width="1" height="1" fill="#000000" />
<rect x="26" y="35" width="1" height="1" fill="#000000" />
<rect x="27" y="35" width="1" height="1" fill="#000000" />
<rect x="28" y="35" width="1" height="1" fill="#000000" />
<rect x="29" y="35" width="1" height="1" fill="#000000" />
<rect x="42" y="35" width="1" height="1" fill="#000000" />
<rect x="43" y="35" width="1" height="1" fill="#000000" />
<rect x="44" y="35" width="1" height="1" fill="#000000" />
<rect x="3" y="36" width="1" height="1" fill="#000000" />
<rect x="4" y="36" width="1" height="1" fill="#000000" />
<rect x="5" y="36" width="1" height="1" fill="#000000" />
<rect x="17" y="36" width="1" height="1" fill="#000000" />
<rect x="18" y="36" width="1" height="1" fill="#000000" />
<rect x="19" y="36" width="1" height="1" fill="#000000" />
<rect x="20" y="36" width="1" height="1" fill="#000000" />
<rect x="21" y="36" width="1" height="1" fill="#000000" />
<rect x="26" y="36" width="1" height="1" fill="#000000" />
<rect x="27" y="36" width="1" height="1" fill="#000000" />
<rect x="28" y="36" width="1" height="1" fill="#000000" />
<rect x="29" y="36" width="1" height="1" fill="#000000" />
<rect x="30" y="36" width="1" height="1" fill="#000000" />
<rect x="42" y="36" width="1" height="1" fill="#000000" />
<rect x="43" y="36" width="1" height="1" fill="#000000" />
<rect x="44" y="36" width="1" height="1" fill="#000000" />
<rect x="3" y="37" width="1" height="1" fill="#000000" />
<rect x="4" y="37" width="1" height="1" fill="#000000" />
<rect x="5" y="37" width="1" height="1" fill="#000000" />
<rect x="17" y="37" width="1" height="1" fill="#000000" />
<rect x="18" y="37" width="1" height="1" fill="#000000" />
<rect x="19" y="37" width="1" height="1" fill="#000000" />
<rect x="20" y="37" width="1" height="1" fill="#000000" />
<rect x="27" y="37" width="1" height="1" fill="#000000" />
<rect x="28" y="37" width="1" height="1" fill="#000000" />
<rect x="29" y="37" width="1" height="1" fill="#000000" />
<rect x="30" y="37" width="1" height="1" fill="#000000" />
<rect x="42" y="37" width="1" height="1" fill="#000000" />
<rect x="43" y="37" width="1" height="1" fill="#000000" />
<rect x="44" y="37" width="1" height="1" fill="#000000" />
<rect x="3" y="38" width="1" height="1" fill="#000000" />
<rect x="4" y="38" width="1" height="1" fill="#000000" />
<rect x="5" y="38" width="1" height="1" fill="#000000" />
<rect x="17" y="38" width="1" height="1" fill="#000000" />
<rect x="18" y="38" width="1" height="1" fill="#000000" />
<rect x="19" y="38" width="1" height="1" fill="#000000" />
<rect x="28" y="38" width="1" height="1" fill="#000000" />
<rect x="29" y="38" width="1" height="1" fill="#000000" />
<rect x="30" y="38" width="1" height="1" fill="#000000" />
<rect x="42" y="38" width="1" height="1" fill="#000000" />
<rect x="43" y="38" width="1" height="1" fill="#000000" />
<rect x="44" y="38" width="1" height="1" fill="#000000" />
<rect x="3" y="39" width="1" height="1" fill="#000000" />
<rect x="4" y="39" width="1" height="1" fill="#000000" />
<rect x="5" y="39" width="1" height="1" fill="#000000" />
<rect x="17" y="39" width="1" height="1" fill="#000000" />
<rect x="18" y="39" width="1" height="1" fill="#000000" />
<rect x="19" y="39" width="1" height="1" fill="#000000" />
<rect x="28" y="39" width="1" height="1" fill="#000000" />
<rect x="29" y="39" width="1" height="1" fill="#000000" />
<rect x="30" y="39" width="1" height="1" fill="#000000" />
<rect x="42" y="39" width="1" height="1" fill="#000000" />
<rect x="43" y="39" width="1" height="1" fill="#000000" />
<rect x="44" y="39" width="1" height="1" fill="#000000" />
<rect x="3" y="40" width="1" height="1" fill="#000000" />
<rect x="4" y="40" width="1" height="1" fill="#000000" />
<rect x="5" y="40" width="1" height="1" fill="#000000" />
<rect x="17" y="40" width="1" height="1" fill="#000000" />
<rect x="18" y="40" width="1" height="1" fill="#000000" />
<rect x="19" y="40" width="1" height="1" fill="#000000" />
<rect x="24" y="40" width="1" height="1" fill="#000000" />
<rect x="25" y="40" width="1" height="1" fill="#000000" />
<rect x="26" y="40" width="1" height="1" fill="#000000" />
<rect x="28" y="40" width="1" height="1" fill="#000000" />
<rect x="29" y="40" width="1" height="1" fill="#000000" />
<rect x="30" y="40" width="1" height="1" fill="#000000" />
<rect x="42" y="40" width="1" height="1" fill="#000000" />
<rect x="43" y="40" width="1" height="1" fill="#000000" />
<rect x="44" y="40" width="1" height="1" fill="#000000" />
<rect x="3" y="41" width="1" height="1" fill="#000000" />
<rect x="4" y="41" width="1" height="1" fill="#000000" />
<rect x="5" y="41" width="1" height="1" fill="#000000" />
<rect x="17" y="41" width="1" height="1" fill="#000000" />
<rect x="18" y="41" width="1" height="1" fill="#000000" />
<rect x="19" y="41" width="1" height="1" fill="#000000" />
<rect x="24" y="41" width="1" height="1" fill="#000000" />
<rect x="25" y="41" width="1" height="1" fill="#000000" />
<rect x="26" y="41" width="1" height="1" fill="#000000" />
<rect x="28" y="41" width="1" height="1" fill="#000000" />
<rect x="29" y="41" width="1" height="1" fill="#000000" />
<rect x="30" y="41" width="1" height="1" fill="#000000" />
<rect x="42" y="41" width="1" height="1" fill="#000000" />
<rect x="43" y="41" width="1" height="1" fill="#000000" />
<rect x="44" y="41" width="1" height="1" fill="#000000" />
<rect x="3" y="42" width="1" height="1" fill="#000000" />
<rect x="4" y="42" width="1" height="1" fill="#000000" />
<rect x="5" y="42" width="1" height="1" fill="#000000" />
<rect x="17" y="42" width="1" height="1" fill="#000000" />
<rect x="18" y="42" width="1" height="1" fill="#000000" />
<rect x="19" y="42" width="1" height="1" fill="#000000" />
<rect x="24" y="42" width="1" height="1" fill="#000000" />
<rect x="25" y="42" width="1" height="1" fill="#000000" />
<rect x="26" y="42" width="1" height="1" fill="#000000" />
<rect x="28" y="42" width="1" height="1" fill="#000000" />
<rect x="29" y="42" width="1" height="1" fill="#000000" />
<rect x="30" y="42" width="1" height="1" fill="#000000" />
<rect x="42" y="42" width="1" height="1" fill="#000000" />
<rect x="43" y="42" width="1" height="1" fill="#000000" />
<rect x="44" y="42" width="1" height="1" fill="#000000" />
<rect x="3" y="43" width="1" height="1" fill="#000000" />
<rect x="4" y="43" width="1" height="1" fill="#000000" />
<rect x="5" y="43" width="1" height="1" fill="#000000" />
<rect x="17" y="43" width="1" height="1" fill="#000000" />
<rect x="18" y="43" width="1" height="1" fill="#000000" />
<rect x="19" y="43" width="1" height="1" fill="#000000" />
<rect x="28" y="43" width="1" height="1" fill="#000000" />
<rect x="29" y="43" width="1" height="1" fill="#000000" />
<rect x="30" y="43" width="1" height="1" fill="#000000" />
<rect x="42" y="43" width="1" height="1" fill="#000000" />
<rect x="43" y="43" width="1" height="1" fill="#000000" />
<rect x="44" y="43" width="1" height="1" fill="#000000" />
<rect x="3" y="44" width="1" height="1" fill="#000000" />
<rect x="4" y="44" width="1" height="1" fill="#000000" />
<rect x="5" y="44" width="1" height="1" fill="#000000" />
<rect x="17" y="44" width="1" height="1" fill="#000000" />
<rect x="18" y="44" width="1" height="1" fill="#000000" />
<rect x="19" y="44" width="1" height="1" fill="#000000" />
<rect x="28" y="44" width="1" height="1" fill="#000000" />
<rect x="29" y="44" width="1" height="1" fill="#000000" />
<rect x="30" y="44" width="1" height="1" fill="#000000" />
<rect x="42" y="44" width="1" height="1" fill="#000000" />
<rect x="43" y="44" width="1" height="1" fill="#000000" />
<rect x="44" y="44" width="1" height="1" fill="#000000" />
<rect x="3" y="45" width="1" height="1" fill="#000000" />
<rect x="4" y="45" width="1" height="1" fill="#000000" />
<rect x="5" y="45" width="1" height="1" fill="#000000" />
<rect x="6" y="45" width="1" height="1" fill="#000000" />
<rect x="7" y="45" width="1" height="1" fill="#000000" />
<rect x="8" y="45" width="1" height="1" fill="#000000" />
<rect x="9" y="45" width="1" height="1" fill="#000000" />
<rect x="10" y="45" width="1" height="1" fill="#000000" />
<rect x="11" y="45" width="1" height="1" fill="#000000" />
<rect x="12" y="45" width="1" height="1" fill="#000000" />
<rect x="13" y="45" width="1" height="1" fill="#000000" />
<rect x="14" y="45" width="1" height="1" fill="#000000" />
<rect x="15" y="45" width="1" height="1" fill="#000000" />
<rect x="16" y="45" width="1" height="1" fill="#000000" />
<rect x="17" y="45" width="1" height="1" fill="#000000" />
<rect x="18" y="45" width="1" height="1" fill="#000000" />
<rect x="19" y="45" width="1" height="1" fill="#000000" />
<rect x="20" y="45" width="1" height="1" fill="#000000" />
<rect x="21" y="45" width="1" height="1" fill="#000000" />
<rect x="22" y="45" width="1" height="1" fill="#000000" />
<rect x="23" y="45" width="1" height="1" fill="#000000" />
<rect x="24" y="45" width="1" height="1" fill="#000000" />
<rect x="25" y="45" width="1" height="1" fill="#000000" />
<rect x="26" y="45" width="1" height="1" fill="#000000" />
<rect x="27" y="45" width="1" height="1" fill="#000000" />
<rect x="28" y="45" width="1" height="1" fill="#000000" />
<rect x="29" y="45" width="1" height="1" fill="#000000" />
<rect x="30" y="45" width="1" height="1" fill="#000000" />
<rect x="31" y="45" width="1" height="1" fill="#000000" />
<rect x="32" y="45" width="1" height="1" fill="#000000" />
<rect x="33" y="45" width="1" height="1" fill="#000000" />
<rect x="34" y="45" width="1" height="1" fill="#000000" />
<rect x="35" y="45" width="1" height="1" fill="#000000" />
<rect x="36" y="45" width="1" height="1" fill="#000000" />
<rect x="37" y="45" width="1" height="1" fill="#000000" />
<rect x="38" y="45" width="1" height="1" fill="#000000" />
<rect x="39" y="45" width="1" height="1" fill="#000000" />
<rect x="40" y="45" width="1" height="1" fill="#000000" />
<rect x="41" y="45" width="1" height="1" fill="#000000" />
<rect x="42" y="45" width="1" height="1" fill="#000000" />
<rect x="43" y="45" width="1" height="1" fill="#000000" />
<rect x="44" y="45" width="1" height="1" fill="#000000" />
<rect x="3" y="46" width="1" height="1" fill="#000000" />
<rect x="4" y="46" width="1" height="1" fill="#000000" />
<rect x="5" y="46" width="1" height="1" fill="#000000" />
<rect x="6" y="46" width="1" height="1" fill="#000000" />
<rect x="7" y="46" width="1" height="1" fill="#000000" />
<rect x="8" y="46" width="1" height="1" fill="#000000" />
<rect x="9" y="46" width="1" height="1" fill="#000000" />
<rect x="10" y="46" width="1" height="1" fill="#000000" />
<rect x="11" y="46" width="1" height="1" fill="#000000" />
<rect x="12" y="46" width="1" height="1" fill="#000000" />
<rect x="13" y="46" width="1" height="1" fill="#000000" />
<rect x="14" y="46" width="1" height="1" fill="#000000" />
<rect x="15" y="46" width="1" height="1" fill="#000000" />
<rect x="16" y="46" width="1" height="1" fill="#000000" />
<rect x="17" y="46" width="1" height="1" fill="#000000" />
<rect x="18" y="46" width="1" height="1" fill="#000000" />
<rect x="19" y="46" width="1" height="1" fill="#000000" />
<rect x="20" y="46" width="1" height="1" fill="#000000" />
<rect x="21" y="46" width="1" height="1" fill="#000000" />
<rect x="22" y="46" width="1" height="1" fill="#000000" />
<rect x="23" y="46" width="1" height="1" fill="#000000" />
<rect x="24" y="46" width="1" height="1" fill="#000000" />
<rect x="25" y="46" width="1" height="1" fill="#000000" />
<rect x="26" y="46" width="1" height="1" fill="#000000" />
<rect x="27" y="46" width="1" height="1" fill="#000000" />
<rect x="28" y="46" width="1" height="1" fill="#000000" />
<rect x="29" y="46" width="1" height="1" fill="#000000" />
<rect x="30" y="46" width="1" height="1" fill="#000000" />
<rect x="31" y="46" width="1" height="1" fill="#000000" />
<rect x="32" y="46" width="1" height="1" fill="#000000" />
<rect x="33" y="46" width="1" height="1" fill="#000000" />
<rect x="34" y="46" width="1" height="1" fill="#000000" />
<rect x="35" y="46" width="1" height="1" fill="#000000" />
<rect x="36" y="46" width="1" height="1" fill="#000000" />
<rect x="37" y="46" width="1" height="1" fill="#000000" />
<rect x="38" y="46" width="1" height="1" fill="#000000" />
<rect x="39" y="46" width="1" height="1" fill="#000000" />
<rect x="40" y="46" width="1" height="1" fill="#000000" />
<rect x="41" y="46" width="1" height="1" fill="#000000" />
<rect x="42" y="46" width="1" height="1" fill="#000000" />
<rect x="43" y="46" width="1" height="1" fill="#000000" />
<rect x="44" y="46" width="1" height="1" fill="#000000" />
<rect x="3" y="47" width="1" height="1" fill="#000000" />
<rect x="4" y="47" width="1" height="1" fill="#000000" />
<rect x="5" y="47" width="1" height="1" fill="#000000" />
<rect x="6" y="47" width="1" height="1" fill="#000000" />
<rect x="7" y="47" width="1" height="1" fill="#000000" />
<rect x="8" y="47" width="1" height="1" fill="#000000" />
<rect x="9" y="47" width="1" height="1" fill="#000000" />
<rect x="10" y="47" width="1" height="1" fill="#000000" />
<rect x="11" y="47" width="1" height="1" fill="#000000" />
<rect x="12" y="47" width="1" height="1" fill="#000000" />
<rect x="13" y="47" width="1" height="1" fill="#000000" />
<rect x="14" y="47" width="1" height="1" fill="#000000" />
<rect x="15" y="47" width="1" height="1" fill="#000000" />
<rect x="16" y="47" width="1" height="1" fill="#000000" />
<rect x="17" y="47" width="1" height="1" fill="#000000" />
<rect x="18" y="47" width="1" height="1" fill="#000000" />
<rect x="19" y="47" width="1" height="1" fill="#000000" />
<rect x="20" y="47" width="1" height="1" fill="#000000" />
<rect x="21" y="47" width="1" height="1" fill="#000000" />
<rect x="22" y="47" width="1" height="1" fill="#000000" />
<rect x="23" y="47" width="1" height="1" fill="#000000" />
<rect x="24" y="47" width="1" height="1" fill="#000000" />
<rect x="25" y="47" width="1" height="1" fill="#000000" />
<rect x="26" y="47" width="1" height="1" fill="#000000" />
<rect x="27" y="47" width="1" height="1" fill="#000000" />
<rect x="28" y="47" width="1" height="1" fill="#000000" />
<rect x="29" y="47" width="1" height="1" fill="#000000" />
<rect x="30" y="47" width="1" height="1" fill="#000000" />
<rect x="31" y="47" width="1" height="1" fill="#000000" />
<rect x="32" y="47" width="1" height="1" fill="#000000" />
<rect x="33" y="47" width="1" height="1" fill="#000000" />
<rect x="34" y="47" width="1" height="1" fill="#000000" />
<rect x="35" y="47" width="1" height="1" fill="#000000" />
<rect x="36" y="47" width="1" height="1" fill="#000000" />
<rect x="37" y="47" width="1" height="1" fill="#000000" />
<rect x="38" y="47" width="1" height="1" fill="#000000" />
<rect x="39" y="47" width="1" height="1" fill="#000000" />
<rect x="40" y="47" width="1" height="1" fill="#000000" />
<rect x="41" y="47" width="1" height="1" fill="#000000" />
<rect x="42" y="47" width="1" height="1" fill="#000000" />
<rect x="43" y="47" width="1" height="1" fill="#000000" />
<rect x="44" y="47" width="1" height="1" fill="#000000" />
</svg>