<?xml version="1.0" encoding="UTF-8" ?>
<svg version="1.1" width="48" height="48" xmlns="http://www.w3.org/2000/svg" shape-rendering="crispEdges">
<rect x="0" y="0" width="1" height="1" fill="#33ff33" />
<rect x="1" y="0" width="1" height="1" fill="#33ff33" />
<rect x="2" y="0" width="1" height="1" fill="#33ff33" />
<rect x="3" y="0" width="1" height="1" fill="#33ff33" />
<rect x="4" y="0" width="1" height="1" fill="#33ff33" />
<rect x="5" y="0" width="1" height="1" fill="#33ff33" />
<rect x="6" y="0" width="1" height="1" fill="#33ff33" />
<rect x="7" y="0" width="1" height="1" fill="#33ff33" />
<rect x="8" y="0" width="1" height="1" fill="#33ff33" />
<rect x="9" y="0" width="1" height="1" fill="#33ff33" />
<rect x="10" y="0" width="1" height="1" fill="#33ff33" />
<rect x="11" y="0" width="1" height="1" fill="#33ff33" />
<rect x="12" y="0" width="1" height="1" fill="#33ff33" />
<rect x="13" y="0" width="1" height="1" fill="#33ff33" />
<rect x="14" y="0" width="1" height="1" fill="#33ff33" />
<rect x="0" y="1" width="1" height="1" fill="#33ff33" />
<rect x="1" y="1" width="1" height="1" fill="#33ff33" />
<rect x="2" y="1" width="1" height="1" fill="#33ff33" />
<rect x="3" y="1" width="1" height="1" fill="#33ff33" />
<rect x="4" y="1" width="1" height="1" fill="#33ff33" />
<rect x="5" y="1" width="1" height="1" fill="#33ff33" />
<rect x="6" y="1" width="1" height="1" fill="#33ff33" />
<rect x="7" y="1" width="1" height="1" fill="#33ff33" />
<rect x="8" y="1" width="1" height="1" fill="#33ff33" />
<rect x="9" y="1" width="1" height="1" fill="#33ff33" />
<rect x="10" y="1" width="1" height="1" fill="#33ff33" />
<rect x="11" y="1" width="1" height="1" fill="#33ff33" />
<rect x="12" y="1" width="1" height="1" fill="#33ff33" />
<rect x="13" y="1" width="1" height="1" fill="#33ff33" />
<rect x="14" y="1" width="1" height="1" fill="#33ff33" />
<rect x="0" y="2" width="1" height="1" fill="#33ff33" />
<rect x="1" y="2" width="1" height="1" fill="#33ff33" />
<rect x="2" y="2" width="1" height="1" fill="#33ff33" />
<rect x="3" y="2" width="1" height="1" fill="#33ff33" />
<rect x="4" y="2" width="1" height="1" fill="#33ff33" />
<rect x="5" y="2" width="1" height="1" fill="#33ff33" />
<rect x="6" y="2" width="1" height="1" fill="#33ff33" />
<rect x="7" y="2" width="1" height="1" fill="#33ff33" />
<rect x="8" y="2" width="1" height="1" fill="#33ff33" />
<rect x="9" y="2" width="1" height="1" fill="#33ff33" />
<rect x="10" y="2" width="1" height="1" fill="#33ff33" />
<rect x="11" y="2" width="1" height="1" fill="#33ff33" />
<rect x="12" y="2" width="1" height="1" fill="#33ff33" />
<rect x="13" y="2" width="1" height="1" fill="#33ff33" />
<rect x="14" y="2" width="1" height="1" fill="#33ff33" />
<rect x="0" y="3" width="1" height="1" fill="#33ff33" />
<rect x="1" y="3" width="1" height="1" fill="#33ff33" />
<rect x="2" y="3" width="1" height="1" fill="#33ff33" />
<rect x="12" y="3" width="1" height="1" fill="#33ff33" />
<rect x="13" y="3" width="1" height="1" fill="#33ff33" />
<rect x="14" y="3" width="1" height="1" fill="#33ff33" />
<rect x="0" y="4" width="1" height="1" fill="#33ff33" />
<rect x="1" y="4" width="1" height="1" fill="#33ff33" />
<rect x="2" y="4" width="1" height="1" fill="#33ff33" />
<rect x="12" y="4" width="1" height="1" fill="#33ff33" />
<rect x="13" y="4" width="1" height="1" fill="#33ff33" />
<rect x="14" y="4" width="1" height="1" fill="#33ff33" />
<rect x="0" y="5" width="1" height="1" fill="#33ff33" />
<rect x="1" y="5" width="1" height="1" fill="#33ff33" />
<rect x="2" y="5" width="1" height="1" fill="#33ff33" />
<rect x="12" y="5" width="1" height="1" fill="#33ff33" />
<rect x="13" y="5" width="1" height="1" fill="#33ff33" />
<rect x="14" y="5" width="1" height="1" fill="#33ff33" />
<rect x="0" y="6" width="1" height="1" fill="#33ff33" />
<rect x="1" y="6" width="1" height="1" fill="#33ff33" />
<rect x="2" y="6" width="1" height="1" fill="#33ff33" />
<rect x="12" y="6" width="1" height="1" fill="#33ff33" />
<rect x="13" y="6" width="1" height="1" fill="#33ff33" />
<rect x="14" y="6" width="1" height="1" fill="#33ff33" />
<rect x="0" y="7" width="1" height="1" fill="#33ff33" />
<rect x="1" y="7" width="1" height="1" fill="#33ff33" />
<rect x="2" y="7" width="1" height="1" fill="#33ff33" />
<rect x="12" y="7" width="1" height="1" fill="#33ff33" />
<rect x="13" y="7" width="1" height="1" fill="#33ff33" />
<rect x="14" y="7" width="1" height="1" fill="#33ff33" />
<rect x="0" y="8" width="1" height="1" fill="#33ff33" />
<rect x="1" y="8" width="1" height="1" fill="#33ff33" />
<rect x="2" y="8" width="1" height="1" fill="#33ff33" />
<rect x="12" y="8" width="1" height="1" fill="#33ff33" />
<rect x="13" y="8" width="1" height="1" fill="#33ff33" />
<rect x="14" y="8" width="1" height="1" fill="#33ff33" />
<rect x="0" y="9" width="1" height="1" fill="#33ff33" />
<rect x="1" y="9" width="1" height="1" fill="#33ff33" />
<rect x="2" y="9" width="1" height="1" fill="#33ff33" />
<rect x="12" y="9" width="1" height="1" fill="#33ff33" />
<rect x="13" y="9" width="1" height="1" fill="#33ff33" />
<rect x="14" y="9" width="1" height="1" fill="#33ff33" />
<rect x="0" y="10" width="1" height="1" fill="#33ff33" />
<rect x="1" y="10" width="1" height="1" fill="#33ff33" />
<rect x="2" y="10" width="1" height="1" fill="#33ff33" />
<rect x="12" y="10" width="1" height="1" fill="#33ff33" />
<rect x="13" y="10" width="1" height="1" fill="#33ff33" />
<rect x="14" y="10" width="1" height="1" fill="#33ff33" />
<rect x="0" y="11" width="1" height="1" fill="#33ff33" />
<rect x="1" y="11" width="1" height="1" fill="#33ff33" />
<rect x="2" y="11" width="1" height="1" fill="#33ff33" />
<rect x="12" y="11" width="1" height="1" fill="#33ff33" />
<rect x="13" y="11" width="1" height="1" fill="#33ff33" />
<rect x="14" y="11" width="1" height="1" fill="#33ff33" />
<rect x="0" y="12" width="1" height="1" fill="#33ff33" />
<rect x="1" y="12" width="1" height="1" fill="#33ff33" />
<rect x="2" y="12" width="1" height="1" fill="#33ff33" />
<rect x="3" y="12" width="1" height="1" fill="#33ff33" />
<rect x="4" y="12" width="1" height="1" fill="#33ff33" />
<rect x="5" y="12" width="1" height="1" fill="#33ff33" />
<rect x="6" y="12" width="1" height="1" fill="#33ff33" />
<rect x="7" y="12" width="1" height="1" fill="#33ff33" />
<rect x="8" y="12" width="1" height="1" fill="#33ff33" />
<rect x="9" y="12" width="1" height="1" fill="#33ff33" />
<rect x="10" y="12" width="1" height="1" fill="#33ff33" />
<rect x="11" y="12" width="1" height="1" fill="#33ff33" />
<rect x="12" y="12" width="1" height="1" fill="#33ff33" />
<rect x="13" y="12" width="1" height="1" fill="#33ff33" />
<rect x="14" y="12" width="1" height="1" fill="#33ff33" />
<rect x="15" y="12" width="1" height="1" fill="#33ff33" />
<rect x="16" y="12" width="1" height="1" fill="#33ff33" />
<rect x="17" y="12" width="1" height="1" fill="#33ff33" />
<rect x="18" y="12" width="1" height="1" fill="#33ff33" />
<rect x="19" y="12" width="1" height="1" fill="#33ff33" />
<rect x="20" y="12" width="1" height="1" fill="#33ff33" />
<rect x="21" y="12" width="1" height="1" fill="#33ff33" />
<rect x="22" y="12" width="1" height="1" fill="#33ff33" />
<rect x="23" y="12" width="1" height="1" fill="#33ff33" />
<rect x="24" y="12" width="1" height="1" fill="#33ff33" />
<rect x="25" y="12" width="1" height="1" fill="#33ff33" />
<rect x="26" y="12" width="1" height="1" fill="#33ff33" />
<rect x="27" y="12" width="1" height="1" fill="#33ff33" />
<rect x="0" y="13" width="1" height="1" fill="#33ff33" />
<rect x="1" y="13" width="1" height="1" fill="#33ff33" />
<rect x="2" y="13" width="1" height="1" fill="#33ff33" />
<rect x="3" y="13" width="1" height="1" fill="#33ff33" />
<rect x="4" y="13" width="1" height="1" fill="#33ff33" />
<rect x="5" y="13" width="1" height="1" fill="#33ff33" />
<rect x="6" y="13" width="1" height="1" fill="#33ff33" />
<rect x="7" y="13" width="1" height="1" fill="#33ff33" />
<rect x="8" y="13" width="1" height="1" fill="#33ff33" />
<rect x="9" y="13" width="1" height="1" fill="#33ff33" />
<rect x="10" y="13" width="1" height="1" fill="#33ff33" />
<rect x="11" y="13" width="1" height="1" fill="#33ff33" />
<rect x="12" y="13" width="1" height="1" fill="#33ff33" />
<rect x="13" y="13" width="1" height="1" fill="#33ff33" />
<rect x="14" y="13" width="1" height="1" fill="#33ff33" />
<rect x="15" y="13" width="1" height="1" fill="#33ff33" />
<rect x="16" y="13" width="1" height="1" fill="#33ff33" />
<rect x="17" y="13" width="1" height="1" fill="#33ff33" />
<rect x="18" y="13" width="1" height="1" fill="#33ff33" />
<rect x="19" y="13" width="1" height="1" fill="#33ff33" />
<rect x="20" y="13" width="1" height="1" fill="#33ff33" />
<rect x="21" y="13" width="1" height="1" fill="#33ff33" />
<rect x="22" y="13" width="1" height="1" fill="#33ff33" />
<rect x="23" y="13" width="1" height="1" fill="#33ff33" />
<rect x="24" y="13" width="1" height="1" fill="#33ff33" />
<rect x="25" y="13" width="1" height="1" fill="#33ff33" />
<rect x="26" y="13" width="1" height="1" fill="#33ff33" />
<rect x="27" y="13" width="1" height="1" fill="#33ff33" />
<rect x="0" y="14" width="1" height="1" fill="#33ff33" />
<rect x="1" y="14" width="1" height="1" fill="#33ff33" />
<rect x="2" y="14" width="1" height="1" fill="#33ff33" />
<rect x="3" y="14" width="1" height="1" fill="#33ff33" />
<rect x="4" y="14" width="1" height="1" fill="#33ff33" />
<rect x="5" y="14" width="1" height="1" fill="#33ff33" />
<rect x="6" y="14" width="1" height="1" fill="#33ff33" />
<rect x="7" y="14" width="1" height="1" fill="#33ff33" />
<rect x="8" y="14" width="1" height="1" fill="#33ff33" />
<rect x="9" y="14" width="1" height="1" fill="#33ff33" />
<rect x="10" y="14" width="1" height="1" fill="#33ff33" />
<rect x="11" y="14" width="1" height="1" fill="#33ff33" />
<rect x="12" y="14" width="1" height="1" fill="#33ff33" />
<rect x="13" y="14" width="1" height="1" fill="#33ff33" />
<rect x="14" y="14" width="1" height="1" fill="#33ff33" />
<rect x="15" y="14" width="1" height="1" fill="#33ff33" />
<rect x="16" y="14" width="1" height="1" fill="#33ff33" />
<rect x="17" y="14" width="1" height="1" fill="#33ff33" />
<rect x="18" y="14" width="1" height="1" fill="#33ff33" />
<rect x="19" y="14" width="1" height="1" fill="#33ff33" />
<rect x="20" y="14" width="1" height="1" fill="#33ff33" />
<rect x="21" y="14" width="1" height="1" fill="#33ff33" />
<rect x="22" y="14" width="1" height="1" fill="#33ff33" />
<rect x="23" y="14" width="1" height="1" fill="#33ff33" />
<rect x="24" y="14" width="1" height="1" fill="#33ff33" />
<rect x="25" y="14" width="1" height="1" fill="#33ff33" />
<rect x="26" y="14" width="1" height="1" fill="#33ff33" />
<rect x="27" y="14" width="1" height="1" fill="#33ff33" />
<rect x="28" y="14" width="1" height="1" fill="#33ff33" />
<rect x="29" y="14" width="1" height="1" fill="#33ff33" />
<rect x="30" y="14" width="1" height="1" fill="#33ff33" />
<rect x="31" y="14" width="1" height="1" fill="#33ff33" />
<rect x="32" y="14" width="1" height="1" fill="#33ff33" />
<rect x="33" y="14" width="1" height="1" fill="#33ff33" />
<rect x="34" y="14" width="1" height="1" fill="#33ff33" />
<rect x="35" y="14" width="1" height="1" fill="#33ff33" />
<rect x="36" y="14" width="1" height="1" fill="#33ff33" />
<rect x="37" y="14" width="1" height="1" fill="#33ff33" />
<rect x="38" y="14" width="1" height="1" fill="#33ff33" />
<rect x="39" y="14" width="1" height="1" fill="#33ff33" />
<rect x="40" y="14" width="1" height="1" fill="#33ff33" />
<rect x="41" y="14" width="1" height="1" fill="#33ff33" />
<rect x="42" y="14" width="1" height="1" fill="#33ff33" />
<rect x="0" y="15" width="1" height="1" fill="#33ff33" />
<rect x="1" y="15" width="1" height="1" fill="#33ff33" />
<rect x="2" y="15" width="1" height="1" fill="#33ff33" />
<rect x="12" y="15" width="1" height="1" fill="#33ff33" />
<rect x="13" y="15" width="1" height="1" fill="#33ff33" />
<rect x="14" y="15" width="1" height="1" fill="#33ff33" />
<rect x="15" y="15" width="1" height="1" fill="#33ff33" />
<rect x="25" y="15" width="1" height="1" fill="#33ff33" />
<rect x="26" y="15" width="1" height="1" fill="#33ff33" />
<rect x="27" y="15" width="1" height="1" fill="#33ff33" />
<rect x="28" y="15" width="1" height="1" fill="#33ff33" />
<rect x="29" y="15" width="1" height="1" fill="#33ff33" />
<rect x="30" y="15" width="1" height="1" fill="#33ff33" />
<rect x="31" y="15" width="1" height="1" fill="#33ff33" />
<rect x="32" y="15" width="1" height="1" fill="#33ff33" />
<rect x="33" y="15" width="1" height="1" fill="#33ff33" />
<rect x="34" y="15" width="1" height="1" fill="#33ff33" />
<rect x="35" y="15" width="1" height="1" fill="#33ff33" />
<rect x="36" y="15" width="1" height="1" fill="#33ff33" />
<rect x="37" y="15" width="1" height="1" fill="#33ff33" />
<rect x="38" y="15" width="1" height="1" fill="#33ff33" />
<rect x="39" y="15" width="1" height="1" fill="#33ff33" />
<rect x="40" y="15" width="1" height="1" fill="#33ff33" />
<rect x="41" y="15" width="1" height="1" fill="#33ff33" />
<rect x="42" y="15" width="1" height="1" fill="#33ff33" />
<rect x="43" y="15" width="1" height="1" fill="#33ff33" />
<rect x="0" y="16" width="1" height="1" fill="#33ff33" />
<rect x="1" y="16" width="1" height="1" fill="#33ff33" />
<rect x="2" y="16" width="1" height="1" fill="#33ff33" />
<rect x="12" y="16" width="1" height="1" fill="#33ff33" />
<rect x="13" y="16" width="1" height="1" fill="#33ff33" />
<rect x="14" y="16" width="1" height="1" fill="#33ff33" />
<rect x="15" y="16" width="1" height="1" fill="#33ff33" />
<rect x="25" y="16" width="1" height="1" fill="#33ff33" />
<rect x="26" y="16" width="1" height="1" fill="#33ff33" />
<rect x="27" y="16" width="1" height="1" fill="#33ff33" />
<rect x="28" y="16" width="1" height="1" fill="#33ff33" />
<rect x="29" y="16" width="1" height="1" fill="#33ff33" />
<rect x="30" y="16" width="1" height="1" fill="#33ff33" />
<rect x="31" y="16" width="1" height="1" fill="#33ff33" />
<rect x="32" y="16" width="1" height="1" fill="#33ff33" />
<rect x="33" y="16" width="1" height="1" fill="#33ff33" />
<rect x="34" y="16" width="1" height="1" fill="#33ff33" />
<rect x="35" y="16" width="1" height="1" fill="#33ff33" />
<rect x="36" y="16" width="1" height="1" fill="#33ff33" />
<rect x="37" y="16" width="1" height="1" fill="#33ff33" />
<rect x="38" y="16" width="1" height="1" fill="#33ff33" />
<rect x="39" y="16" width="1" height="1" fill="#33ff33" />
<rect x="40" y="16" width="1" height="1" fill="#33ff33" />
<rect x="41" y="16" width="1" height="1" fill="#33ff33" />
<rect x="42" y="16" width="1" height="1" fill="#33ff33" />
<rect x="43" y="16" width="1" height="1" fill="#33ff33" />
<rect x="44" y="16" width="1" height="1" fill="#33ff33" />
<rect x="0" y="17" width="1" height="1" fill="#33ff33" />
<rect x="1" y="17" width="1" height="1" fill="#33ff33" />
<rect x="2" y="17" width="1" height="1" fill="#33ff33" />
<rect x="12" y="17" width="1" height="1" fill="#33ff33" />
<rect x="13" y="17" width="1" height="1" fill="#33ff33" />
<rect x="14" y="17" width="1" height="1" fill="#33ff33" />
<rect x="15" y="17" width="1" height="1" fill="#33ff33" />
<rect x="40" y="17" width="1" height="1" fill="#33ff33" />
<rect x="41" y="17" width="1" height="1" fill="#33ff33" />
<rect x="42" y="17" width="1" height="1" fill="#33ff33" />
<rect x="43" y="17" width="1" height="1" fill="#33ff33" />
<rect x="44" y="17" width="1" height="1" fill="#33ff33" />
<rect x="45" y="17" width="1" height="1" fill="#33ff33" />
<rect x="0" y="18" width="1" height="1" fill="#33ff33" />
<rect x="1" y="18" width="1" height="1" fill="#33ff33" />
<rect x="2" y="18" width="1" height="1" fill="#33ff33" />
<rect x="12" y="18" width="1" height="1" fill="#33ff33" />
<rect x="13" y="18" width="1" height="1" fill="#33ff33" />
<rect x="14" y="18" width="1" height="1" fill="#33ff33" />
<rect x="15" y="18" width="1" height="1" fill="#33ff33" />
<rect x="41" y="18" width="1" height="1" fill="#33ff33" />
<rect x="42" y="18" width="1" height="1" fill="#33ff33" />
<rect x="43" y="18" width="1" height="1" fill="#33ff33" />
<rect x="44" y="18" width="1" height="1" fill="#33ff33" />
<rect x="45" y="18" width="1" height="1" fill="#33ff33" />
<rect x="46" y="18" width="1" height="1" fill="#33ff33" />
<rect x="0" y="19" width="1" height="1" fill="#33ff33" />
<rect x="1" y="19" width="1" height="1" fill="#33ff33" />
<rect x="2" y="19" width="1" height="1" fill="#33ff33" />
<rect x="12" y="19" width="1" height="1" fill="#33ff33" />
<rect x="13" y="19" width="1" height="1" fill="#33ff33" />
<rect x="14" y="19" width="1" height="1" fill="#33ff33" />
<rect x="15" y="19" width="1" height="1" fill="#33ff33" />
<rect x="42" y="19" width="1" height="1" fill="#33ff33" />
<rect x="43" y="19" width="1" height="1" fill="#33ff33" />
<rect x="44" y="19" width="1" height="1" fill="#33ff33" />
<rect x="45" y="19" width="1" height="1" fill="#33ff33" />
<rect x="46" y="19" width="1" height="1" fill="#33ff33" />
<rect x="47" y="19" width="1" height="1" fill="#33ff33" />
<rect x="0" y="20" width="1" height="1" fill="#33ff33" />
<rect x="1" y="20" width="1" height="1" fill="#33ff33" />
<rect x="2" y="20" width="1" height="1" fill="#33ff33" />
<rect x="12" y="20" width="1" height="1" fill="#33ff33" />
<rect x="13" y="20" width="1" height="1" fill="#33ff33" />
<rect x="14" y="20" width="1" height="1" fill="#33ff33" />
<rect x="15" y="20" width="1" height="1" fill="#33ff33" />
<rect x="43" y="20" width="1" height="1" fill="#33ff33" />
<rect x="44" y="20" width="1" height="1" fill="#33ff33" />
<rect x="45" y="20" width="1" height="1" fill="#33ff33" />
<rect x="46" y="20" width="1" height="1" fill="#33ff33" />
<rect x="47" y="20" width="1" height="1" fill="#33ff33" />
<rect x="0" y="21" width="1" height="1" fill="#33ff33" />
<rect x="1" y="21" width="1" height="1" fill="#33ff33" />
<rect x="2" y="21" width="1" height="1" fill="#33ff33" />
<rect x="12" y="21" width="1" height="1" fill="#33ff33" />
<rect x="13" y="21" width="1" height="1" fill="#33ff33" />
<rect x="14" y="21" width="1" height="1" fill="#33ff33" />
<rect x="15" y="21" width="1" height="1" fill="#33ff33" />
<rect x="44" y="21" width="1" height="1" fill="#33ff33" />
<rect x="45" y="21" width="1" height="1" fill="#33ff33" />
<rect x="46" y="21" width="1" height="1" fill="#33ff33" />
<rect x="47" y="21" width="1" height="1" fill="#33ff33" />
<rect x="0" y="22" width="1" height="1" fill="#33ff33" />
<rect x="1" y="22" width="1" height="1" fill="#33ff33" />
<rect x="2" y="22" width="1" height="1" fill="#33ff33" />
<rect x="12" y="22" width="1" height="1" fill="#33ff33" />
<rect x="13" y="22" width="1" height="1" fill="#33ff33" />
<rect x="14" y="22" width="1" height="1" fill="#33ff33" />
<rect x="15" y="22" width="1" height="1" fill="#33ff33" />
<rect x="45" y="22" width="1" height="1" fill="#33ff33" />
<rect x="46" y="22" width="1" height="1" fill="#33ff33" />
<rect x="47" y="22" width="1" height="1" fill="#33ff33" />
<rect x="0" y="23" width="1" height="1" fill="#33ff33" />
<rect x="1" y="23" width="1" height="1" fill="#33ff33" />
<rect x="2" y="23" width="1" height="1" fill="#33ff33" />
<rect x="12" y="23" width="1" height="1" fill="#33ff33" />
<rect x="13" y="23" width="1" height="1" fill="#33ff33" />
<rect x="14" y="23" width="1" height="1" fill="#33ff33" />
<rect x="15" y="23" width="1" height="1" fill="#33ff33" />
<rect x="45" y="23" width="1" height="1" fill="#33ff33" />
<rect x="46" y="23" width="1" height="1" fill="#33ff33" />
<rect x="47" y="23" width="1" height="1" fill="#33ff33" />
<rect x="0" y="24" width="1" height="1" fill="#33ff33" />
<rect x="1" y="24" width="1" height="1" fill="#33ff33" />
<rect x="2" y="24" width="1" height="1" fill="#33ff33" />
<rect x="12" y="24" width="1" height="1" fill="#33ff33" />
<rect x="13" y="24" width="1" height="1" fill="#33ff33" />
<rect x="14" y="24" width="1" height="1" fill="#33ff33" />
<rect x="15" y="24" width="1" height="1" fill="#33ff33" />
<rect x="45" y="24" width="1" height="1" fill="#33ff33" />
<rect x="46" y="24" width="1" height="1" fill="#33ff33" />
<rect x="47" y="24" width="1" height="1" fill="#33ff33" />
<rect x="0" y="25" width="1" height="1" fill="#33ff33" />
<rect x="1" y="25" width="1" height="1" fill="#33ff33" />
<rect x="2" y="25" width="1" height="1" fill="#33ff33" />
<rect x="12" y="25" width="1" height="1" fill="#33ff33" />
<rect x="13" y="25" width="1" height="1" fill="#33ff33" />
<rect x="14" y="25" width="1" height="1" fill="#33ff33" />
<rect x="15" y="25" width="1" height="1" fill="#33ff33" />
<rect x="29" y="25" width="1" height="1" fill="#33ff33" />
<rect x="30" y="25" width="1" height="1" fill="#33ff33" />
<rect x="31" y="25" width="1" height="1" fill="#33ff33" />
<rect x="45" y="25" width="1" height="1" fill="#33ff33" />
<rect x="46" y="25" width="1" height="1" fill="#33ff33" />
<rect x="47" y="25" width="1" height="1" fill="#33ff33" />
<rect x="0" y="26" width="1" height="1" fill="#33ff33" />
<rect x="1" y="26" width="1" height="1" fill="#33ff33" />
<rect x="2" y="26" width="1" height="1" fill="#33ff33" />
<rect x="12" y="26" width="1" height="1" fill="#33ff33" />
<rect x="13" y="26" width="1" height="1" fill="#33ff33" />
<rect x="14" y="26" width="1" height="1" fill="#33ff33" />
<rect x="15" y="26" width="1" height="1" fill="#33ff33" />
<rect x="27" y="26" width="1" height="1" fill="#33ff33" />
<rect x="28" y="26" width="1" height="1" fill="#33ff33" />
<rect x="29" y="26" width="1" height="1" fill="#33ff33" />
<rect x="30" y="26" width="1" height="1" fill="#33ff33" />
<rect x="31" y="26" width="1" height="1" fill="#33ff33" />
<rect x="32" y="26" width="1" height="1" fill="#33ff33" />
<rect x="33" y="26" width="1" height="1" fill="#33ff33" />
<rect x="45" y="26" width="1" height="1" fill="#33ff33" />
<rect x="46" y="26" width="1" height="1" fill="#33ff33" />
<rect x="47" y="26" width="1" height="1" fill="#33ff33" />
<rect x="0" y="27" width="1" height="1" fill="#33ff33" />
<rect x="1" y="27" width="1" height="1" fill="#33ff33" />
<rect x="2" y="27" width="1" height="1" fill="#33ff33" />
<rect x="12" y="27" width="1" height="1" fill="#33ff33" />
<rect x="13" y="27" width="1" height="1" fill="#33ff33" />
<rect x="14" y="27" width="1" height="1" fill="#33ff33" />
<rect x="15" y="27" width="1" height="1" fill="#33ff33" />
<rect x="26" y="27" width="1" height="1" fill="#33ff33" />
<rect x="27" y="27" width="1" height="1" fill="#33ff33" />
<rect x="28" y="27" width="1" height="1" fill="#33ff33" />
<rect x="29" y="27" width="1" height="1" fill="#33ff33" />
<rect x="30" y="27" width="1" height="1" fill="#33ff33" />
<rect x="31" y="27" width="1" height="1" fill="#33ff33" />
<rect x="32" y="27" width="1" height="1" fill="#33ff33" />
<rect x="33" y="27" width="1" height="1" fill="#33ff33" />
<rect x="34" y="27" width="1" height="1" fill="#33ff33" />
<rect x="45" y="27" width="1" height="1" fill="#33ff33" />
<rect x="46" y="27" width="1" height="1" fill="#33ff33" />
<rect x="47" y="27" width="1" height="1" fill="#33ff33" />
<rect x="0" y="28" width="1" height="1" fill="#33ff33" />
<rect x="1" y="28" width="1" height="1" fill="#33ff33" />
<rect x="2" y="28" width="1" height="1" fill="#33ff33" />
<rect x="12" y="28" width="1" height="1" fill="#33ff33" />
<rect x="13" y="28" width="1" height="1" fill="#33ff33" />
<rect x="14" y="28" width="1" height="1" fill="#33ff33" />
<rect x="15" y="28" width="1" height="1" fill="#33ff33" />
<rect x="25" y="28" width="1" height="1" fill="#33ff33" />
<rect x="26" y="28" width="1" height="1" fill="#33ff33" />
<rect x="27" y="28" width="1" height="1" fill="#33ff33" />
<rect x="28" y="28" width="1" height="1" fill="#33ff33" />
<rect x="29" y="28" width="1" height="1" fill="#33ff33" />
<rect x="30" y="28" width="1" height="1" fill="#33ff33" />
<rect x="31" y="28" width="1" height="1" fill="#33ff33" />
<rect x="32" y="28" width="1" height="1" fill="#33ff33" />
<rect x="33" y="28" width="1" height="1" fill="#33ff33" />
<rect x="34" y="28" width="1" height="1" fill="#33ff33" />
<rect x="35" y="28" width="1" height="1" fill="#33ff33" />
<rect x="45" y="28" width="1" height="1" fill="#33ff33" />
<rect x="46" y="28" width="1" height="1" fill="#33ff33" />
<rect x="47" y="28" width="1" height="1" fill="#33ff33" />
<rect x="0" y="29" width="1" height="1" fill="#33ff33" />
<rect x="1" y="29" width="1" height="1" fill="#33ff33" />
<rect x="2" y="29" width="1" height="1" fill="#33ff33" />
<rect x="12" y="29" width="1" height="1" fill="#33ff33" />
<rect x="13" y="29" width="1" height="1" fill="#33ff33" />
<rect x="14" y="29" width="1" height="1" fill="#33ff33" />
<rect x="15" y="29" width="1" height="1" fill="#33ff33" />
<rect x="25" y="29" width="1" height="1" fill="#33ff33" />
<rect x="26" y="29" width="1" height="1" fill="#33ff33" />
<rect x="27" y="29" width="1" height="1" fill="#33ff33" />
<rect x="28" y="29" width="1" height="1" fill="#33ff33" />
<rect x="32" y="29" width="1" height="1" fill="#33ff33" />
<rect x="33" y="29" width="1" height="1" fill="#33ff33" />
<rect x="34" y="29" width="1" height="1" fill="#33ff33" />
<rect x="35" y="29" width="1" height="1" fill="#33ff33" />
<rect x="45" y="29" width="1" height="1" fill="#33ff33" />
<rect x="46" y="29" width="1" height="1" fill="#33ff33" />
<rect x="47" y="29" width="1" height="1" fill="#33ff33" />
<rect x="0" y="30" width="1" height="1" fill="#33ff33" />
<rect x="1" y="30" width="1" height="1" fill="#33ff33" />
<rect x="2" y="30" width="1" height="1" fill="#33ff33" />
<rect x="12" y="30" width="1" height="1" fill="#33ff33" />
<rect x="13" y="30" width="1" height="1" fill="#33ff33" />
<rect x="14" y="30" width="1" height="1" fill="#33ff33" />
<rect x="15" y="30" width="1" height="1" fill="#33ff33" />
<rect x="25" y="30" width="1" height="1" fill="#33ff33" />
<rect x="26" y="30" width="1" height="1" fill="#33ff33" />
<rect x="27" y="30" width="1" height="1" fill="#33ff33" />
<rect x="33" y="30" width="1" height="1" fill="#33ff33" />
<rect x="34" y="30" width="1" height="1" fill="#33ff33" />
<rect x="35" y="30" width="1" height="1" fill="#33ff33" />
<rect x="45" y="30" width="1" height="1" fill="#33ff33" />
<rect x="46" y="30" width="1" height="1" fill="#33ff33" />
<rect x="47" y="30" width="1" height="1" fill="#33ff33" />
<rect x="0" y="31" width="1" height="1" fill="#33ff33" />
<rect x="1" y="31" width="1" height="1" fill="#33ff33" />
<rect x="2" y="31" width="1" height="1" fill="#33ff33" />
<rect x="12" y="31" width="1" height="1" fill="#33ff33" />
<rect x="13" y="31" width="1" height="1" fill="#33ff33" />
<rect x="14" y="31" width="1" height="1" fill="#33ff33" />
<rect x="15" y="31" width="1" height="1" fill="#33ff33" />
<rect x="25" y="31" width="1" height="1" fill="#33ff33" />
<rect x="26" y="31" width="1" height="1" fill="#33ff33" />
<rect x="27" y="31" width="1" height="1" fill="#33ff33" />
<rect x="33" y="31" width="1" height="1" fill="#33ff33" />
<rect x="34" y="31" width="1" height="1" fill="#33ff33" />
<rect x="35" y="31" width="1" height="1" fill="#33ff33" />
<rect x="45" y="31" width="1" height="1" fill="#33ff33" />
<rect x="46" y="31" width="1" height="1" fill="#33ff33" />
<rect x="47" y="31" width="1" height="1" fill="#33ff33" />
<rect x="0" y="32" width="1" height="1" fill="#33ff33" />
<rect x="1" y="32" width="1" height="1" fill="#33ff33" />
<rect x="2" y="32" width="1" height="1" fill="#33ff33" />
<rect x="12" y="32" width="1" height="1" fill="#33ff33" />
<rect x="13" y="32" width="1" height="1" fill="#33ff33" />
<rect x="14" y="32" width="1" height="1" fill="#33ff33" />
<rect x="15" y="32" width="1" height="1" fill="#33ff33" />
<rect x="25" y="32" width="1" height="1" fill="#33ff33" />
<rect x="26" y="32" width="1" height="1" fill="#33ff33" />
<rect x="27" y="32" width="1" height="1" fill="#33ff33" />
<rect x="33" y="32" width="1" height="1" fill="#33ff33" />
<rect x="34" y="32" width="1" height="1" fill="#33ff33" />
<rect x="35" y="32" width="1" height="1" fill="#33ff33" />
<rect x="45" y="32" width="1" height="1" fill="#33ff33" />
<rect x="46" y="32" width="1" height="1" fill="#33ff33" />
<rect x="47" y="32" width="1" height="1" fill="#33ff33" />
<rect x="0" y="33" width="1" height="1" fill="#33ff33" />
<rect x="1" y="33" width="1" height="1" fill="#33ff33" />
<rect x="2" y="33" width="1" height="1" fill="#33ff33" />
<rect x="12" y="33" width="1" height="1" fill="#33ff33" />
<rect x="13" y="33" width="1" height="1" fill="#33ff33" />
<rect x="14" y="33" width="1" height="1" fill="#33ff33" />
<rect x="15" y="33" width="1" height="1" fill="#33ff33" />
<rect x="25" y="33" width="1" height="1" fill="#33ff33" />
<rect x="26" y="33" width="1" height="1" fill="#33ff33" />
<rect x="27" y="33" width="1" height="1" fill="#33ff33" />
<rect x="33" y="33" width="1" height="1" fill="#33ff33" />
<rect x="34" y="33" width="1" height="1" fill="#33ff33" />
<rect x="35" y="33" width="1" height="1" fill="#33ff33" />
<rect x="45" y="33" width="1" height="1" fill="#33ff33" />
<rect x="46" y="33" width="1" height="1" fill="#33ff33" />
<rect x="47" y="33" width="1" height="1" fill="#33ff33" />
<rect x="0" y="34" width="1" height="1" fill="#33ff33" />
<rect x="1" y="34" width="1" height="1" fill="#33ff33" />
<rect x="2" y="34" width="1" height="1" fill="#33ff33" />
<rect x="12" y="34" width="1" height="1" fill="#33ff33" />
<rect x="13" y="34" width="1" height="1" fill="#33ff33" />
<rect x="14" y="34" width="1" height="1" fill="#33ff33" />
<rect x="15" y="34" width="1" height="1" fill="#33ff33" />
<rect x="25" y="34" width="1" height="1" fill="#33ff33" />
<rect x="26" y="34" width="1" height="1" fill="#33ff33" />
<rect x="27" y="34" width="1" height="1" fill="#33ff33" />
<rect x="33" y="34" width="1" height="1" fill="#33ff33" />
<rect x="34" y="34" width="1" height="1" fill="#33ff33" />
<rect x="35" y="34" width="1" height="1" fill="#33ff33" />
<rect x="45" y="34" width="1" height="1" fill="#33ff33" />
<rect x="46" y="34" width="1" height="1" fill="#33ff33" />
<rect x="47" y="34" width="1" height="1" fill="#33ff33" />
<rect x="0" y="35" width="1" height="1" fill="#33ff33" />
<rect x="1" y="35" width="1" height="1" fill="#33ff33" />
<rect x="2" y="35" width="1" height="1" fill="#33ff33" />
<rect x="12" y="35" width="1" height="1" fill="#33ff33" />
<rect x="13" y="35" width="1" height="1" fill="#33ff33" />
<rect x="14" y="35" width="1" height="1" fill="#33ff33" />
<rect x="15" y="35" width="1" height="1" fill="#33ff33" />
<rect x="25" y="35" width="1" height="1" fill="#33ff33" />
<rect x="26" y="35" width="1" height="1" fill="#33ff33" />
<rect x="27" y="35" width="1" height="1" fill="#33ff33" />
<rect x="33" y="35" width="1" height="1" fill="#33ff33" />
<rect x="34" y="35" width="1" height="1" fill="#33ff33" />
<rect x="35" y="35" width="1" height="1" fill="#33ff33" />
<rect x="45" y="35" width="1" height="1" fill="#33ff33" />
<rect x="46" y="35" width="1" height="1" fill="#33ff33" />
<rect x="47" y="35" width="1" height="1" fill="#33ff33" />
<rect x="0" y="36" width="1" height="1" fill="#33ff33" />
<rect x="1" y="36" width="1" height="1" fill="#33ff33" />
<rect x="2" y="36" width="1" height="1" fill="#33ff33" />
<rect x="12" y="36" width="1" height="1" fill="#33ff33" />
<rect x="13" y="36" width="1" height="1" fill="#33ff33" />
<rect x="14" y="36" width="1" height="1" fill="#33ff33" />
<rect x="15" y="36" width="1" height="1" fill="#33ff33" />
<rect x="25" y="36" width="1" height="1" fill="#33ff33" />
<rect x="26" y="36" width="1" height="1" fill="#33ff33" />
<rect x="27" y="36" width="1" height="1" fill="#33ff33" />
<rect x="33" y="36" width="1" height="1" fill="#33ff33" />
<rect x="34" y="36" width="1" height="1" fill="#33ff33" />
<rect x="35" y="36" width="1" height="1" fill="#33ff33" />
<rect x="45" y="36" width="1" height="1" fill="#33ff33" />
<rect x="46" y="36" width="1" height="1" fill="#33ff33" />
<rect x="47" y="36" width="1" height="1" fill="#33ff33" />
<rect x="0" y="37" width="1" height="1" fill="#33ff33" />
<rect x="1" y="37" width="1" height="1" fill="#33ff33" />
<rect x="2" y="37" width="1" height="1" fill="#33ff33" />
<rect x="12" y="37" width="1" height="1" fill="#33ff33" />
<rect x="13" y="37" width="1" height="1" fill="#33ff33" />
<rect x="14" y="37" width="1" height="1" fill="#33ff33" />
<rect x="15" y="37" width="1" height="1" fill="#33ff33" />
<rect x="25" y="37" width="1" height="1" fill="#33ff33" />
<rect x="26" y="37" width="1" height="1" fill="#33ff33" />
<rect x="27" y="37" width="1" height="1" fill="#33ff33" />
<rect x="33" y="37" width="1" height="1" fill="#33ff33" />
<rect x="34" y="37" width="1" height="1" fill="#33ff33" />
<rect x="35" y="37" width="1" height="1" fill="#33ff33" />
<rect x="45" y="37" width="1" height="1" fill="#33ff33" />
<rect x="46" y="37" width="1" height="1" fill="#33ff33" />
<rect x="47" y="37" width="1" height="1" fill="#33ff33" />
<rect x="0" y="38" width="1" height="1" fill="#33ff33" />
<rect x="1" y="38" width="1" height="1" fill="#33ff33" />
<rect x="2" y="38" width="1" height="1" fill="#33ff33" />
<rect x="12" y="38" width="1" height="1" fill="#33ff33" />
<rect x="13" y="38" width="1" height="1" fill="#33ff33" />
<rect x="14" y="38" width="1" height="1" fill="#33ff33" />
<rect x="15" y="38" width="1" height="1" fill="#33ff33" />
<rect x="25" y="38" width="1" height="1" fill="#33ff33" />
<rect x="26" y="38" width="1" height="1" fill="#33ff33" />
<rect x="27" y="38" width="1" height="1" fill="#33ff33" />
<rect x="33" y="38" width="1" height="1" fill="#33ff33" />
<rect x="34" y="38" width="1" height="1" fill="#33ff33" />
<rect x="35" y="38" width="1" height="1" fill="#33ff33" />
<rect x="45" y="38" width="1" height="1" fill="#33ff33" />
<rect x="46" y="38" width="1" height="1" fill="#33ff33" />
<rect x="47" y="38" width="1" height="1" fill="#33ff33" />
<rect x="0" y="39" width="1" height="1" fill="#33ff33" />
<rect x="1" y="39" width="1" height="1" fill="#33ff33" />
<rect x="2" y="39" width="1" height="1" fill="#33ff33" />
<rect x="12" y="39" width="1" height="1" fill="#33ff33" />
<rect x="13" y="39" width="1" height="1" fill="#33ff33" />
<rect x="14" y="39" width="1" height="1" fill="#33ff33" />
<rect x="15" y="39" width="1" height="1" fill="#33ff33" />
<rect x="25" y="39" width="1" height="1" fill="#33ff33" />
<rect x="26" y="39" width="1" height="1" fill="#33ff33" />
<rect x="27" y="39" width="1" height="1" fill="#33ff33" />
<rect x="33" y="39" width="1" height="1" fill="#33ff33" />
<rect x="34" y="39" width="1" height="1" fill="#33ff33" />
<rect x="35" y="39" width="1" height="1" fill="#33ff33" />
<rect x="45" y="39" width="1" height="1" fill="#33ff33" />
<rect x="46" y="39" width="1" height="1" fill="#33ff33" />
<rect x="47" y="39" width="1" height="1" fill="#33ff33" />
<rect x="0" y="40" width="1" height="1" fill="#33ff33" />
<rect x="1" y="40" width="1" height="1" fill="#33ff33" />
<rect x="2" y="40" width="1" height="1" fill="#33ff33" />
<rect x="12" y="40" width="1" height="1" fill="#33ff33" />
<rect x="13" y="40" width="1" height="1" fill="#33ff33" />
<rect x="14" y="40" width="1" height="1" fill="#33ff33" />
<rect x="15" y="40" width="1" height="1" fill="#33ff33" />
<rect x="25" y="40" width="1" height="1" fill="#33ff33" />
<rect x="26" y="40" width="1" height="1" fill="#33ff33" />
<rect x="27" y="40" width="1" height="1" fill="#33ff33" />
<rect x="33" y="40" width="1" height="1" fill="#33ff33" />
<rect x="34" y="40" width="1" height="1" fill="#33ff33" />
<rect x="35" y="40" width="1" height="1" fill="#33ff33" />
<rect x="45" y="40" width="1" height="1" fill="#33ff33" />
<rect x="46" y="40" width="1" height="1" fill="#33ff33" />
<rect x="47" y="40" width="1" height="1" fill="#33ff33" />
<rect x="0" y="41" width="1" height="1" fill="#33ff33" />
<rect x="1" y="41" width="1" height="1" fill="#33ff33" />
<rect x="2" y="41" width="1" height="1" fill="#33ff33" />
<rect x="12" y="41" width="1" height="1" fill="#33ff33" />
<rect x="13" y="41" width="1" height="1" fill="#33ff33" />
<rect x="14" y="41" width="1" height="1" fill="#33ff33" />
<rect x="15" y="41" width="1" height="1" fill="#33ff33" />
<rect x="25" y="41" width="1" height="1" fill="#33ff33" />
<rect x="26" y="41" width="1" height="1" fill="#33ff33" />
<rect x="27" y="41" width="1" height="1" fill="#33ff33" />
<rect x="33" y="41" width="1" height="1" fill="#33ff33" />
<rect x="34" y="41" width="1" height="1" fill="#33ff33" />
<rect x="35" y="41" width="1" height="1" fill="#33ff33" />
<rect x="45" y="41" width="1" height="1" fill="#33ff33" />
<rect x="46" y="41" width="1" height="1" fill="#33ff33" />
<rect x="47" y="41" width="1" height="1" fill="#33ff33" />
<rect x="0" y="42" width="1" height="1" fill="#33ff33" />
<rect x="1" y="42" width="1" height="1" fill="#33ff33" />
<rect x="2" y="42" width="1" height="1" fill="#33ff33" />
<rect x="12" y="42" width="1" height="1" fill="#33ff33" />
<rect x="13" y="42" width="1" height="1" fill="#33ff33" />
<rect x="14" y="42" width="1" height="1" fill="#33ff33" />
<rect x="15" y="42" width="1" height="1" fill="#33ff33" />
<rect x="25" y="42" width="1" height="1" fill="#33ff33" />
<rect x="26" y="42" width="1" height="1" fill="#33ff33" />
<rect x="27" y="42" width="1" height="1" fill="#33ff33" />
<rect x="33" y="42" width="1" height="1" fill="#33ff33" />
<rect x="34" y="42" width="1" height="1" fill="#33ff33" />
<rect x="35" y="42" width="1" height="1" fill="#33ff33" />
<rect x="45" y="42" width="1" height="1" fill="#33ff33" />
<rect x="46" y="42" width="1" height="1" fill="#33ff33" />
<rect x="47" y="42" width="1" height="1" fill="#33ff33" />
<rect x="0" y="43" width="1" height="1" fill="#33ff33" />
<rect x="1" y="43" width="1" height="1" fill="#33ff33" />
<rect x="2" y="43" width="1" height="1" fill="#33ff33" />
<rect x="12" y="43" width="1" height="1" fill="#33ff33" />
<rect x="13" y="43" width="1" height="1" fill="#33ff33" />
<rect x="14" y="43" width="1" height="1" fill="#33ff33" />
<rect x="15" y="43" width="1" height="1" fill="#33ff33" />
<rect x="25" y="43" width="1" height="1" fill="#33ff33" />
<rect x="26" y="43" width="1" height="1" fill="#33ff33" />
<rect x="27" y="43" width="1" height="1" fill="#33ff33" />
<rect x="33" y="43" width="1" height="1" fill="#33ff33" />
<rect x="34" y="43" width="1" height="1" fill="#33ff33" />
<rect x="35" y="43" width="1" height="1" fill="#33ff33" />
<rect x="45" y="43" width="1" height="1" fill="#33ff33" />
<rect x="46" y="43" width="1" height="1" fill="#33ff33" />
<rect x="47" y="43" width="1" height="1" fill="#33ff33" />
<rect x="0" y="44" width="1" height="1" fill="#33ff33" />
<rect x="1" y="44" width="1" height="1" fill="#33ff33" />
<rect x="2" y="44" width="1" height="1" fill="#33ff33" />
<rect x="12" y="44" width="1" height="1" fill="#33ff33" />
<rect x="13" y="44" width="1" height="1" fill="#33ff33" />
<rect x="14" y="44" width="1" height="1" fill="#33ff33" />
<rect x="15" y="44" width="1" height="1" fill="#33ff33" />
<rect x="25" y="44" width="1" height="1" fill="#33ff33" />
<rect x="26" y="44" width="1" height="1" fill="#33ff33" />
<rect x="27" y="44" width="1" height="1" fill="#33ff33" />
<rect x="33" y="44" width="1" height="1" fill="#33ff33" />
<rect x="34" y="44" width="1" height="1" fill="#33ff33" />
<rect x="35" y="44" width="1" height="1" fill="#33ff33" />
<rect x="45" y="44" width="1" height="1" fill="#33ff33" />
<rect x="46" y="44" width="1" height="1" fill="#33ff33" />
<rect x="47" y="44" width="1" height="1" fill="#33ff33" />
<rect x="0" y="45" width="1" height="1" fill="#33ff33" />
<rect x="1" y="45" width="1" height="1" fill="#33ff33" />
<rect x="2" y="45" width="1" height="1" fill="#33ff33" />
<rect x="3" y="45" width="1" height="1" fill="#33ff33" />
<rect x="4" y="45" width="1" height="1" fill="#33ff33" />
<rect x="5" y="45" width="1" height="1" fill="#33ff33" />
<rect x="6" y="45" width="1" height="1" fill="#33ff33" />
<rect x="7" y="45" width="1" height="1" fill="#33ff33" />
<rect x="8" y="45" width="1" height="1" fill="#33ff33" />
<rect x="9" y="45" width="1" height="1" fill="#33ff33" />
<rect x="10" y="45" width="1" height="1" fill="#33ff33" />
<rect x="11" y="45" width="1" height="1" fill="#33ff33" />
<rect x="12" y="45" width="1" height="1" fill="#33ff33" />
<rect x="13" y="45" width="1" height="1" fill="#33ff33" />
<rect x="14" y="45" width="1" height="1" fill="#33ff33" />
<rect x="15" y="45" width="1" height="1" fill="#33ff33" />
<rect x="16" y="45" width="1" height="1" fill="#33ff33" />
<rect x="17" y="45" width="1" height="1" fill="#33ff33" />
<rect x="18" y="45" width="1" height="1" fill="#33ff33" />
<rect x="19" y="45" width="1" height="1" fill="#33ff33" />
<rect x="20" y="45" width="1" height="1" fill="#33ff33" />
<rect x="21" y="45" width="1" height="1" fill="#33ff33" />
<rect x="22" y="45" width="1" height="1" fill="#33ff33" />
<rect x="23" y="45" width="1" height="1" fill="#33ff33" />
<rect x="24" y="45" width="1" height="1" fill="#33ff33" />
<rect x="25" y="45" width="1" height="1" fill="#33ff33" />
<rect x="26" y="45" width="1" height="1" fill="#33ff33" />
<rect x="27" y="45" width="1" height="1" fill="#33ff33" />
<rect x="33" y="45" width="1" height="1" fill="#33ff33" />
<rect x="34" y="45" width="1" height="1" fill="#33ff33" />
<rect x="35" y="45" width="1" height="1" fill="#33ff33" />
<rect x="36" y="45" width="1" height="1" fill="#33ff33" />
<rect x="37" y="45" width="1" height="1" fill="#33ff33" />
<rect x="38" y="45" width="1" height="1" fill="#33ff33" />
<rect x="39" y="45" width="1" height="1" fill="#33ff33" />
<rect x="40" y="45" width="1" height="1" fill="#33ff33" />
<rect x="41" y="45" width="1" height="1" fill="#33ff33" />
<rect x="42" y="45" width="1" height="1" fill="#33ff33" />
<rect x="43" y="45" width="1" height="1" fill="#33ff33" />
<rect x="44" y="45" width="1" height="1" fill="#33ff33" />
<rect x="45" y="45" width="1" height="1" fill="#33ff33" />
<rect x="46" y="45" width="1" height="1" fill="#33ff33" />
<rect x="47" y="45" width="1" height="1" fill="#33ff33" />
<rect x="0" y="46" width="1" height="1" fill="#33ff33" />
<rect x="1" y="46" width="1" height="1" fill="#33ff33" />
<rect x="2" y="46" width="1" height="1" fill="#33ff33" />
<rect x="3" y="46" width="1" height="1" fill="#33ff33" />
<rect x="4" y="46" width="1" height="1" fill="#33ff33" />
<rect x="5" y="46" width="1" height="1" fill="#33ff33" />
<rect x="6" y="46" width="1" height="1" fill="#33ff33" />
<rect x="7" y="46" width="1" height="1" fill="#33ff33" />
<rect x="8" y="46" width="1" height="1" fill="#33ff33" />
<rect x="9" y="46" width="1" height="1" fill="#33ff33" />
<rect x="10" y="46" width="1" height="1" fill="#33ff33" />
<rect x="11" y="46" width="1" height="1" fill="#33ff33" />
<rect x="12" y="46" width="1" height="1" fill="#33ff33" />
<rect x="13" y="46" width="1" height="1" fill="#33ff33" />
<rect x="14" y="46" width="1" height="1" fill="#33ff33" />
<rect x="15" y="46" width="1" height="1" fill="#33ff33" />
<rect x="16" y="46" width="1" height="1" fill="#33ff33" />
<rect x="17" y="46" width="1" height="1" fill="#33ff33" />
<rect x="18" y="46" width="1" height="1" fill="#33ff33" />
<rect x="19" y="46" width="1" height="1" fill="#33ff33" />
<rect x="20" y="46" width="1" height="1" fill="#33ff33" />
<rect x="21" y="46" width="1" height="1" fill="#33ff33" />
<rect x="22" y="46" width="1" height="1" fill="#33ff33" />
<rect x="23" y="46" width="1" height="1" fill="#33ff33" />
<rect x="24" y="46" width="1" height="1" fill="#33ff33" />
<rect x="25" y="46" width="1" height="1" fill="#33ff33" />
<rect x="26" y="46" width="1" height="1" fill="#33ff33" />
<rect x="27" y="46" width="1" height="1" fill="#33ff33" />
<rect x="33" y="46" width="1" height="1" fill="#33ff33" />
<rect x="34" y="46" width="1" height="1" fill="#33ff33" />
<rect x="35" y="46" width="1" height="1" fill="#33ff33" />
<rect x="36" y="46" width="1" height="1" fill="#33ff33" />
<rect x="37" y="46" width="1" height="1" fill="#33ff33" />
<rect x="38" y="46" width="1" height="1" fill="#33ff33" />
<rect x="39" y="46" width="1" height="1" fill="#33ff33" />
<rect x="40" y="46" width="1" height="1" fill="#33ff33" />
<rect x="41" y="46" width="1" height="1" fill="#33ff33" />
<rect x="42" y="46" width="1" height="1" fill="#33ff33" />
<rect x="43" y="46" width="1" height="1" fill="#33ff33" />
<rect x="44" y="46" width="1" height="1" fill="#33ff33" />
<rect x="45" y="46" width="1" height="1" fill="#33ff33" />
<rect x="46" y="46" width="1" height="1" fill="#33ff33" />
<rect x="47" y="46" width="1" height="1" fill="#33ff33" />
<rect x="0" y="47" width="1" height="1" fill="#33ff33" />
<rect x="1" y="47" width="1" height="1" fill="#33ff33" />
<rect x="2" y="47" width="1" height="1" fill="#33ff33" />
<rect x="3" y="47" width="1" height="1" fill="#33ff33" />
<rect x="4" y="47" width="1" height="1" fill="#33ff33" />
<rect x="5" y="47" width="1" height="1" fill="#33ff33" />
<rect x="6" y="47" width="1" height="1" fill="#33ff33" />
<rect x="7" y="47" width="1" height="1" fill="#33ff33" />
<rect x="8" y="47" width="1" height="1" fill="#33ff33" />
<rect x="9" y="47" width="1" height="1" fill="#33ff33" />
<rect x="10" y="47" width="1" height="1" fill="#33ff33" />
<rect x="11" y="47" width="1" height="1" fill="#33ff33" />
<rect x="12" y="47" width="1" height="1" fill="#33ff33" />
<rect x="13" y="47" width="1" height="1" fill="#33ff33" />
<rect x="14" y="47" width="1" height="1" fill="#33ff33" />
<rect x="15" y="47" width="1" height="1" fill="#33ff33" />
<rect x="16" y="47" width="1" height="1" fill="#33ff33" />
<rect x="17" y="47" width="1" height="1" fill="#33ff33" />
<rect x="18" y="47" width="1" height="1" fill="#33ff33" />
<rect x="19" y="47" width="1" height="1" fill="#33ff33" />
<rect x="20" y="47" width="1" height="1" fill="#33ff33" />
<rect x="21" y="47" width="1" height="1" fill="#33ff33" />
<rect x="22" y="47" width="1" height="1" fill="#33ff33" />
<rect x="23" y="47" width="1" height="1" fill="#33ff33" />
<rect x="24" y="47" width="1" height="1" fill="#33ff33" />
<rect x="25" y="47" width="1" height="1" fill="#33ff33" />
<rect x="26" y="47" width="1" height="1" fill="#33ff33" />
<rect x="27" y="47" width="1" height="1" fill="#33ff33" />
<rect x="33" y="47" width="1" height="1" fill="#33ff33" />
<rect x="34" y="47" width="1" height="1" fill="#33ff33" />
<rect x="35" y="47" width="1" height="1" fill="#33ff33" />
<rect x="36" y="47" width="1" height="1" fill="#33ff33" />
<rect x="37" y="47" width="1" height="1" fill="#33ff33" />
<rect x="38" y="47" width="1" height="1" fill="#33ff33" />
<rect x="39" y="47" width="1" height="1" fill="#33ff33" />
<rect x="40" y="47" width="1" height="1" fill="#33ff33" />
<rect x="41" y="47" width="1" height="1" fill="#33ff33" />
<rect x="42" y="47" width="1" height="1" fill="#33ff33" />
<rect x="43" y="47" width="1" height="1" fill="#33ff33" />
<rect x="44" y="47" width="1" height="1" fill="#33ff33" />
<rect x="45" y="47" width="1" height="1" fill="#33ff33" />
<rect x="46" y="47" width="1" height="1" fill="#33ff33" />
<rect x="47" y="47" width="1" height="1" fill="#33ff33" />
</svg>